<?xml version="1.0" standalone="no"?>
<!DOCTYPE svg PUBLIC "-//W3C//DTD SVG 1.1//EN" "http://www.w3.org/Graphics/SVG/1.1/DTD/svg11.dtd" >
<svg>
<metadata>
Created by FontForge 20120731 at Tue Jul 31 10:23:56 2018
 By www-data
Copyright (c) 2016 by Hannes von Doehren. All rights reserved.
</metadata>
<defs>
<font id="HyundaiSansVnTextOffice-Bold" horiz-adv-x="560" >
  <font-face 
    font-family="Hyundai Sans VN Text Office"
    font-weight="700"
    font-stretch="normal"
    units-per-em="1000"
    panose-1="2 11 8 4 4 0 0 0 0 0"
    ascent="750"
    descent="-250"
    x-height="513"
    cap-height="680"
    bbox="-469 -271 1178 1118"
    underline-thickness="90"
    underline-position="0"
    unicode-range="U+000D-FEFF"
  />
<missing-glyph horiz-adv-x="589" 
d="M506 710v-740h-423v740h423zM441 33v614h-292v-614h292z" />
    <glyph glyph-name=".notdef" horiz-adv-x="589" 
d="M506 710v-740h-423v740h423zM441 33v614h-292v-614h292z" />
    <glyph glyph-name=".null" horiz-adv-x="0" 
 />
    <glyph glyph-name="nonmarkingreturn" unicode="&#xd;" horiz-adv-x="210" 
 />
    <glyph glyph-name="space" unicode=" " horiz-adv-x="210" 
 />
    <glyph glyph-name="exclam" unicode="!" horiz-adv-x="286" 
d="M101 231l-36 449h156l-36 -449h-84zM65 151h156v-151h-156v151z" />
    <glyph glyph-name="quotedbl" unicode="&#x22;" horiz-adv-x="445" 
d="M173 401h-105l-18 279h141zM377 401h-105l-18 279h141z" />
    <glyph glyph-name="numbersign" unicode="#" horiz-adv-x="618" 
d="M89 499h91l36 157h108l-36 -157h114l36 157h108l-36 -157h75v-94h-97l-36 -157h78v-94h-100l-35 -154h-108l35 154h-113l-35 -154h-108l35 154h-67v94h89l36 157h-70v94zM231 248h113l36 157h-113z" />
    <glyph glyph-name="dollar" unicode="$" 
d="M242 -12q-40 4 -73 18t-59 34t-46.5 45t-36.5 51l88 67q23 -40 55.5 -70.5t84.5 -38.5v194l-17 5q-36 10 -66 25.5t-52 39t-34.5 54.5t-12.5 72q0 68 42.5 118t126.5 64v92h103v-93q51 -11 90.5 -39t67.5 -70l-89 -66q-34 52 -81 67v-160q39 -11 73 -28t59 -42.5
t39.5 -59t14.5 -77.5q0 -38 -12.5 -70.5t-35.5 -58t-55 -43t-71 -25.5v-100h-103v95zM389 181q0 26 -13 46.5t-43 34.5v-161q27 11 41.5 32.5t14.5 47.5zM203 490q0 -26 12 -42.5t40 -27.5v139q-26 -8 -39 -27t-13 -42z" />
    <glyph glyph-name="percent" unicode="%" horiz-adv-x="834" 
d="M523 656h98l-309 -656h-99zM196 332q-37 0 -68 12.5t-53.5 35t-35.5 53t-13 66.5t13 66.5t35.5 53t53.5 35t68 12.5t68 -12.5t53.5 -35t35.5 -53t13 -66.5t-13 -66.5t-35.5 -53t-53.5 -35t-68 -12.5zM196 419q34 0 55 23t21 57t-21 57t-55 23t-55 -23t-21 -57t21 -57
t55 -23zM638 -14q-37 0 -68 12.5t-53.5 35t-35.5 53t-13 66.5t13 66.5t35.5 53t53.5 35t68 12.5t68 -12.5t53.5 -35t35.5 -53t13 -66.5t-13 -66.5t-35.5 -53t-53.5 -35t-68 -12.5zM638 73q34 0 55 23t21 57t-21 57t-55 23t-55 -23t-21 -57t21 -57t55 -23z" />
    <glyph glyph-name="ampersand" unicode="&#x26;" horiz-adv-x="665" 
d="M519 163l135 -160v-3h-164l-53 66q-42 -38 -90.5 -59t-99.5 -21q-48 0 -87 15.5t-66.5 42t-42.5 62t-15 74.5q0 73 38 125.5t104 86.5q-20 29 -31 59t-11 68q0 36 13.5 67.5t38 55.5t59 38t77.5 14q40 0 73.5 -12.5t57.5 -34.5t37.5 -52.5t13.5 -65.5q0 -33 -11 -59
t-30.5 -46.5t-47.5 -36.5t-61 -30l93 -111l99 128l85 -65zM257 92q32 0 60 15.5t54 41.5l-128 160q-32 -19 -55 -48t-23 -72q0 -45 26 -71t66 -26zM261 522q0 -23 7 -42.5t24 -42.5q50 19 69.5 39t19.5 49q0 26 -15 45t-44 19q-32 0 -46.5 -20.5t-14.5 -46.5z" />
    <glyph glyph-name="quotesingle" unicode="'" horiz-adv-x="241" 
d="M173 401h-105l-18 279h141z" />
    <glyph glyph-name="parenleft" unicode="(" horiz-adv-x="329" 
d="M41 261q0 89 20 160t50.5 125.5t68 93.5t73.5 65l59 -66q-33 -32 -59.5 -69t-45 -82t-28.5 -101t-10 -126t10 -126t28.5 -101t45 -82t59.5 -69l-59 -66q-36 25 -73.5 64.5t-68 94t-50.5 125.5t-20 160z" />
    <glyph glyph-name="parenright" unicode=")" horiz-adv-x="329" 
d="M288 261q0 -89 -20 -160t-50.5 -125.5t-68 -94t-73.5 -64.5l-59 66q33 32 59.5 69t45 82t28.5 101t10 126t-10 126t-28.5 101t-45 82t-59.5 69l59 66q36 -26 73.5 -65t68 -93.5t50.5 -125.5t20 -160z" />
    <glyph glyph-name="asterisk" unicode="*" horiz-adv-x="442" 
d="M411 505l-58 -15q-23 -6 -42.5 -10t-24.5 -2l-1 -4q5 -2 18.5 -16t28.5 -33l38 -46l-83 -60l-32 50q-13 20 -22.5 38t-9.5 23h-4q0 -5 -9.5 -23t-22.5 -38l-32 -50l-83 60l38 46q15 19 28.5 33t18.5 16l-1 4q-5 -2 -24.5 2t-42.5 10l-58 15l32 97l55 -22
q23 -8 40.5 -16.5t20.5 -13.5l4 3q-3 4 -5.5 24t-4.5 43l-3 60h102l-3 -60q-2 -23 -4.5 -43t-5.5 -24l4 -3q3 5 20.5 13.5t40.5 16.5l55 22z" />
    <glyph glyph-name="plus" unicode="+" 
d="M500 247h-162v-182h-116v182h-162v110h162v184h116v-184h162v-110z" />
    <glyph glyph-name="comma" unicode="," horiz-adv-x="271" 
d="M65 -158l64 158h-71v154h156v-137l-73 -175h-76z" />
    <glyph glyph-name="hyphen" unicode="-" horiz-adv-x="387" 
d="M59 250v106h269v-106h-269z" />
    <glyph glyph-name="period" unicode="." horiz-adv-x="268" 
d="M56 154h156v-154h-156v154z" />
    <glyph glyph-name="slash" unicode="/" horiz-adv-x="447" 
d="M22 0l274 680h129l-274 -680h-129z" />
    <glyph glyph-name="zero.lf" horiz-adv-x="606" 
d="M303 -14q-62 0 -109.5 23.5t-80 68t-49.5 107.5t-17 143q0 79 17 142.5t49.5 108t80 68t109.5 23.5t109.5 -23.5t80 -68t49.5 -108t17 -142.5q0 -80 -17 -143t-49.5 -107.5t-80 -68t-109.5 -23.5zM303 99q68 0 96.5 61t28.5 168q0 53 -6.5 95.5t-21.5 72t-39 45.5t-58 16
t-58 -16t-39 -45.5t-21.5 -72t-6.5 -95.5q0 -107 28.5 -168t96.5 -61z" />
    <glyph glyph-name="one.lf" horiz-adv-x="395" 
d="M312 0h-127v513l-130 -74l-47 97l211 120h93v-656z" />
    <glyph glyph-name="two.lf" horiz-adv-x="519" 
d="M35 511q9 27 25 55t41.5 51.5t61 38t82.5 14.5q53 0 94 -16t68.5 -43.5t42 -64.5t14.5 -80q0 -49 -15 -88.5t-39 -72t-54 -59t-59 -49.5t-55 -45t-42 -44h273v-108h-430v92q18 40 47 73.5t61 63t64.5 56.5t58.5 54.5t42.5 56.5t16.5 63q0 21 -4.5 38.5t-15.5 31t-29 21
t-45 7.5q-38 0 -62 -23t-37 -65z" />
    <glyph glyph-name="three.lf" horiz-adv-x="527" 
d="M237 -14q-45 0 -79.5 10.5t-60 27t-44 37t-31.5 40.5l85 81q10 -15 21.5 -29.5t26.5 -26.5t35 -19.5t47 -7.5q52 0 84.5 25t32.5 73q0 44 -30.5 67.5t-91.5 23.5h-53v106h53q48 0 69 25t21 59q0 39 -23 59t-59 20q-48 0 -75 -19.5t-43 -47.5l-75 76q30 42 79.5 73
t113.5 31q103 0 158 -49t55 -134q0 -41 -22.5 -77t-62.5 -59q57 -20 87 -63t30 -101q0 -47 -19.5 -84t-53 -63t-78.5 -40t-97 -14z" />
    <glyph glyph-name="four.lf" horiz-adv-x="581" 
d="M549 269v-108h-97v-161h-127v161h-303v89l263 406h167v-387h97zM325 427q0 38 2 70t5 47h-4q-4 -16 -18.5 -43.5t-34.5 -59.5l-111 -172h161v158z" />
    <glyph glyph-name="five.lf" horiz-adv-x="530" 
d="M454 548h-244l-11 -111q17 5 34.5 8.5t37.5 3.5q43 0 82.5 -15t70 -44t48.5 -72t18 -99q0 -49 -18.5 -91.5t-51.5 -74t-79 -49.5t-102 -18q-45 0 -79.5 10.5t-60.5 27t-45 37t-32 40.5l85 81q10 -15 22 -29.5t27.5 -26.5t36 -19.5t47.5 -7.5q25 0 46.5 8.5t37.5 24.5
t25.5 38t9.5 49q0 55 -32.5 86.5t-81.5 31.5q-32 0 -52.5 -10.5t-39.5 -27.5l-81 25l27 332h355v-108z" />
    <glyph glyph-name="six.lf" horiz-adv-x="581" 
d="M444 487q-20 31 -51.5 50.5t-73.5 19.5q-56 0 -96 -45t-47 -141q26 32 62.5 51.5t87.5 19.5q42 0 79.5 -16t66 -45.5t45.5 -71t17 -92.5t-18.5 -93t-50.5 -73t-74.5 -48t-91.5 -17q-63 0 -110 24.5t-79 68t-48 103t-16 130.5q0 84 19 150.5t54.5 112.5t86 70.5
t113.5 24.5q75 0 128.5 -32t82.5 -77zM193 215q0 -50 27 -83t78 -33t78 33t27 83t-27 83t-78 33t-78 -33t-27 -83z" />
    <glyph glyph-name="seven.lf" horiz-adv-x="478" 
d="M455 656v-88l-235 -568h-139v3l232 545h-287v108h429z" />
    <glyph glyph-name="eight.lf" horiz-adv-x="580" 
d="M290 -14q-62 0 -108.5 15t-77.5 42t-46 63.5t-15 78.5q0 59 30.5 105.5t84.5 63.5q-42 22 -62.5 57.5t-20.5 81.5q0 36 13.5 68t40 56t67 38.5t94.5 14.5t94.5 -14.5t67 -38.5t40 -56t13.5 -68q0 -46 -21 -81.5t-63 -57.5q54 -17 85 -63.5t31 -105.5q0 -42 -15.5 -78.5
t-46 -63.5t-77 -42t-108.5 -15zM290 96q60 0 87.5 29.5t27.5 71.5t-27.5 71.5t-87.5 29.5t-87.5 -29.5t-27.5 -71.5t27.5 -71.5t87.5 -29.5zM290 405q38 0 61 21.5t23 57.5t-23 57.5t-61 21.5t-61 -21.5t-23 -57.5t23 -57.5t61 -21.5z" />
    <glyph glyph-name="nine.lf" horiz-adv-x="581" 
d="M137 169q20 -31 51.5 -50.5t73.5 -19.5q56 0 96 45t47 141q-26 -32 -62.5 -51.5t-87.5 -19.5q-42 0 -80 16t-66.5 45.5t-45 71t-16.5 92.5t18.5 93t50.5 73t74.5 48t91.5 17q63 0 110 -24.5t79 -68t48 -103t16 -130.5q0 -84 -19 -150.5t-54.5 -112.5t-86 -70.5
t-113.5 -24.5q-75 0 -128.5 32t-82.5 77zM388 441q0 50 -27 83t-78 33t-78 -33t-27 -83t27 -83t78 -33t78 33t27 83z" />
    <glyph glyph-name="colon" unicode=":" horiz-adv-x="270" 
d="M59 513h152v-150h-152v150zM59 150h152v-150h-152v150z" />
    <glyph glyph-name="semicolon" unicode=";" horiz-adv-x="271" 
d="M66 -153l62 153h-69v149h152v-133l-71 -169h-74zM60 513h152v-150h-152v150z" />
    <glyph glyph-name="less" unicode="&#x3c;" 
d="M488 543v-113l-208 -88q-35 -15 -66.5 -26.5t-45.5 -11.5v-4q14 0 45.5 -11.5t66.5 -26.5l208 -88v-113l-441 189v104z" />
    <glyph glyph-name="equal" unicode="=" 
d="M59 129v110h441v-110h-441zM59 366v110h441v-110h-441z" />
    <glyph glyph-name="greater" unicode="&#x3e;" 
d="M72 61v113l208 88q35 15 66.5 26.5t45.5 11.5v4q-14 0 -45.5 11.5t-66.5 26.5l-208 88v113l441 -189v-104z" />
    <glyph glyph-name="question" unicode="?" horiz-adv-x="452" 
d="M220 694q45 0 81.5 -13.5t62.5 -37.5t40 -56.5t14 -69.5q0 -30 -8 -55t-20.5 -46t-29 -38t-33.5 -30l-39 -34q-11 -11 -18.5 -20t-11.5 -18t-5.5 -19.5t-1.5 -25.5h-114q-18 39 -2.5 82t53.5 76l40 34q23 19 38 39.5t15 46.5q0 30 -18.5 49.5t-51.5 19.5q-32 0 -53.5 -20
t-29.5 -56l-103 43q9 29 24.5 56t39.5 47.5t56.5 33t74.5 12.5zM118 151h156v-151h-156v151z" />
    <glyph glyph-name="at" unicode="@" horiz-adv-x="904" 
d="M454 718q90 0 164.5 -29.5t128 -82t83 -126.5t29.5 -162q0 -75 -17.5 -128.5t-45 -88t-61.5 -50.5t-67 -16q-51 0 -82 19t-45 51q-19 -29 -52 -49t-79 -20q-38 0 -70.5 15.5t-56.5 44.5t-37.5 70.5t-13.5 93.5t13.5 93.5t37 71t56 45t70.5 15.5q35 0 64 -17.5t44 -43.5
v54h121v-279q0 -27 7.5 -42t27.5 -15q13 0 26 8.5t23.5 29t17 53t6.5 80.5q0 70 -20 127t-58 97.5t-92 62.5t-122 22t-123.5 -25t-94.5 -71.5t-60.5 -113t-21.5 -148.5t21.5 -146t60.5 -108.5t94.5 -67.5t123.5 -23q39 0 77 10.5t68 27.5l43 -87q-42 -23 -89 -35t-99 -12
q-89 0 -164.5 30.5t-131 87.5t-86.5 138.5t-31 184.5t30.5 186.5t85 143t130.5 92t167 32.5zM444 142q22 0 41 15.5t30 43.5v119q-11 28 -30 43.5t-41 15.5q-36 0 -59 -30.5t-23 -87.5t23 -88t59 -31z" />
    <glyph glyph-name="A" unicode="A" horiz-adv-x="637" 
d="M238 680h161l237 -680h-143l-48 146h-254l-47 -146h-143zM227 256h182l-64 197q-12 34 -18.5 64.5t-6.5 43.5h-4q0 -13 -6.5 -43.5t-17.5 -64.5z" />
    <glyph glyph-name="B" unicode="B" horiz-adv-x="633" 
d="M83 680h254q48 0 87 -13.5t66.5 -38t42.5 -57.5t15 -72q0 -45 -21.5 -80.5t-60.5 -58.5q58 -21 94 -62.5t36 -103.5q0 -91 -60 -142.5t-172 -51.5h-281v680zM351 106q55 0 80 26t25 68t-25 68t-80 26h-133v-188h133zM308 400q55 0 77.5 24.5t22.5 62.5t-22.5 62.5
t-77.5 24.5h-90v-174h90z" />
    <glyph glyph-name="C" unicode="C" horiz-adv-x="660" 
d="M43 340q0 78 23 143t64.5 112t100 73t130.5 26q88 0 160.5 -42.5t113.5 -138.5l-115 -50q-18 55 -60 85t-99 30q-45 0 -78.5 -17.5t-55.5 -49t-33 -75.5t-11 -96t11 -96t33 -75.5t55.5 -49t78.5 -17.5q57 0 99 30t60 85l115 -50q-41 -96 -113.5 -138.5t-160.5 -42.5
q-72 0 -130.5 26t-100 73t-64.5 112t-23 143z" />
    <glyph glyph-name="D" unicode="D" horiz-adv-x="692" 
d="M83 680h236q78 0 139.5 -23t103.5 -67t64 -107t22 -143t-22 -143t-64 -107t-103.5 -67t-139.5 -23h-236v680zM218 570v-460h95q100 0 147.5 60.5t47.5 169.5t-47.5 169.5t-147.5 60.5h-95z" />
    <glyph glyph-name="E" unicode="E" horiz-adv-x="573" 
d="M526 0h-443v680h443v-110h-308v-171h260v-110h-260v-179h308v-110z" />
    <glyph glyph-name="F" unicode="F" horiz-adv-x="549" 
d="M83 0v680h433v-110h-298v-178h260v-110h-260v-282h-135z" />
    <glyph glyph-name="G" unicode="G" horiz-adv-x="694" 
d="M43 340q0 76 22.5 140.5t64.5 112t101 74.5t132 27q102 0 169 -41t109 -110l-103 -70q-27 48 -67 76.5t-106 28.5q-48 0 -82.5 -18t-56.5 -50t-32.5 -75.5t-10.5 -94.5t10.5 -94.5t33 -75.5t57.5 -50t84 -18q48 0 80 12t58 32v117h-130v110h265v-285q-23 -21 -53.5 -39.5
t-66 -32.5t-76 -22t-82.5 -8q-73 0 -132 27t-101 74.5t-64.5 112t-22.5 140.5z" />
    <glyph glyph-name="H" unicode="H" horiz-adv-x="718" 
d="M83 0v680h135v-281h282v281h135v-680h-135v289h-282v-289h-135z" />
    <glyph glyph-name="I" unicode="I" horiz-adv-x="301" 
d="M83 0v680h135v-680h-135z" />
    <glyph glyph-name="J" unicode="J" horiz-adv-x="523" 
d="M107 187q21 -40 45.5 -62.5t59.5 -22.5q29 0 48.5 9.5t31 27.5t16 44t4.5 59v438h135v-442q0 -55 -13.5 -101t-41.5 -79.5t-71.5 -52.5t-103.5 -19q-41 0 -73.5 10t-58.5 28t-45.5 42t-33.5 52z" />
    <glyph glyph-name="K" unicode="K" horiz-adv-x="625" 
d="M469 0l-173 296l-78 -97v-199h-135v680h135v-301l228 301h161v-3l-228 -279l245 -395v-3h-155z" />
    <glyph glyph-name="L" unicode="L" horiz-adv-x="527" 
d="M507 0h-424v680h135v-570h289v-110z" />
    <glyph glyph-name="M" unicode="M" horiz-adv-x="882" 
d="M415 254q11 -32 17.5 -60.5t6.5 -40.5h4q0 12 6.5 40.5t17.5 60.5l149 426h183v-680h-135v339q0 53 1 91t3 65h-4q-1 -8 -4.5 -23t-8.5 -35t-12 -43.5t-16 -47.5l-121 -346h-122l-121 346q-9 24 -16 48.5t-12.5 44.5t-8.5 35t-4 21h-4q2 -27 3 -65t1 -91v-339h-135v680
h183z" />
    <glyph glyph-name="N" unicode="N" horiz-adv-x="735" 
d="M83 680h121l265 -380q21 -30 35 -58t17 -40h4q-4 17 -6 48t-2 66v364h135v-680h-120l-266 380q-21 30 -35 58t-17 40h-4q3 -14 5.5 -46.5t2.5 -67.5v-364h-135v680z" />
    <glyph glyph-name="O" unicode="O" horiz-adv-x="720" 
d="M360 694q72 0 130.5 -26t100 -73t64 -112t22.5 -143t-22.5 -143t-64 -112t-100 -73t-130.5 -26t-130.5 26t-100 73t-64 112t-22.5 143t22.5 143t64 112t100 73t130.5 26zM360 578q-45 0 -78 -17.5t-55 -49t-33 -75.5t-11 -96t11 -96t33 -75.5t55 -49t78 -17.5t78 17.5
t55 49t33 75.5t11 96t-11 96t-33 75.5t-55 49t-78 17.5z" />
    <glyph glyph-name="P" unicode="P" horiz-adv-x="584" 
d="M556 468q0 -53 -17.5 -92.5t-48.5 -65.5t-74 -39.5t-93 -13.5h-105v-257h-135v680h240q50 0 93 -13.5t74 -40t48.5 -66.5t17.5 -92zM416 468q0 55 -29.5 78.5t-76.5 23.5h-92v-203h92q47 0 76.5 23t29.5 78z" />
    <glyph glyph-name="Q" unicode="Q" horiz-adv-x="720" 
d="M581 -152l-116 154q-24 -8 -50 -12t-55 -4q-72 0 -130.5 26t-100 73t-64 112t-22.5 143t22.5 143t64 112t100 73t130.5 26t130.5 -26t100 -73t64 -112t22.5 -143q0 -86 -27 -155.5t-77 -117.5l111 -139zM183 340q0 -52 11 -96t33 -75.5t55 -49t78 -17.5t78 17.5t55 49
t33 75.5t11 96t-11 96t-33 75.5t-55 49t-78 17.5t-78 -17.5t-55 -49t-33 -75.5t-11 -96z" />
    <glyph glyph-name="R" unicode="R" horiz-adv-x="636" 
d="M291 277h-73v-277h-135v680h269q47 0 87 -14.5t69.5 -40.5t46 -63.5t16.5 -83.5q0 -72 -38 -121t-101 -69l209 -285v-3h-160zM334 387q48 0 72.5 23.5t24.5 67.5t-24.5 68t-72.5 24h-116v-183h116z" />
    <glyph glyph-name="S" unicode="S" horiz-adv-x="566" 
d="M282 -14q-51 0 -92 13t-73 34.5t-57 49.5t-43 58l93 71q13 -24 30 -44.5t38 -36t47.5 -24.5t59.5 -9q51 0 78.5 27t27.5 63q0 35 -23 60t-80 41l-51 14q-37 10 -68.5 26.5t-54.5 40.5t-36 56.5t-13 74.5q0 40 14.5 75t43 61.5t71 41.5t97.5 15q70 0 124 -31.5t89 -84.5
l-94 -70q-48 74 -123 74q-40 0 -61 -22.5t-21 -51.5q0 -32 17.5 -49.5t61.5 -29.5l51 -14q40 -11 76 -29t62.5 -44.5t42 -62.5t15.5 -82t-18.5 -85t-51.5 -67t-79 -43.5t-100 -15.5z" />
    <glyph glyph-name="T" unicode="T" horiz-adv-x="545" 
d="M205 571h-185v109h505v-109h-185v-571h-135v571z" />
    <glyph glyph-name="U" unicode="U" horiz-adv-x="686" 
d="M343 -14q-67 0 -117 20t-83.5 56t-50 85t-16.5 107v426h135v-418q0 -36 7 -65.5t22.5 -50.5t41 -32.5t61.5 -11.5t61.5 11.5t41 32.5t22.5 50.5t7 65.5v418h135v-426q0 -58 -16.5 -107t-50 -85t-83.5 -56t-117 -20z" />
    <glyph glyph-name="V" unicode="V" horiz-adv-x="634" 
d="M2 680h140l148 -459q11 -35 18 -65t7 -43h4q0 13 7 43t18 65l148 459h140l-234 -680h-162z" />
    <glyph glyph-name="W" unicode="W" horiz-adv-x="937" 
d="M7 680h138l96 -409q9 -40 15.5 -76t6.5 -48h4q0 12 7 47.5t17 76.5l107 409h141l107 -409q10 -41 17 -76.5t7 -47.5h4q0 12 6.5 48t15.5 76l96 409h138l-177 -680h-151l-108 423q-10 40 -16.5 75t-6.5 47h-4q-1 -12 -7.5 -47t-16.5 -75l-108 -423h-151z" />
    <glyph glyph-name="X" unicode="X" horiz-adv-x="622" 
d="M0 3l226 355l-200 319v3h148l137 -232l137 232h148v-3l-201 -319l227 -355v-3h-149l-162 264l-162 -264h-149v3z" />
    <glyph glyph-name="Y" unicode="Y" horiz-adv-x="597" 
d="M231 0v293l-230 384v3h152l145 -263l146 263h152v-3l-230 -383v-294h-135z" />
    <glyph glyph-name="Z" unicode="Z" horiz-adv-x="553" 
d="M35 0v94l304 476h-290v110h460v-94l-307 -476h312v-110h-479z" />
    <glyph glyph-name="bracketleft" unicode="[" horiz-adv-x="333" 
d="M301 680v-94h-106v-658h106v-94h-223v846h223z" />
    <glyph glyph-name="backslash" unicode="\" horiz-adv-x="447" 
d="M22 680h129l274 -680h-129z" />
    <glyph glyph-name="bracketright" unicode="]" horiz-adv-x="333" 
d="M255 680v-846h-223v94h106v658h-106v94h223z" />
    <glyph glyph-name="asciicircum" unicode="^" 
d="M330 680l174 -306l-118 -2l-62 111q-17 30 -29.5 56.5t-12.5 40.5h-4q0 -14 -12.5 -40.5t-29.5 -56.5l-62 -111l-118 2l174 306h100z" />
    <glyph glyph-name="underscore" unicode="_" horiz-adv-x="455" 
d="M0 -143v102h455v-102h-455z" />
    <glyph glyph-name="grave" unicode="`" horiz-adv-x="674" 
d="M192 734v3h138l90 -151v-3h-105z" />
    <glyph glyph-name="a" unicode="a" horiz-adv-x="541" 
d="M219 -14q-44 0 -78.5 12t-58.5 34t-37 52.5t-13 67.5t13 67.5t37 52.5t58.5 34t78.5 12q74 0 128 -43v32q0 46 -24 78.5t-78 32.5q-43 0 -72 -17t-44 -36l-68 83q23 30 71.5 54.5t115.5 24.5q57 0 100 -15.5t72 -43.5t44 -66t15 -84v-318h-124v36q-55 -50 -136 -50z
M250 80q33 0 58 13.5t39 33.5v50q-14 20 -39 33.5t-58 13.5q-46 0 -65.5 -22t-19.5 -50t19.5 -50t65.5 -22z" />
    <glyph glyph-name="b" unicode="b" horiz-adv-x="606" 
d="M195 0h-127v710h132v-250q25 31 60 49.5t78 18.5q49 0 91 -18.5t72.5 -53.5t48 -85t17.5 -114t-17.5 -114t-48 -85t-72.5 -53.5t-91 -18.5q-45 0 -81.5 20.5t-61.5 54.5v-61zM309 95q26 0 49 9.5t39.5 29.5t26 50.5t9.5 72.5t-9.5 72.5t-26 50.5t-39.5 29.5t-49 9.5
q-33 0 -63 -20.5t-46 -57.5v-168q16 -37 46 -57.5t63 -20.5z" />
    <glyph glyph-name="c" unicode="c" horiz-adv-x="526" 
d="M39 257q0 62 17.5 112t50 85.5t79 54.5t105.5 19q33 0 64 -8.5t58.5 -26t49 -44t34.5 -62.5l-100 -47q-14 35 -41 57t-65 22q-30 0 -52 -12t-37 -33.5t-22 -51.5t-7 -65t7 -65t22 -51.5t37 -33.5t52 -12q38 0 65 22t41 57l100 -47q-13 -36 -34.5 -62.5t-49 -44t-58.5 -26
t-64 -8.5q-59 0 -105.5 19t-79 54.5t-50 85.5t-17.5 112z" />
    <glyph glyph-name="d" unicode="d" horiz-adv-x="606" 
d="M411 61q-25 -34 -61.5 -54.5t-81.5 -20.5q-49 0 -91 18.5t-72.5 53.5t-48 85t-17.5 114t17.5 114t48 85t72.5 53.5t91 18.5q43 0 78 -18.5t60 -49.5v250h132v-710h-127v61zM297 95q33 0 63 20.5t46 57.5v168q-16 37 -46 57.5t-63 20.5q-53 0 -88.5 -39t-35.5 -123
t35.5 -123t88.5 -39z" />
    <glyph glyph-name="e" unicode="e" horiz-adv-x="555" 
d="M290 -14q-56 0 -102 19t-79.5 54t-52 84.5t-18.5 111.5q0 65 20 115.5t54.5 85.5t79 53t94.5 18q51 0 94.5 -19t74.5 -52.5t48.5 -80t17.5 -101.5q0 -12 -1 -27t-3 -26h-349q8 -57 40 -92.5t92 -35.5q45 0 75.5 19t51.5 53l82 -68q-44 -58 -97 -84.5t-122 -26.5zM286 424
q-47 0 -76.5 -28t-39.5 -85h224q-6 58 -34.5 85.5t-73.5 27.5z" />
    <glyph glyph-name="f" unicode="f" horiz-adv-x="353" 
d="M106 415h-82v98h82v35q0 37 10 69t31 55t52.5 36.5t73.5 13.5q17 0 31.5 -1t30.5 -3v-104h-21q-42 0 -59 -15.5t-17 -52.5v-33h97v-98h-97v-415h-132v415z" />
    <glyph glyph-name="g" unicode="g" horiz-adv-x="590" 
d="M253 35q-46 0 -85 17t-67.5 48.5t-45 77t-16.5 103.5t16.5 103.5t45 77t67.5 48.5t85 17q45 0 81.5 -20.5t61.5 -54.5v61h127v-449q0 -64 -21.5 -111t-56.5 -78t-81 -46.5t-95 -15.5q-45 0 -80 9.5t-62 26t-46 39t-31 47.5l90 59q22 -35 49.5 -55.5t75.5 -20.5
q22 0 44.5 7.5t40.5 24t29.5 42.5t11.5 63v47q-25 -30 -60 -48.5t-78 -18.5zM282 144q33 0 63 19.5t46 55.5v123q-16 36 -46 56t-63 20q-47 0 -79.5 -33.5t-32.5 -103.5q0 -71 32.5 -104t79.5 -33z" />
    <glyph glyph-name="h" unicode="h" horiz-adv-x="589" 
d="M68 710h132v-247q24 28 59 46t83 18t83 -15t57.5 -41.5t33 -64t10.5 -82.5v-324h-132v307q0 55 -26 83t-68 28q-36 0 -61 -21.5t-39 -53.5v-343h-132v710z" />
    <glyph glyph-name="i" unicode="i" horiz-adv-x="268" 
d="M68 513h132v-513h-132v513zM62 723h144v-126h-144v126z" />
    <glyph glyph-name="j" unicode="j" horiz-adv-x="267" 
d="M200 42q0 -45 -10 -81t-27.5 -64.5t-40.5 -50t-50 -37.5l-78 85q16 15 30 30t23.5 33t15 40.5t5.5 51.5v464h132v-471zM62 723h144v-126h-144v126z" />
    <glyph glyph-name="k" unicode="k" horiz-adv-x="531" 
d="M384 0l-127 205l-57 -68v-137h-132v710h132v-399l164 202h150v-4l-176 -208l197 -298v-3h-151z" />
    <glyph glyph-name="l" unicode="l" horiz-adv-x="268" 
d="M68 710h132v-710h-132v710z" />
    <glyph glyph-name="m" unicode="m" horiz-adv-x="895" 
d="M68 513h127v-56q23 30 59 50t86 20q58 0 95.5 -22.5t57.5 -61.5q23 35 61.5 59.5t94.5 24.5q48 0 82.5 -14t57 -39.5t33 -61.5t10.5 -79v-333h-132v317q0 50 -24.5 75.5t-61.5 25.5q-35 0 -60 -21.5t-38 -52.5v-344h-132v317q0 50 -24.5 75.5t-61.5 25.5q-35 0 -60 -21.5
t-38 -52.5v-344h-132v513z" />
    <glyph glyph-name="n" unicode="n" horiz-adv-x="589" 
d="M68 513h127v-56q24 30 60.5 50t86.5 20q48 0 83 -15t57.5 -41.5t33 -64t10.5 -82.5v-324h-132v307q0 55 -26 83t-68 28q-36 0 -61 -21.5t-39 -53.5v-343h-132v513z" />
    <glyph glyph-name="o" unicode="o" horiz-adv-x="586" 
d="M293 95q31 0 53.5 12t37.5 34t22.5 51.5t7.5 64.5t-7.5 64.5t-22.5 51t-37.5 33.5t-53.5 12t-53.5 -12t-37.5 -33.5t-22.5 -51t-7.5 -64.5t7.5 -64.5t22.5 -51.5t37.5 -34t53.5 -12zM293 527q58 0 105.5 -20t80.5 -56t51 -85.5t18 -108.5t-18 -109t-51 -86t-80.5 -56
t-105.5 -20q-59 0 -106 20t-80 56t-51 86t-18 109t18 108.5t51 85.5t80 56t106 20z" />
    <glyph glyph-name="p" unicode="p" horiz-adv-x="606" 
d="M68 513h128v-59q25 33 61 53.5t81 20.5q49 0 91 -18.5t72.5 -53.5t48 -85t17.5 -114t-17.5 -114t-48 -85t-72.5 -53.5t-91 -18.5q-43 0 -78 18t-60 49v-226h-132v686zM309 95q26 0 49 9.5t39.5 29.5t26 50.5t9.5 72.5t-9.5 72.5t-26 50.5t-39.5 29.5t-49 9.5
q-34 0 -64 -20.5t-45 -57.5v-168q15 -37 45 -57.5t64 -20.5z" />
    <glyph glyph-name="q" unicode="q" horiz-adv-x="605" 
d="M538 -173h-132v226q-25 -31 -60 -49t-78 -18q-49 0 -91 18.5t-72.5 53.5t-48 85t-17.5 114t17.5 114t48 85t72.5 53.5t91 18.5q45 0 81 -20.5t61 -53.5v59h128v-686zM297 95q34 0 64 20.5t45 57.5v168q-15 37 -45 57.5t-64 20.5q-53 0 -88.5 -39t-35.5 -123t35.5 -123
t88.5 -39z" />
    <glyph glyph-name="r" unicode="r" horiz-adv-x="382" 
d="M68 0v513h126v-75q20 40 56 64.5t81 24.5q10 0 18 -0.5t16 -1.5v-124h-29q-44 0 -80.5 -17t-55.5 -64v-320h-132z" />
    <glyph glyph-name="s" unicode="s" horiz-adv-x="462" 
d="M327 373q-20 24 -40.5 37.5t-48.5 13.5q-23 0 -38.5 -14t-15.5 -34q0 -19 10.5 -31t37.5 -19l38 -9q81 -19 120.5 -57t39.5 -109q0 -34 -14.5 -64t-41 -52.5t-64.5 -35.5t-85 -13q-67 0 -118 28.5t-86 77.5l79 74q26 -41 58.5 -59t71.5 -18q31 0 51 14.5t20 39.5
t-16.5 38t-54.5 22l-39 9q-66 15 -101 53.5t-35 102.5q0 32 12 61t35.5 50.5t58 34.5t79.5 13q59 0 100.5 -24t67.5 -60z" />
    <glyph glyph-name="t" unicode="t" horiz-adv-x="375" 
d="M273 -6q-85 0 -128 44.5t-43 142.5v234h-84v98h88v131h128v-131h112v-98h-112v-230q0 -45 18.5 -63.5t61.5 -18.5h32v-103q-16 -2 -35.5 -4t-37.5 -2z" />
    <glyph glyph-name="u" unicode="u" horiz-adv-x="589" 
d="M521 0h-127v56q-24 -30 -60.5 -50t-86.5 -20q-48 0 -83 15t-57.5 41.5t-33 64t-10.5 82.5v324h132v-307q0 -55 26 -83t68 -28q35 0 60.5 21.5t39.5 53.5v343h132v-513z" />
    <glyph glyph-name="v" unicode="v" horiz-adv-x="533" 
d="M10 513h142l88 -269q11 -35 18 -65t7 -43h4q0 13 7 43t18 65l88 269h141l-189 -513h-134z" />
    <glyph glyph-name="w" unicode="w" horiz-adv-x="814" 
d="M10 513h141l63 -254q9 -39 15.5 -73.5t6.5 -46.5h4q0 12 7 46.5t18 72.5l72 255h140l72 -255q11 -38 18 -72.5t7 -46.5h4q0 12 6.5 46.5t15.5 73.5l63 254h141l-153 -513h-136l-82 281q-10 37 -17 69.5t-7 44.5h-4q0 -12 -7 -44.5t-17 -69.5l-82 -281h-136z" />
    <glyph glyph-name="x" unicode="x" horiz-adv-x="528" 
d="M170 513l94 -167l94 167h146v-4l-150 -246l166 -260v-3h-148l-108 183l-108 -183h-148v3l166 260l-150 246v4h146z" />
    <glyph glyph-name="y" unicode="y" horiz-adv-x="521" 
d="M197 65l-187 448h142l85 -234q11 -33 19 -62t8 -42h4q2 23 8 47t17 57l79 234h143l-274 -686h-143z" />
    <glyph glyph-name="z" unicode="z" horiz-adv-x="471" 
d="M432 513v-87l-239 -328h243v-98h-406v87l241 328h-226v98h387z" />
    <glyph glyph-name="braceleft" unicode="{" horiz-adv-x="356" 
d="M63 304q23 0 37 14t14 37v171q0 78 42.5 117.5t117.5 39.5q8 0 23.5 -0.5t23.5 -2.5v-93h-24q-30 0 -48 -15.5t-18 -60.5v-153q0 -86 -68 -101q68 -15 68 -101v-153q0 -45 18 -60.5t48 -15.5h24v-93q-8 -2 -23.5 -2.5t-23.5 -0.5q-75 0 -117.5 39.5t-42.5 117.5v171
q0 23 -14 37t-37 14h-46v94h46z" />
    <glyph glyph-name="bar" unicode="|" horiz-adv-x="272" 
d="M194 -166h-116v876h116v-876z" />
    <glyph glyph-name="braceright" unicode="}" horiz-adv-x="356" 
d="M293 210q-23 0 -37 -14t-14 -37v-171q0 -78 -42.5 -117.5t-117.5 -39.5q-8 0 -23.5 0.5t-23.5 2.5v93h24q30 0 48 15.5t18 60.5v153q0 86 68 101q-68 15 -68 101v153q0 45 -18 60.5t-48 15.5h-24v93q8 2 23.5 2.5t23.5 0.5q75 0 117.5 -39.5t42.5 -117.5v-171
q0 -23 14 -37t37 -14h46v-94h-46z" />
    <glyph glyph-name="asciitilde" unicode="~" 
d="M60 228v113q26 19 54.5 30t58.5 11t58 -7.5t54.5 -16t51.5 -16t48 -7.5q27 0 55.5 11t57.5 31h3v-112q-25 -20 -54 -31.5t-59 -11.5q-29 0 -57 7.5t-54.5 16.5t-52 16.5t-47.5 7.5q-55 0 -114 -42h-3z" />
    <glyph glyph-name="uni00A0" unicode="&#xa0;" horiz-adv-x="210" 
 />
    <glyph glyph-name="exclamdown" unicode="&#xa1;" horiz-adv-x="276" 
d="M180.006 282.014l35.998 -448.973h-155.99l35.998 448.973h83.9941zM216.004 362.009h-155.99v150.991h155.99v-150.991z" />
    <glyph glyph-name="cent" unicode="&#xa2;" 
d="M57 330q0 106 51 173.5t142 83.5v69h103v-71q51 -11 93.5 -44.5t64.5 -90.5l-100 -47q-11 26 -28.5 45.5t-41.5 28.5v-294q24 9 41.5 28.5t28.5 45.5l100 -47q-22 -58 -64.5 -91.5t-93.5 -44.5v-74h-103v73q-91 16 -142 83.5t-51 173.5zM187 330q0 -55 18.5 -94.5
t57.5 -53.5v295q-39 -14 -57.5 -53.5t-18.5 -93.5z" />
    <glyph glyph-name="sterling" unicode="&#xa3;" 
d="M422 265h-137q1 -7 1.5 -14t0.5 -14q0 -46 -16.5 -76t-36.5 -53h251v-108h-393v93q15 17 27.5 32t21.5 31.5t14 36t5 45.5q0 5 -0.5 11t-1.5 12h-89v105h55q-8 23 -13.5 48.5t-5.5 55.5q0 43 13.5 79.5t40 63.5t65.5 42t89 15q62 0 114.5 -34.5t76.5 -100.5l-102 -55
q-14 42 -37 59.5t-52 17.5q-43 0 -62 -24.5t-19 -66.5q0 -26 6.5 -49.5t14.5 -46.5h169v-105z" />
    <glyph glyph-name="currency" unicode="&#xa4;" 
d="M374 125q-42 -22 -94 -22t-94 22l-60 -66l-76 70l63 69q-25 45 -25 104q0 57 25 104l-63 69l76 70l60 -67q41 23 94 23t94 -23l60 67l76 -70l-63 -69q25 -47 25 -104q0 -59 -25 -104l63 -69l-76 -70zM280 201q38 0 59 26.5t21 74.5t-21 74.5t-59 26.5t-59 -26.5
t-21 -74.5t21 -74.5t59 -26.5z" />
    <glyph glyph-name="yen" unicode="&#xa5;" 
d="M25 656h143l112 -225l113 225h143v-3l-178 -314h112v-85h-126v-59h126v-85h-126v-110h-127v110h-126v85h126v59h-126v85h111l-177 314v3z" />
    <glyph glyph-name="brokenbar" unicode="&#xa6;" horiz-adv-x="270" 
d="M193 348h-116v362h116v-362zM193 -166h-116v363h116v-363z" />
    <glyph glyph-name="section" unicode="&#xa7;" horiz-adv-x="537" 
d="M51 276q0 76 57 127q-17 19 -26 44.5t-9 61.5q0 33 13.5 62.5t38.5 51t61 34t81 12.5q69 0 123.5 -27t85.5 -72l-82 -70q-25 34 -55 50t-65 16q-38 0 -59.5 -15t-21.5 -43q0 -25 20.5 -41t66.5 -31l51 -17q37 -12 67 -27t51.5 -35t33.5 -45.5t12 -59.5q0 -77 -59 -128
q20 -18 30 -42t10 -58q0 -38 -16 -69.5t-44.5 -54t-68.5 -35t-87 -12.5q-45 0 -80 11t-61.5 29t-46 40.5t-33.5 44.5l78 66q20 -34 55.5 -61t91.5 -27q41 0 66.5 14.5t25.5 43.5q0 31 -34 48.5t-83 34.5l-49 17q-139 47 -139 162zM341 178q34 25 34 63q0 28 -21 44t-73 34
l-49 17l-33 12q-28 -25 -28 -61q0 -30 20 -46.5t59 -30.5l50 -17z" />
    <glyph glyph-name="dieresis" unicode="&#xa8;" horiz-adv-x="605" 
d="M132 723h133v-125h-133v125zM343 723h132v-125h-132v125z" />
    <glyph glyph-name="copyright" unicode="&#xa9;" horiz-adv-x="753" 
d="M377 4q-71 0 -132 25.5t-106 70.5t-70.5 106.5t-25.5 132.5t25.5 132t70.5 106t106 71t132 26q70 0 131 -26t106 -71t71 -106t26 -132t-26 -132.5t-71 -106.5t-106 -70.5t-131 -25.5zM380 168q-42 0 -73.5 14.5t-53.5 38t-33 54.5t-11 64t11 64t33 54.5t53.5 38
t73.5 14.5q51 0 86 -21t59 -59l-67 -53q-13 18 -30 32.5t-43 14.5q-36 0 -55.5 -23.5t-19.5 -61.5t19.5 -61.5t55.5 -23.5q26 0 43 14.5t30 32.5l67 -53q-24 -38 -59 -59t-86 -21zM377 97q51 0 94.5 18.5t75 51t49.5 77t18 95.5t-18 95.5t-49.5 77t-75 51t-94.5 18.5
t-94.5 -18.5t-75 -51t-49.5 -77t-18 -95.5t18 -95.5t49.5 -77t75 -51t94.5 -18.5z" />
    <glyph glyph-name="ordfeminine" unicode="&#xaa;" horiz-adv-x="339" 
d="M131 384q-42 0 -65.5 22.5t-23.5 61.5t23.5 61.5t65.5 22.5q39 0 66 -22v16q0 20 -9.5 34t-35.5 14q-34 0 -53 -25l-42 53q16 20 41.5 30.5t55.5 10.5q63 0 95.5 -32.5t32.5 -83.5v-155h-80v19q-27 -27 -71 -27zM160 439q15 0 23.5 6t13.5 13v19q-5 7 -13 13.5t-24 6.5
q-17 0 -24.5 -8.5t-7.5 -20.5t7.5 -20.5t24.5 -8.5z" />
    <glyph glyph-name="guillemotleft" unicode="&#xab;" horiz-adv-x="588" 
d="M277 282v39l156 189h120v-3l-147 -205l147 -206v-3h-120zM35 282v39l156 189h120v-3l-147 -205l147 -206v-3h-120z" />
    <glyph glyph-name="logicalnot" unicode="&#xac;" 
d="M54 391h441v-248h-116v138h-325v110z" />
    <glyph glyph-name="uni00AD" unicode="&#xad;" horiz-adv-x="387" 
d="M59 250v106h269v-106h-269z" />
    <glyph glyph-name="registered" unicode="&#xae;" horiz-adv-x="496" 
d="M248 281q-45 0 -83.5 16t-66.5 43.5t-44 65.5t-16 82t16 81.5t44 65t66.5 43t83.5 15.5t83.5 -15.5t66.5 -43t44 -65t16 -81.5t-16 -82t-44 -65.5t-66.5 -43.5t-83.5 -16zM248 341q32 0 59 11t46.5 30.5t30 46.5t10.5 59t-10.5 59t-30 46.5t-46.5 30.5t-59 11t-59 -11
t-46.5 -30.5t-30 -46.5t-10.5 -59t10.5 -59t30 -46.5t46.5 -30.5t59 -11zM169 587h93q31 0 51 -17t20 -48q0 -21 -10.5 -35t-27.5 -21l53 -72v-3h-63l-46 69h-14v-69h-56v196zM256 505q9 0 15 4.5t6 12.5q0 9 -6 14t-15 5h-31v-36h31z" />
    <glyph glyph-name="macron" unicode="&#xaf;" horiz-adv-x="609" 
d="M442 705v-90h-324v90h324z" />
    <glyph glyph-name="degree" unicode="&#xb0;" horiz-adv-x="406" 
d="M131 504q0 -32 20 -53.5t52 -21.5t52 21.5t20 53.5t-20 53.5t-52 21.5t-52 -21.5t-20 -53.5zM369 504q0 -35 -12.5 -64.5t-34.5 -51t-52.5 -34t-66.5 -12.5t-66.5 12.5t-52.5 34t-34.5 51t-12.5 64.5q0 34 12.5 64t34.5 51.5t52.5 34t66.5 12.5t66.5 -12.5t52.5 -34
t34.5 -51.5t12.5 -64z" />
    <glyph glyph-name="plusminus" unicode="&#xb1;" 
d="M59 49v110h441v-110h-441zM500 367h-163v-142h-116v142h-162v110h162v154h116v-154h163v-110z" />
    <glyph glyph-name="acute" unicode="&#xb4;" horiz-adv-x="631" 
d="M218 583v3l90 151h138v-3l-123 -151h-105z" />
    <glyph glyph-name="paragraph" unicode="&#xb6;" horiz-adv-x="543" 
d="M313 -166h-88v487h-28q-76 0 -123.5 46t-47.5 134q0 87 47.5 133t123.5 46h116v-846zM455 -166h-88v846h88v-846z" />
    <glyph glyph-name="periodcentered" unicode="&#xb7;" horiz-adv-x="276" 
d="M60 380h156v-154h-156v154z" />
    <glyph glyph-name="cedilla" unicode="&#xb8;" horiz-adv-x="631" 
d="M303 13q44 -20 67.5 -48t23.5 -62q0 -40 -32 -65t-86 -25q-57 0 -89 24l31 65q20 -13 42 -13q20 0 27.5 9.5t7.5 21.5q0 25 -23 44t-66 36z" />
    <glyph glyph-name="ordmasculine" unicode="&#xba;" horiz-adv-x="350" 
d="M175 594q-29 0 -39 -21.5t-10 -49.5t10 -49.5t39 -21.5t39 21.5t10 49.5t-10 49.5t-39 21.5zM175 383q-63 0 -99.5 39.5t-36.5 100.5t36.5 100.5t99.5 39.5t99.5 -39.5t36.5 -100.5t-36.5 -100.5t-99.5 -39.5z" />
    <glyph glyph-name="guillemotright" unicode="&#xbb;" horiz-adv-x="588" 
d="M311 321v-39l-156 -189h-120v3l147 205l-147 206v3h120zM553 321v-39l-156 -189h-120v3l147 205l-147 206v3h120z" />
    <glyph glyph-name="onequarter" unicode="&#xbc;" horiz-adv-x="719" 
d="M230 0h-103l310 656h102zM688 148v-66h-55v-82h-97v82h-159v66l137 216h119v-216h55zM536 200q0 27 1.5 49t6.5 40h-4q-4 -14 -15 -34.5t-25 -43.5l-40 -63h76v52zM220 292h-96v260l-65 -38l-36 71l129 71h68v-364z" />
    <glyph glyph-name="onehalf" unicode="&#xbd;" horiz-adv-x="735" 
d="M241 0h-103l310 656h102zM434 272q5 16 15 34t25.5 32.5t36.5 24t49 9.5q32 0 57 -9.5t41.5 -25.5t25 -37t8.5 -44q0 -40 -15.5 -67.5t-36.5 -47t-43 -33.5t-34 -27h131v-81h-256v68q16 32 42 56.5t51 45.5t43.5 40t18.5 40q0 14 -7.5 25.5t-28.5 11.5q-20 0 -32 -14
t-19 -35zM221 292h-96v260l-65 -38l-36 71l129 71h68v-364z" />
    <glyph glyph-name="threequarters" unicode="&#xbe;" horiz-adv-x="773" 
d="M289 0h-103l310 656h102zM745 148v-66h-55v-82h-97v82h-159v66l137 216h119v-216h55zM593 200q0 27 1.5 49t6.5 40h-4q-4 -14 -15 -34.5t-25 -43.5l-40 -63h76v52zM163 284q-24 0 -45.5 5.5t-38.5 14.5t-30.5 19.5t-22.5 20.5l54 64q13 -14 33 -27t49 -13q23 0 35.5 10
t12.5 29q0 17 -13.5 26t-37.5 9h-39v70h39q15 0 23.5 9t8.5 24q0 16 -9 25.5t-26 9.5q-20 0 -34 -10t-22 -21l-56 59q19 22 46.5 39t71.5 17q64 0 97 -27t33 -75q0 -22 -11.5 -43t-33.5 -35q32 -10 47.5 -33.5t15.5 -54.5q0 -27 -11.5 -48t-31.5 -35t-47 -21.5t-57 -7.5z
" />
    <glyph glyph-name="questiondown" unicode="&#xbf;" horiz-adv-x="446" 
d="M228.014 -180.958q-44.9971 0 -81.4951 13.499q-36.498 13.5 -62.4961 37.498q-25.999 23.999 -39.998 56.4971t-13.999 69.4951q0 29.998 8 54.9971q7.99902 24.998 20.498 45.9971q12.5 20.999 28.999 37.998t33.4971 29.998l38.998 33.998
q10.999 10.999 18.499 19.998q7.49902 9 11.499 17.999q4 9 5.5 19.499t1.5 25.498h113.993q17.998 -38.9971 2.49902 -81.9941q-15.499 -42.998 -53.4961 -75.9961l-39.998 -33.998q-22.998 -18.998 -37.9971 -39.4971t-14.999 -46.4971q0 -29.998 18.498 -49.4971
q18.499 -19.499 51.4971 -19.499q31.998 0 53.4971 19.999q21.498 19.999 29.498 55.9961l102.994 -42.9971q-9 -28.998 -24.499 -55.9961q-15.499 -26.999 -39.4971 -47.498q-23.999 -20.498 -56.4971 -32.9971q-32.498 -12.5 -74.4951 -12.5zM330.007 362.009h-155.99
v150.991h155.99v-150.991z" />
    <glyph glyph-name="glyph126" horiz-adv-x="637" 
d="M238 680h161l237 -680h-143l-48 146h-254l-47 -146h-143zM227 256h182l-64 197q-12 34 -18.5 64.5t-6.5 43.5h-4q0 -13 -6.5 -43.5t-17.5 -64.5zM158 905v3h138l90 -151v-3h-105z" />
    <glyph glyph-name="glyph127" horiz-adv-x="637" 
d="M238 680h161l237 -680h-143l-48 146h-254l-47 -146h-143zM227 256h182l-64 197q-12 34 -18.5 64.5t-6.5 43.5h-4q0 -13 -6.5 -43.5t-17.5 -64.5zM253 754v3l90 151h138v-3l-123 -151h-105z" />
    <glyph glyph-name="glyph128" horiz-adv-x="637" 
d="M238 680h161l237 -680h-143l-48 146h-254l-47 -146h-143zM227 256h182l-64 197q-12 34 -18.5 64.5t-6.5 43.5h-4q0 -13 -6.5 -43.5t-17.5 -64.5zM375 908l121 -151v-3h-108l-70 70l-68 -70h-108v3l122 151h111z" />
    <glyph glyph-name="glyph129" horiz-adv-x="637" 
d="M238 680h161l237 -680h-143l-48 146h-254l-47 -146h-143zM227 256h182l-64 197q-12 34 -18.5 64.5t-6.5 43.5h-4q0 -13 -6.5 -43.5t-17.5 -64.5zM266 805q-15 0 -23.5 -14.5t-14.5 -37.5l-84 27q31 121 123 121q24 0 41.5 -8t31 -18t24 -18t21.5 -8q16 0 25 14.5t15 37.5
l83 -27q-29 -121 -123 -121q-24 0 -42 8t-31.5 18t-24.5 18t-21 8z" />
    <glyph glyph-name="Adieresis" unicode="&#xc4;" horiz-adv-x="637" 
d="M238 680h161l237 -680h-143l-48 146h-254l-47 -146h-143zM227 256h182l-64 197q-12 34 -18.5 64.5t-6.5 43.5h-4q0 -13 -6.5 -43.5t-17.5 -64.5zM147 894h133v-125h-133v125zM358 894h132v-125h-132v125z" />
    <glyph glyph-name="Aring" unicode="&#xc5;" horiz-adv-x="637" 
d="M238 680h161l237 -680h-143l-48 146h-254l-47 -146h-143zM227 256h182l-64 197q-12 34 -18.5 64.5t-6.5 43.5h-4q0 -13 -6.5 -43.5t-17.5 -64.5zM206 748q0 23 9 42.5t25 33.5t36.5 22t43.5 8t43.5 -8t36 -22t24.5 -33.5t9 -42.5t-9 -42.5t-24.5 -33.5t-36 -22t-43.5 -8
t-43.5 8t-36.5 22t-25 33.5t-9 42.5zM278 748q0 -18 11.5 -30t30.5 -12q18 0 29.5 12t11.5 30q0 19 -11.5 30.5t-29.5 11.5q-19 0 -30.5 -11.5t-11.5 -30.5z" />
    <glyph glyph-name="AE" unicode="&#xc6;" horiz-adv-x="885" 
d="M837 570h-290v-171h246v-110h-246v-179h290v-110h-425v137h-202l-70 -137h-150v3l362 677h485v-110zM412 396q0 54 1.5 91.5t4.5 66.5h-4q-4 -14 -22.5 -55t-42.5 -88l-84 -164h147v149z" />
    <glyph glyph-name="Ccedilla" unicode="&#xc7;" horiz-adv-x="660" 
d="M43 340q0 78 23 143t64.5 112t100 73t130.5 26q88 0 160.5 -42.5t113.5 -138.5l-115 -50q-18 55 -60 85t-99 30q-45 0 -78.5 -17.5t-55.5 -49t-33 -75.5t-11 -96t11 -96t33 -75.5t55.5 -49t78.5 -17.5q57 0 99 30t60 85l115 -50q-41 -96 -113.5 -138.5t-160.5 -42.5
q-72 0 -130.5 26t-100 73t-64.5 112t-23 143zM373 16q48 -20 74 -50.5t26 -67.5q0 -44 -36 -71t-96 -27q-32 0 -57.5 6.5t-42.5 19.5l35 73q12 -7 22 -10t24 -3q22 0 29.5 10t7.5 21q0 27 -25 47.5t-72 37.5z" />
    <glyph glyph-name="glyph134" horiz-adv-x="573" 
d="M526 0h-443v680h443v-110h-308v-171h260v-110h-260v-179h308v-110zM147 905v3h138l90 -151v-3h-105z" />
    <glyph glyph-name="glyph135" horiz-adv-x="573" 
d="M526 0h-443v680h443v-110h-308v-171h260v-110h-260v-179h308v-110zM242 754v3l90 151h138v-3l-123 -151h-105z" />
    <glyph glyph-name="glyph136" horiz-adv-x="573" 
d="M526 0h-443v680h443v-110h-308v-171h260v-110h-260v-179h308v-110zM365 908l121 -151v-3h-108l-70 70l-68 -70h-108v3l122 151h111z" />
    <glyph glyph-name="Edieresis" unicode="&#xcb;" horiz-adv-x="573" 
d="M526 0h-443v680h443v-110h-308v-171h260v-110h-260v-179h308v-110zM136 894h133v-125h-133v125zM347 894h132v-125h-132v125z" />
    <glyph glyph-name="glyph138" horiz-adv-x="301" 
d="M83 0v680h135v-680h-135zM-10 905v3h138l90 -151v-3h-105z" />
    <glyph glyph-name="glyph139" horiz-adv-x="301" 
d="M83 0v680h135v-680h-135zM86 754v3l90 151h138v-3l-123 -151h-105z" />
    <glyph glyph-name="Icircumflex" unicode="&#xce;" horiz-adv-x="301" 
d="M83 0v680h135v-680h-135zM208 908l121 -151v-3h-108l-70 70l-68 -70h-108v3l122 151h111z" />
    <glyph glyph-name="Idieresis" unicode="&#xcf;" horiz-adv-x="301" 
d="M83 0v680h135v-680h-135zM-20 894h133v-125h-133v125zM191 894h132v-125h-132v125z" />
    <glyph glyph-name="glyph142" horiz-adv-x="699" 
d="M326 680q78 0 139.5 -23t103.5 -67t64 -107t22 -143t-22 -143t-64 -107t-103.5 -67t-139.5 -23h-236v290h-69v106h69v284h236zM320 110q100 0 147.5 60.5t47.5 169.5t-47.5 169.5t-147.5 60.5h-95v-174h140v-106h-140v-180h95z" />
    <glyph glyph-name="Ntilde" unicode="&#xd1;" horiz-adv-x="735" 
d="M83 680h121l265 -380q21 -30 35 -58t17 -40h4q-4 17 -6 48t-2 66v364h135v-680h-120l-266 380q-21 30 -35 58t-17 40h-4q3 -14 5.5 -46.5t2.5 -67.5v-364h-135v680zM309 805q-15 0 -23.5 -14.5t-14.5 -37.5l-84 27q31 121 123 121q24 0 41.5 -8t31 -18t24 -18t21.5 -8
q16 0 25 14.5t15 37.5l83 -27q-29 -121 -123 -121q-24 0 -42 8t-31.5 18t-24.5 18t-21 8z" />
    <glyph glyph-name="glyph144" horiz-adv-x="720" 
d="M360 694q72 0 130.5 -26t100 -73t64 -112t22.5 -143t-22.5 -143t-64 -112t-100 -73t-130.5 -26t-130.5 26t-100 73t-64 112t-22.5 143t22.5 143t64 112t100 73t130.5 26zM360 578q-45 0 -78 -17.5t-55 -49t-33 -75.5t-11 -96t11 -96t33 -75.5t55 -49t78 -17.5t78 17.5
t55 49t33 75.5t11 96t-11 96t-33 75.5t-55 49t-78 17.5zM198 905v3h138l90 -151v-3h-105z" />
    <glyph glyph-name="glyph145" horiz-adv-x="720" 
d="M360 694q72 0 130.5 -26t100 -73t64 -112t22.5 -143t-22.5 -143t-64 -112t-100 -73t-130.5 -26t-130.5 26t-100 73t-64 112t-22.5 143t22.5 143t64 112t100 73t130.5 26zM360 578q-45 0 -78 -17.5t-55 -49t-33 -75.5t-11 -96t11 -96t33 -75.5t55 -49t78 -17.5t78 17.5
t55 49t33 75.5t11 96t-11 96t-33 75.5t-55 49t-78 17.5zM294 754v3l90 151h138v-3l-123 -151h-105z" />
    <glyph glyph-name="glyph146" horiz-adv-x="720" 
d="M360 694q72 0 130.5 -26t100 -73t64 -112t22.5 -143t-22.5 -143t-64 -112t-100 -73t-130.5 -26t-130.5 26t-100 73t-64 112t-22.5 143t22.5 143t64 112t100 73t130.5 26zM360 578q-45 0 -78 -17.5t-55 -49t-33 -75.5t-11 -96t11 -96t33 -75.5t55 -49t78 -17.5t78 17.5
t55 49t33 75.5t11 96t-11 96t-33 75.5t-55 49t-78 17.5zM416 908l121 -151v-3h-108l-70 70l-68 -70h-108v3l122 151h111z" />
    <glyph glyph-name="glyph147" horiz-adv-x="720" 
d="M360 694q72 0 130.5 -26t100 -73t64 -112t22.5 -143t-22.5 -143t-64 -112t-100 -73t-130.5 -26t-130.5 26t-100 73t-64 112t-22.5 143t22.5 143t64 112t100 73t130.5 26zM360 578q-45 0 -78 -17.5t-55 -49t-33 -75.5t-11 -96t11 -96t33 -75.5t55 -49t78 -17.5t78 17.5
t55 49t33 75.5t11 96t-11 96t-33 75.5t-55 49t-78 17.5zM307 805q-15 0 -23.5 -14.5t-14.5 -37.5l-84 27q31 121 123 121q24 0 41.5 -8t31 -18t24 -18t21.5 -8q16 0 25 14.5t15 37.5l83 -27q-29 -121 -123 -121q-24 0 -42 8t-31.5 18t-24.5 18t-21 8z" />
    <glyph glyph-name="Odieresis" unicode="&#xd6;" horiz-adv-x="720" 
d="M360 694q72 0 130.5 -26t100 -73t64 -112t22.5 -143t-22.5 -143t-64 -112t-100 -73t-130.5 -26t-130.5 26t-100 73t-64 112t-22.5 143t22.5 143t64 112t100 73t130.5 26zM360 578q-45 0 -78 -17.5t-55 -49t-33 -75.5t-11 -96t11 -96t33 -75.5t55 -49t78 -17.5t78 17.5
t55 49t33 75.5t11 96t-11 96t-33 75.5t-55 49t-78 17.5zM188 894h133v-125h-133v125zM399 894h132v-125h-132v125z" />
    <glyph glyph-name="multiply" unicode="&#xd7;" 
d="M144 521l136 -136l136 136l82 -82l-136 -136l136 -136l-82 -82l-136 136l-136 -136l-82 82l136 136l-136 136z" />
    <glyph glyph-name="Oslash" unicode="&#xd8;" horiz-adv-x="720" 
d="M580 606q47 -48 72 -115.5t25 -150.5q0 -78 -22.5 -143t-64 -112t-100 -73t-130.5 -26q-30 0 -58 5t-54 14l-19 -37h-145v3l54 105q-45 48 -70 115t-25 149q0 78 22.5 143t64 112t100 73t130.5 26q61 0 111 -19l19 37h144v-3zM360 578q-45 0 -78 -17.5t-55 -49t-33 -75.5
t-11 -96q0 -95 34 -156l201 385q-26 9 -58 9zM360 102q45 0 78 17.5t55 49t33 75.5t11 96q0 96 -36 158l-200 -386q24 -10 59 -10z" />
    <glyph glyph-name="glyph151" horiz-adv-x="686" 
d="M343 -14q-67 0 -117 20t-83.5 56t-50 85t-16.5 107v426h135v-418q0 -36 7 -65.5t22.5 -50.5t41 -32.5t61.5 -11.5t61.5 11.5t41 32.5t22.5 50.5t7 65.5v418h135v-426q0 -58 -16.5 -107t-50 -85t-83.5 -56t-117 -20zM182 905v3h138l90 -151v-3h-105z" />
    <glyph glyph-name="glyph152" horiz-adv-x="686" 
d="M343 -14q-67 0 -117 20t-83.5 56t-50 85t-16.5 107v426h135v-418q0 -36 7 -65.5t22.5 -50.5t41 -32.5t61.5 -11.5t61.5 11.5t41 32.5t22.5 50.5t7 65.5v418h135v-426q0 -58 -16.5 -107t-50 -85t-83.5 -56t-117 -20zM277 754v3l90 151h138v-3l-123 -151h-105z" />
    <glyph glyph-name="Ucircumflex" unicode="&#xdb;" horiz-adv-x="686" 
d="M343 -14q-67 0 -117 20t-83.5 56t-50 85t-16.5 107v426h135v-418q0 -36 7 -65.5t22.5 -50.5t41 -32.5t61.5 -11.5t61.5 11.5t41 32.5t22.5 50.5t7 65.5v418h135v-426q0 -58 -16.5 -107t-50 -85t-83.5 -56t-117 -20zM399 908l121 -151v-3h-108l-70 70l-68 -70h-108v3
l122 151h111z" />
    <glyph glyph-name="Udieresis" unicode="&#xdc;" horiz-adv-x="686" 
d="M343 -14q-67 0 -117 20t-83.5 56t-50 85t-16.5 107v426h135v-418q0 -36 7 -65.5t22.5 -50.5t41 -32.5t61.5 -11.5t61.5 11.5t41 32.5t22.5 50.5t7 65.5v418h135v-426q0 -58 -16.5 -107t-50 -85t-83.5 -56t-117 -20zM171 894h133v-125h-133v125zM382 894h132v-125h-132
v125z" />
    <glyph glyph-name="glyph155" horiz-adv-x="597" 
d="M231 0v293l-230 384v3h152l145 -263l146 263h152v-3l-230 -383v-294h-135zM233 754v3l90 151h138v-3l-123 -151h-105z" />
    <glyph glyph-name="Thorn" unicode="&#xde;" horiz-adv-x="576" 
d="M218 556h95q50 0 93 -13.5t74 -40t48.5 -66.5t17.5 -92q0 -53 -17.5 -92.5t-48.5 -65.5t-74 -39.5t-93 -13.5h-95v-133h-135v680h135v-124zM218 446v-203h82q47 0 76.5 23t29.5 78t-29.5 78.5t-76.5 23.5h-82z" />
    <glyph glyph-name="germandbls" unicode="&#xdf;" horiz-adv-x="585" 
d="M68 514q0 99 56.5 152.5t156.5 53.5q45 0 83 -14.5t65.5 -39.5t42.5 -58t15 -69q0 -48 -18 -82t-50 -54q57 -20 93.5 -68.5t36.5 -124.5q0 -51 -18 -91.5t-47.5 -69t-68 -43.5t-78.5 -15q-29 0 -48.5 2.5t-36.5 7.5l16 106q11 -3 23 -5t25 -2q50 0 74.5 32t24.5 85
q0 56 -27.5 87t-81.5 31h-35v98h7q42 0 58.5 27.5t16.5 65.5q0 35 -18.5 60t-56.5 25t-58 -24t-20 -60v-527h-132v514z" />
    <glyph glyph-name="glyph158" horiz-adv-x="541" 
d="M219 -14q-44 0 -78.5 12t-58.5 34t-37 52.5t-13 67.5t13 67.5t37 52.5t58.5 34t78.5 12q74 0 128 -43v32q0 46 -24 78.5t-78 32.5q-43 0 -72 -17t-44 -36l-68 83q23 30 71.5 54.5t115.5 24.5q57 0 100 -15.5t72 -43.5t44 -66t15 -84v-318h-124v36q-55 -50 -136 -50z
M250 80q33 0 58 13.5t39 33.5v50q-14 20 -39 33.5t-58 13.5q-46 0 -65.5 -22t-19.5 -50t19.5 -50t65.5 -22zM103 744v3h138l90 -151v-3h-105z" />
    <glyph glyph-name="glyph159" horiz-adv-x="541" 
d="M219 -14q-44 0 -78.5 12t-58.5 34t-37 52.5t-13 67.5t13 67.5t37 52.5t58.5 34t78.5 12q74 0 128 -43v32q0 46 -24 78.5t-78 32.5q-43 0 -72 -17t-44 -36l-68 83q23 30 71.5 54.5t115.5 24.5q57 0 100 -15.5t72 -43.5t44 -66t15 -84v-318h-124v36q-55 -50 -136 -50z
M250 80q33 0 58 13.5t39 33.5v50q-14 20 -39 33.5t-58 13.5q-46 0 -65.5 -22t-19.5 -50t19.5 -50t65.5 -22zM199 593v3l90 151h138v-3l-123 -151h-105z" />
    <glyph glyph-name="glyph160" horiz-adv-x="541" 
d="M219 -14q-44 0 -78.5 12t-58.5 34t-37 52.5t-13 67.5t13 67.5t37 52.5t58.5 34t78.5 12q74 0 128 -43v32q0 46 -24 78.5t-78 32.5q-43 0 -72 -17t-44 -36l-68 83q23 30 71.5 54.5t115.5 24.5q57 0 100 -15.5t72 -43.5t44 -66t15 -84v-318h-124v36q-55 -50 -136 -50z
M250 80q33 0 58 13.5t39 33.5v50q-14 20 -39 33.5t-58 13.5q-46 0 -65.5 -22t-19.5 -50t19.5 -50t65.5 -22zM321 747l121 -151v-3h-108l-70 70l-68 -70h-108v3l122 151h111z" />
    <glyph glyph-name="glyph161" horiz-adv-x="541" 
d="M219 -14q-44 0 -78.5 12t-58.5 34t-37 52.5t-13 67.5t13 67.5t37 52.5t58.5 34t78.5 12q74 0 128 -43v32q0 46 -24 78.5t-78 32.5q-43 0 -72 -17t-44 -36l-68 83q23 30 71.5 54.5t115.5 24.5q57 0 100 -15.5t72 -43.5t44 -66t15 -84v-318h-124v36q-55 -50 -136 -50z
M250 80q33 0 58 13.5t39 33.5v50q-14 20 -39 33.5t-58 13.5q-46 0 -65.5 -22t-19.5 -50t19.5 -50t65.5 -22zM212 644q-15 0 -23.5 -14.5t-14.5 -37.5l-84 27q31 121 123 121q24 0 41.5 -8t31 -18t24 -18t21.5 -8q16 0 25 14.5t15 37.5l83 -27q-29 -121 -123 -121
q-24 0 -42 8t-31.5 18t-24.5 18t-21 8z" />
    <glyph glyph-name="adieresis" unicode="&#xe4;" horiz-adv-x="541" 
d="M219 -14q-44 0 -78.5 12t-58.5 34t-37 52.5t-13 67.5t13 67.5t37 52.5t58.5 34t78.5 12q74 0 128 -43v32q0 46 -24 78.5t-78 32.5q-43 0 -72 -17t-44 -36l-68 83q23 30 71.5 54.5t115.5 24.5q57 0 100 -15.5t72 -43.5t44 -66t15 -84v-318h-124v36q-55 -50 -136 -50z
M250 80q33 0 58 13.5t39 33.5v50q-14 20 -39 33.5t-58 13.5q-46 0 -65.5 -22t-19.5 -50t19.5 -50t65.5 -22zM93 733h133v-125h-133v125zM304 733h132v-125h-132v125z" />
    <glyph glyph-name="aring" unicode="&#xe5;" horiz-adv-x="541" 
d="M219 -14q-44 0 -78.5 12t-58.5 34t-37 52.5t-13 67.5t13 67.5t37 52.5t58.5 34t78.5 12q74 0 128 -43v32q0 46 -24 78.5t-78 32.5q-43 0 -72 -17t-44 -36l-68 83q23 30 71.5 54.5t115.5 24.5q57 0 100 -15.5t72 -43.5t44 -66t15 -84v-318h-124v36q-55 -50 -136 -50z
M250 80q33 0 58 13.5t39 33.5v50q-14 20 -39 33.5t-58 13.5q-46 0 -65.5 -22t-19.5 -50t19.5 -50t65.5 -22zM150 690q0 23 9 42.5t25 33.5t36.5 22t43.5 8t43.5 -8t36 -22t24.5 -33.5t9 -42.5t-9 -42.5t-24.5 -33.5t-36 -22t-43.5 -8t-43.5 8t-36.5 22t-25 33.5t-9 42.5z
M222 690q0 -18 11.5 -30t30.5 -12q18 0 29.5 12t11.5 30q0 19 -11.5 30.5t-29.5 11.5q-19 0 -30.5 -11.5t-11.5 -30.5z" />
    <glyph glyph-name="ae" unicode="&#xe6;" horiz-adv-x="858" 
d="M233 -14q-95 0 -148 45.5t-53 118.5q0 71 52 115t146 44h113q-1 45 -26 77t-82 32q-41 0 -68.5 -19t-41.5 -40l-68 83q11 16 28.5 31.5t41 27.5t51.5 19t60 7q63 0 106.5 -21t69.5 -57q32 38 76.5 58t98.5 20q51 0 94.5 -19t74.5 -52.5t48.5 -80t17.5 -101.5
q0 -12 -1 -27t-3 -26h-349q8 -57 40 -92.5t92 -35.5q45 0 75.5 19t51.5 53l82 -68q-44 -58 -97 -84.5t-122 -26.5q-58 0 -105 20t-80 58q-32 -35 -75.5 -56.5t-99.5 -21.5zM360 147q-11 33 -16 74h-86q-50 0 -71.5 -22t-21.5 -49t19 -48.5t62 -21.5q17 0 34.5 5.5t32.5 14.5
t27.5 21t19.5 26zM589 424q-47 0 -76.5 -28t-39.5 -85h223q-6 58 -34 85.5t-73 27.5z" />
    <glyph glyph-name="ccedilla" unicode="&#xe7;" horiz-adv-x="526" 
d="M39 257q0 62 17.5 112t50 85.5t79 54.5t105.5 19q33 0 64 -8.5t58.5 -26t49 -44t34.5 -62.5l-100 -47q-14 35 -41 57t-65 22q-30 0 -52 -12t-37 -33.5t-22 -51.5t-7 -65t7 -65t22 -51.5t37 -33.5t52 -12q38 0 65 22t41 57l100 -47q-13 -36 -34.5 -62.5t-49 -44t-58.5 -26
t-64 -8.5q-59 0 -105.5 19t-79 54.5t-50 85.5t-17.5 112zM298 13q44 -20 67.5 -48t23.5 -62q0 -40 -32 -65t-86 -25q-57 0 -89 24l31 65q20 -13 42 -13q20 0 27.5 9.5t7.5 21.5q0 25 -23 44t-66 36z" />
    <glyph glyph-name="glyph166" horiz-adv-x="555" 
d="M290 -14q-56 0 -102 19t-79.5 54t-52 84.5t-18.5 111.5q0 65 20 115.5t54.5 85.5t79 53t94.5 18q51 0 94.5 -19t74.5 -52.5t48.5 -80t17.5 -101.5q0 -12 -1 -27t-3 -26h-349q8 -57 40 -92.5t92 -35.5q45 0 75.5 19t51.5 53l82 -68q-44 -58 -97 -84.5t-122 -26.5zM286 424
q-47 0 -76.5 -28t-39.5 -85h224q-6 58 -34.5 85.5t-73.5 27.5zM128 744v3h138l90 -151v-3h-105z" />
    <glyph glyph-name="glyph167" horiz-adv-x="555" 
d="M290 -14q-56 0 -102 19t-79.5 54t-52 84.5t-18.5 111.5q0 65 20 115.5t54.5 85.5t79 53t94.5 18q51 0 94.5 -19t74.5 -52.5t48.5 -80t17.5 -101.5q0 -12 -1 -27t-3 -26h-349q8 -57 40 -92.5t92 -35.5q45 0 75.5 19t51.5 53l82 -68q-44 -58 -97 -84.5t-122 -26.5zM286 424
q-47 0 -76.5 -28t-39.5 -85h224q-6 58 -34.5 85.5t-73.5 27.5zM223 593v3l90 151h138v-3l-123 -151h-105z" />
    <glyph glyph-name="glyph168" horiz-adv-x="555" 
d="M290 -14q-56 0 -102 19t-79.5 54t-52 84.5t-18.5 111.5q0 65 20 115.5t54.5 85.5t79 53t94.5 18q51 0 94.5 -19t74.5 -52.5t48.5 -80t17.5 -101.5q0 -12 -1 -27t-3 -26h-349q8 -57 40 -92.5t92 -35.5q45 0 75.5 19t51.5 53l82 -68q-44 -58 -97 -84.5t-122 -26.5zM286 424
q-47 0 -76.5 -28t-39.5 -85h224q-6 58 -34.5 85.5t-73.5 27.5zM346 747l121 -151v-3h-108l-70 70l-68 -70h-108v3l122 151h111z" />
    <glyph glyph-name="edieresis" unicode="&#xeb;" horiz-adv-x="555" 
d="M290 -14q-56 0 -102 19t-79.5 54t-52 84.5t-18.5 111.5q0 65 20 115.5t54.5 85.5t79 53t94.5 18q51 0 94.5 -19t74.5 -52.5t48.5 -80t17.5 -101.5q0 -12 -1 -27t-3 -26h-349q8 -57 40 -92.5t92 -35.5q45 0 75.5 19t51.5 53l82 -68q-44 -58 -97 -84.5t-122 -26.5zM286 424
q-47 0 -76.5 -28t-39.5 -85h224q-6 58 -34.5 85.5t-73.5 27.5zM118 733h133v-125h-133v125zM329 733h132v-125h-132v125z" />
    <glyph glyph-name="glyph170" horiz-adv-x="268" 
d="M68 513h132v-513h-132v513zM-27 744v3h138l90 -151v-3h-105z" />
    <glyph glyph-name="glyph171" horiz-adv-x="268" 
d="M68 513h132v-513h-132v513zM69 593v3l90 151h138v-3l-123 -151h-105z" />
    <glyph glyph-name="icircumflex" unicode="&#xee;" horiz-adv-x="268" 
d="M68 513h132v-513h-132v513zM191 747l121 -151v-3h-108l-70 70l-68 -70h-108v3l122 151h111z" />
    <glyph glyph-name="idieresis" unicode="&#xef;" horiz-adv-x="268" 
d="M68 513h132v-513h-132v513zM-37 733h133v-125h-133v125zM174 733h132v-125h-132v125z" />
    <glyph glyph-name="eth" unicode="&#xf0;" horiz-adv-x="570" 
d="M474 619l-67 -24q54 -74 88.5 -161.5t34.5 -177.5q0 -54 -15.5 -102.5t-46 -86t-77 -59.5t-108.5 -22t-107.5 21t-76 56t-45.5 80t-15 93q0 53 16 97.5t44 76.5t66.5 50t82.5 18q27 0 55.5 -10t53.5 -33q-14 31 -32 59.5t-40 57.5l-118 -42l-29 81l86 30q-20 22 -43 43
t-47 43v3h167l24 -22t23 -23l97 35zM396 257q0 14 -1 28t-3 28q-21 32 -49.5 46t-59.5 14q-49 0 -79.5 -36.5t-30.5 -102.5q0 -67 31 -103t79 -36q50 0 81.5 41t31.5 121z" />
    <glyph glyph-name="ntilde" unicode="&#xf1;" horiz-adv-x="589" 
d="M68 513h127v-56q24 30 60.5 50t86.5 20q48 0 83 -15t57.5 -41.5t33 -64t10.5 -82.5v-324h-132v307q0 55 -26 83t-68 28q-36 0 -61 -21.5t-39 -53.5v-343h-132v513zM249 644q-15 0 -23.5 -14.5t-14.5 -37.5l-84 27q31 121 123 121q24 0 41.5 -8t31 -18t24 -18t21.5 -8
q16 0 25 14.5t15 37.5l83 -27q-29 -121 -123 -121q-24 0 -42 8t-31.5 18t-24.5 18t-21 8z" />
    <glyph glyph-name="glyph176" horiz-adv-x="586" 
d="M293 95q31 0 53.5 12t37.5 34t22.5 51.5t7.5 64.5t-7.5 64.5t-22.5 51t-37.5 33.5t-53.5 12t-53.5 -12t-37.5 -33.5t-22.5 -51t-7.5 -64.5t7.5 -64.5t22.5 -51.5t37.5 -34t53.5 -12zM293 527q58 0 105.5 -20t80.5 -56t51 -85.5t18 -108.5t-18 -109t-51 -86t-80.5 -56
t-105.5 -20q-59 0 -106 20t-80 56t-51 86t-18 109t18 108.5t51 85.5t80 56t106 20zM132 744v3h138l90 -151v-3h-105z" />
    <glyph glyph-name="glyph177" horiz-adv-x="586" 
d="M293 95q31 0 53.5 12t37.5 34t22.5 51.5t7.5 64.5t-7.5 64.5t-22.5 51t-37.5 33.5t-53.5 12t-53.5 -12t-37.5 -33.5t-22.5 -51t-7.5 -64.5t7.5 -64.5t22.5 -51.5t37.5 -34t53.5 -12zM293 527q58 0 105.5 -20t80.5 -56t51 -85.5t18 -108.5t-18 -109t-51 -86t-80.5 -56
t-105.5 -20q-59 0 -106 20t-80 56t-51 86t-18 109t18 108.5t51 85.5t80 56t106 20zM227 593v3l90 151h138v-3l-123 -151h-105z" />
    <glyph glyph-name="glyph178" horiz-adv-x="586" 
d="M293 95q31 0 53.5 12t37.5 34t22.5 51.5t7.5 64.5t-7.5 64.5t-22.5 51t-37.5 33.5t-53.5 12t-53.5 -12t-37.5 -33.5t-22.5 -51t-7.5 -64.5t7.5 -64.5t22.5 -51.5t37.5 -34t53.5 -12zM293 527q58 0 105.5 -20t80.5 -56t51 -85.5t18 -108.5t-18 -109t-51 -86t-80.5 -56
t-105.5 -20q-59 0 -106 20t-80 56t-51 86t-18 109t18 108.5t51 85.5t80 56t106 20zM350 747l121 -151v-3h-108l-70 70l-68 -70h-108v3l122 151h111z" />
    <glyph glyph-name="glyph179" horiz-adv-x="586" 
d="M293 95q31 0 53.5 12t37.5 34t22.5 51.5t7.5 64.5t-7.5 64.5t-22.5 51t-37.5 33.5t-53.5 12t-53.5 -12t-37.5 -33.5t-22.5 -51t-7.5 -64.5t7.5 -64.5t22.5 -51.5t37.5 -34t53.5 -12zM293 527q58 0 105.5 -20t80.5 -56t51 -85.5t18 -108.5t-18 -109t-51 -86t-80.5 -56
t-105.5 -20q-59 0 -106 20t-80 56t-51 86t-18 109t18 108.5t51 85.5t80 56t106 20zM240 644q-15 0 -23.5 -14.5t-14.5 -37.5l-84 27q31 121 123 121q24 0 41.5 -8t31 -18t24 -18t21.5 -8q16 0 25 14.5t15 37.5l83 -27q-29 -121 -123 -121q-24 0 -42 8t-31.5 18t-24.5 18
t-21 8z" />
    <glyph glyph-name="odieresis" unicode="&#xf6;" horiz-adv-x="586" 
d="M293 95q31 0 53.5 12t37.5 34t22.5 51.5t7.5 64.5t-7.5 64.5t-22.5 51t-37.5 33.5t-53.5 12t-53.5 -12t-37.5 -33.5t-22.5 -51t-7.5 -64.5t7.5 -64.5t22.5 -51.5t37.5 -34t53.5 -12zM293 527q58 0 105.5 -20t80.5 -56t51 -85.5t18 -108.5t-18 -109t-51 -86t-80.5 -56
t-105.5 -20q-59 0 -106 20t-80 56t-51 86t-18 109t18 108.5t51 85.5t80 56t106 20zM122 733h133v-125h-133v125zM333 733h132v-125h-132v125z" />
    <glyph glyph-name="divide" unicode="&#xf7;" 
d="M60 247v110h441v-110h-441zM354 45h-146v132h146v-132zM354 427h-146v133h146v-133z" />
    <glyph glyph-name="oslash" unicode="&#xf8;" horiz-adv-x="586" 
d="M293 527q47 0 87 -14l18 34h110v-3l-42 -80q39 -37 60.5 -89.5t21.5 -117.5q0 -59 -18 -109t-51 -86t-80.5 -56t-105.5 -20q-47 0 -91 14l-18 -35h-111v3l44 83q-38 37 -58.5 89.5t-20.5 116.5q0 59 18 108.5t51 85.5t80 56t106 20zM293 95q31 0 53.5 12t37.5 34
t22.5 51.5t7.5 64.5q0 62 -22 103l-137 -260q9 -2 18 -3.5t20 -1.5zM172 257q0 -58 20 -100l135 256q-18 5 -34 5q-31 0 -53.5 -12t-37.5 -33.5t-22.5 -51t-7.5 -64.5z" />
    <glyph glyph-name="glyph183" horiz-adv-x="589" 
d="M521 0h-127v56q-24 -30 -60.5 -50t-86.5 -20q-48 0 -83 15t-57.5 41.5t-33 64t-10.5 82.5v324h132v-307q0 -55 26 -83t68 -28q35 0 60.5 21.5t39.5 53.5v343h132v-513zM131 744v3h138l90 -151v-3h-105z" />
    <glyph glyph-name="glyph184" horiz-adv-x="589" 
d="M521 0h-127v56q-24 -30 -60.5 -50t-86.5 -20q-48 0 -83 15t-57.5 41.5t-33 64t-10.5 82.5v324h132v-307q0 -55 26 -83t68 -28q35 0 60.5 21.5t39.5 53.5v343h132v-513zM226 593v3l90 151h138v-3l-123 -151h-105z" />
    <glyph glyph-name="ucircumflex" unicode="&#xfb;" horiz-adv-x="589" 
d="M521 0h-127v56q-24 -30 -60.5 -50t-86.5 -20q-48 0 -83 15t-57.5 41.5t-33 64t-10.5 82.5v324h132v-307q0 -55 26 -83t68 -28q35 0 60.5 21.5t39.5 53.5v343h132v-513zM349 747l121 -151v-3h-108l-70 70l-68 -70h-108v3l122 151h111z" />
    <glyph glyph-name="udieresis" unicode="&#xfc;" horiz-adv-x="589" 
d="M521 0h-127v56q-24 -30 -60.5 -50t-86.5 -20q-48 0 -83 15t-57.5 41.5t-33 64t-10.5 82.5v324h132v-307q0 -55 26 -83t68 -28q35 0 60.5 21.5t39.5 53.5v343h132v-513zM121 733h133v-125h-133v125zM332 733h132v-125h-132v125z" />
    <glyph glyph-name="glyph187" horiz-adv-x="521" 
d="M197 65l-187 448h142l85 -234q11 -33 19 -62t8 -42h4q2 23 8 47t17 57l79 234h143l-274 -686h-143zM197 593v3l90 151h138v-3l-123 -151h-105z" />
    <glyph glyph-name="thorn" unicode="&#xfe;" horiz-adv-x="606" 
d="M68 710h132v-250q25 31 60 49.5t78 18.5q49 0 91 -18.5t72.5 -53.5t48 -85t17.5 -114t-17.5 -114t-48 -85t-72.5 -53.5t-91 -18.5q-43 0 -78 18t-60 49v-226h-132v883zM309 95q26 0 49 9.5t39.5 29.5t26 50.5t9.5 72.5t-9.5 72.5t-26 50.5t-39.5 29.5t-49 9.5
q-34 0 -64 -20.5t-45 -57.5v-168q15 -37 45 -57.5t64 -20.5z" />
    <glyph glyph-name="ydieresis" unicode="&#xff;" horiz-adv-x="521" 
d="M197 65l-187 448h142l85 -234q11 -33 19 -62t8 -42h4q2 23 8 47t17 57l79 234h143l-274 -686h-143zM91 733h133v-125h-133v125zM302 733h132v-125h-132v125z" />
    <glyph glyph-name="Abreve" horiz-adv-x="637" 
d="M238 680h161l237 -680h-143l-48 146h-254l-47 -146h-143zM227 256h182l-64 197q-12 34 -18.5 64.5t-6.5 43.5h-4q0 -13 -6.5 -43.5t-17.5 -64.5zM319 745q-58 0 -98.5 30.5t-66.5 78.5l71 50q39 -63 94 -63t94 63l71 -50q-26 -48 -66.5 -78.5t-98.5 -30.5z" />
    <glyph glyph-name="Amacron" unicode="&#x100;" horiz-adv-x="637" 
d="M238 680h161l237 -680h-143l-48 146h-254l-47 -146h-143zM227 256h182l-64 197q-12 34 -18.5 64.5t-6.5 43.5h-4q0 -13 -6.5 -43.5t-17.5 -64.5zM481 866v-90h-324v90h324z" />
    <glyph glyph-name="Aogonek" unicode="&#x104;" horiz-adv-x="637" 
d="M238 680h161l237 -680h-143l-48 146h-254l-47 -146h-143zM227 256h182l-64 197q-12 34 -18.5 64.5t-6.5 43.5h-4q0 -13 -6.5 -43.5t-17.5 -64.5zM635 0q-47 -17 -72 -37t-25 -46q0 -11 7.5 -21t29.5 -10q23 0 45 13l36 -73q-17 -13 -43 -19.5t-57 -6.5q-60 0 -95.5 29.5
t-35.5 77.5q0 40 31 72.5t88 54.5z" />
    <glyph glyph-name="Cacute" unicode="&#x106;" horiz-adv-x="660" 
d="M43 340q0 78 23 143t64.5 112t100 73t130.5 26q88 0 160.5 -42.5t113.5 -138.5l-115 -50q-18 55 -60 85t-99 30q-45 0 -78.5 -17.5t-55.5 -49t-33 -75.5t-11 -96t11 -96t33 -75.5t55.5 -49t78.5 -17.5q57 0 99 30t60 85l115 -50q-41 -96 -113.5 -138.5t-160.5 -42.5
q-72 0 -130.5 26t-100 73t-64.5 112t-23 143zM302 754v3l90 151h138v-3l-123 -151h-105z" />
    <glyph glyph-name="Ccaron" unicode="&#x10c;" horiz-adv-x="660" 
d="M43 340q0 78 23 143t64.5 112t100 73t130.5 26q88 0 160.5 -42.5t113.5 -138.5l-115 -50q-18 55 -60 85t-99 30q-45 0 -78.5 -17.5t-55.5 -49t-33 -75.5t-11 -96t11 -96t33 -75.5t55.5 -49t78.5 -17.5q57 0 99 30t60 85l115 -50q-41 -96 -113.5 -138.5t-160.5 -42.5
q-72 0 -130.5 26t-100 73t-64.5 112t-23 143zM312 754l-121 151v3h108l69 -70l69 70h108v-3l-122 -151h-111z" />
    <glyph glyph-name="Ccircumflex" unicode="&#x108;" horiz-adv-x="660" 
d="M43 340q0 78 23 143t64.5 112t100 73t130.5 26q88 0 160.5 -42.5t113.5 -138.5l-115 -50q-18 55 -60 85t-99 30q-45 0 -78.5 -17.5t-55.5 -49t-33 -75.5t-11 -96t11 -96t33 -75.5t55.5 -49t78.5 -17.5q57 0 99 30t60 85l115 -50q-41 -96 -113.5 -138.5t-160.5 -42.5
q-72 0 -130.5 26t-100 73t-64.5 112t-23 143zM424 908l121 -151v-3h-108l-70 70l-68 -70h-108v3l122 151h111z" />
    <glyph glyph-name="Cdotaccent" unicode="&#x10a;" horiz-adv-x="660" 
d="M43 340q0 78 23 143t64.5 112t100 73t130.5 26q88 0 160.5 -42.5t113.5 -138.5l-115 -50q-18 55 -60 85t-99 30q-45 0 -78.5 -17.5t-55.5 -49t-33 -75.5t-11 -96t11 -96t33 -75.5t55.5 -49t78.5 -17.5q57 0 99 30t60 85l115 -50q-41 -96 -113.5 -138.5t-160.5 -42.5
q-72 0 -130.5 26t-100 73t-64.5 112t-23 143zM296 884h144v-126h-144v126z" />
    <glyph glyph-name="Dcaron" unicode="&#x10e;" horiz-adv-x="692" 
d="M83 680h236q78 0 139.5 -23t103.5 -67t64 -107t22 -143t-22 -143t-64 -107t-103.5 -67t-139.5 -23h-236v680zM218 570v-460h95q100 0 147.5 60.5t47.5 169.5t-47.5 169.5t-147.5 60.5h-95zM274 754l-121 151v3h108l69 -70l69 70h108v-3l-122 -151h-111z" />
    <glyph glyph-name="Dcroat" horiz-adv-x="699" 
d="M326 680q78 0 139.5 -23t103.5 -67t64 -107t22 -143t-22 -143t-64 -107t-103.5 -67t-139.5 -23h-236v290h-69v106h69v284h236zM320 110q100 0 147.5 60.5t47.5 169.5t-47.5 169.5t-147.5 60.5h-95v-174h140v-106h-140v-180h95z" />
    <glyph glyph-name="Ebreve" unicode="&#x114;" horiz-adv-x="573" 
d="M526 0h-443v680h443v-110h-308v-171h260v-110h-260v-179h308v-110zM309 745q-58 0 -98.5 30.5t-66.5 78.5l71 50q39 -63 94 -63t94 63l71 -50q-26 -48 -66.5 -78.5t-98.5 -30.5z" />
    <glyph glyph-name="Ecaron" unicode="&#x11a;" horiz-adv-x="573" 
d="M526 0h-443v680h443v-110h-308v-171h260v-110h-260v-179h308v-110zM253 754l-121 151v3h108l69 -70l69 70h108v-3l-122 -151h-111z" />
    <glyph glyph-name="Emacron" unicode="&#x112;" horiz-adv-x="573" 
d="M526 0h-443v680h443v-110h-308v-171h260v-110h-260v-179h308v-110zM470 866v-90h-324v90h324z" />
    <glyph glyph-name="Eogonek" unicode="&#x118;" horiz-adv-x="573" 
d="M526 0h-443v680h443v-110h-308v-171h260v-110h-260v-179h308v-110zM526 0q-47 -17 -72 -37t-25 -46q0 -11 7.5 -21t29.5 -10q23 0 45 13l36 -73q-17 -13 -43 -19.5t-57 -6.5q-60 0 -95.5 29.5t-35.5 77.5q0 40 31 72.5t88 54.5z" />
    <glyph glyph-name="Edotaccent" unicode="&#x116;" horiz-adv-x="573" 
d="M526 0h-443v680h443v-110h-308v-171h260v-110h-260v-179h308v-110zM237 884h144v-126h-144v126z" />
    <glyph glyph-name="Gbreve" unicode="&#x11e;" horiz-adv-x="694" 
d="M43 340q0 76 22.5 140.5t64.5 112t101 74.5t132 27q102 0 169 -41t109 -110l-103 -70q-27 48 -67 76.5t-106 28.5q-48 0 -82.5 -18t-56.5 -50t-32.5 -75.5t-10.5 -94.5t10.5 -94.5t33 -75.5t57.5 -50t84 -18q48 0 80 12t58 32v117h-130v110h265v-285q-23 -21 -53.5 -39.5
t-66 -32.5t-76 -22t-82.5 -8q-73 0 -132 27t-101 74.5t-64.5 112t-22.5 140.5zM371 745q-58 0 -98.5 30.5t-66.5 78.5l71 50q39 -63 94 -63t94 63l71 -50q-26 -48 -66.5 -78.5t-98.5 -30.5z" />
    <glyph glyph-name="Gcircumflex" unicode="&#x11c;" horiz-adv-x="694" 
d="M43 340q0 76 22.5 140.5t64.5 112t101 74.5t132 27q102 0 169 -41t109 -110l-103 -70q-27 48 -67 76.5t-106 28.5q-48 0 -82.5 -18t-56.5 -50t-32.5 -75.5t-10.5 -94.5t10.5 -94.5t33 -75.5t57.5 -50t84 -18q48 0 80 12t58 32v117h-130v110h265v-285q-23 -21 -53.5 -39.5
t-66 -32.5t-76 -22t-82.5 -8q-73 0 -132 27t-101 74.5t-64.5 112t-22.5 140.5zM427 908l121 -151v-3h-108l-70 70l-68 -70h-108v3l122 151h111z" />
    <glyph glyph-name="Gcommaaccent" unicode="&#x122;" horiz-adv-x="694" 
d="M43 340q0 76 22.5 140.5t64.5 112t101 74.5t132 27q102 0 169 -41t109 -110l-103 -70q-27 48 -67 76.5t-106 28.5q-48 0 -82.5 -18t-56.5 -50t-32.5 -75.5t-10.5 -94.5t10.5 -94.5t33 -75.5t57.5 -50t84 -18q48 0 80 12t58 32v117h-130v110h265v-285q-23 -21 -53.5 -39.5
t-66 -32.5t-76 -22t-82.5 -8q-73 0 -132 27t-101 74.5t-64.5 112t-22.5 140.5zM429 -156l-57 -115h-73l50 95h-54v103h134v-83z" />
    <glyph glyph-name="Gdotaccent" unicode="&#x120;" horiz-adv-x="694" 
d="M43 340q0 76 22.5 140.5t64.5 112t101 74.5t132 27q102 0 169 -41t109 -110l-103 -70q-27 48 -67 76.5t-106 28.5q-48 0 -82.5 -18t-56.5 -50t-32.5 -75.5t-10.5 -94.5t10.5 -94.5t33 -75.5t57.5 -50t84 -18q48 0 80 12t58 32v117h-130v110h265v-285q-23 -21 -53.5 -39.5
t-66 -32.5t-76 -22t-82.5 -8q-73 0 -132 27t-101 74.5t-64.5 112t-22.5 140.5zM299 884h144v-126h-144v126z" />
    <glyph glyph-name="Hbar" unicode="&#x126;" horiz-adv-x="728" 
d="M88 0v479h-60v100h60v101h135v-101h282v101h135v-101h60v-100h-60v-479h-135v279h-282v-279h-135zM223 389h282v90h-282v-90z" />
    <glyph glyph-name="Hcircumflex" unicode="&#x124;" horiz-adv-x="718" 
d="M83 0v680h135v-281h282v281h135v-680h-135v289h-282v-289h-135zM415 908l121 -151v-3h-108l-70 70l-68 -70h-108v3l122 151h111z" />
    <glyph glyph-name="Ibreve" unicode="&#x12c;" horiz-adv-x="301" 
d="M83 0v680h135v-680h-135zM152 745q-58 0 -98.5 30.5t-66.5 78.5l71 50q39 -63 94 -63t94 63l71 -50q-26 -48 -66.5 -78.5t-98.5 -30.5z" />
    <glyph glyph-name="Idotaccent" unicode="&#x130;" horiz-adv-x="301" 
d="M83 0v680h135v-680h-135zM80 884h144v-126h-144v126z" />
    <glyph glyph-name="Imacron" unicode="&#x12a;" horiz-adv-x="301" 
d="M83 0v680h135v-680h-135zM314 866v-90h-324v90h324z" />
    <glyph glyph-name="Iogonek" unicode="&#x12e;" horiz-adv-x="301" 
d="M83 0v680h135v-680h-135zM219 0q-38 -16 -58.5 -34.5t-20.5 -44.5q0 -14 8 -24.5t30 -10.5q14 0 24.5 3t21.5 10l35 -73q-17 -13 -42.5 -19.5t-56.5 -6.5q-61 0 -97 29.5t-36 76.5q0 35 19 62t53 47z" />
    <glyph glyph-name="Itilde" horiz-adv-x="301" 
d="M83 0v680h135v-680h-135zM99 805q-15 0 -23.5 -14.5t-14.5 -37.5l-84 27q31 121 123 121q24 0 41.5 -8t31 -18t24 -18t21.5 -8q16 0 25 14.5t15 37.5l83 -27q-29 -121 -123 -121q-24 0 -42 8t-31.5 18t-24.5 18t-21 8z" />
    <glyph glyph-name="Jcircumflex" unicode="&#x134;" horiz-adv-x="523" 
d="M107 187q21 -40 45.5 -62.5t59.5 -22.5q29 0 48.5 9.5t31 27.5t16 44t4.5 59v438h135v-442q0 -55 -13.5 -101t-41.5 -79.5t-71.5 -52.5t-103.5 -19q-41 0 -73.5 10t-58.5 28t-45.5 42t-33.5 52zM436 908l121 -151v-3h-108l-70 70l-68 -70h-108v3l122 151h111z" />
    <glyph glyph-name="Kcommaaccent" unicode="&#x136;" horiz-adv-x="625" 
d="M469 0l-173 296l-78 -97v-199h-135v680h135v-301l228 301h161v-3l-228 -279l245 -395v-3h-155zM403 -156l-57 -115h-73l50 95h-54v103h134v-83z" />
    <glyph glyph-name="Lacute" unicode="&#x139;" horiz-adv-x="527" 
d="M507 0h-424v680h135v-570h289v-110zM86 754v3l90 151h138v-3l-123 -151h-105z" />
    <glyph glyph-name="Lcaron" unicode="&#x13d;" horiz-adv-x="527" 
d="M507 0h-424v680h135v-570h289v-110zM303 450v231h117l-33 -231h-84z" />
    <glyph glyph-name="Lcommaaccent" unicode="&#x13b;" horiz-adv-x="527" 
d="M507 0h-424v680h135v-570h289v-110zM364 -156l-57 -115h-73l50 95h-54v103h134v-83z" />
    <glyph glyph-name="Ldot" unicode="&#x13f;" horiz-adv-x="537" 
d="M507 0h-424v680h135v-570h289v-110zM338 437h144v-126h-144v126z" />
    <glyph glyph-name="Lslash" unicode="&#x141;" horiz-adv-x="543" 
d="M523 110v-110h-424v228l-69 -35v118l69 35v334h135v-275l167 83v-119l-167 -83v-176h289z" />
    <glyph glyph-name="Eng" unicode="&#x14a;" horiz-adv-x="735" 
d="M652 680v-685q0 -81 -45.5 -131.5t-135.5 -50.5q-58 0 -96.5 26t-58.5 61l89 70q10 -17 24.5 -29t37.5 -12q24 0 37 16t13 45v31l-251 359q-21 30 -35 58t-17 40h-4q3 -14 5.5 -46.5t2.5 -67.5v-364h-135v680h121l265 -380q21 -30 35 -58t17 -40h4q-4 17 -6 48t-2 66v364
h135z" />
    <glyph glyph-name="Nacute" unicode="&#x143;" horiz-adv-x="735" 
d="M83 680h121l265 -380q21 -30 35 -58t17 -40h4q-4 17 -6 48t-2 66v364h135v-680h-120l-266 380q-21 30 -35 58t-17 40h-4q3 -14 5.5 -46.5t2.5 -67.5v-364h-135v680zM296 754v3l90 151h138v-3l-123 -151h-105z" />
    <glyph glyph-name="Ncaron" unicode="&#x147;" horiz-adv-x="735" 
d="M83 680h121l265 -380q21 -30 35 -58t17 -40h4q-4 17 -6 48t-2 66v364h135v-680h-120l-266 380q-21 30 -35 58t-17 40h-4q3 -14 5.5 -46.5t2.5 -67.5v-364h-135v680zM306 754l-121 151v3h108l69 -70l69 70h108v-3l-122 -151h-111z" />
    <glyph glyph-name="Ncommaaccent" unicode="&#x145;" horiz-adv-x="735" 
d="M83 680h121l265 -380q21 -30 35 -58t17 -40h4q-4 17 -6 48t-2 66v364h135v-680h-120l-266 380q-21 30 -35 58t-17 40h-4q3 -14 5.5 -46.5t2.5 -67.5v-364h-135v680zM439 -156l-57 -115h-73l50 95h-54v103h134v-83z" />
    <glyph glyph-name="OE" unicode="&#x152;" horiz-adv-x="925" 
d="M43 340q0 78 22.5 143t64 112t100 73t130.5 26q51 0 99 -14h418v-110h-290v-171h245v-110h-245v-179h290v-110h-419q-47 -14 -98 -14q-72 0 -130.5 26t-100 73t-64 112t-22.5 143zM360 102q53 0 92 21v434q-20 10 -42.5 15.5t-49.5 5.5q-45 0 -78 -17.5t-55 -49
t-33 -75.5t-11 -96t11 -96t33 -75.5t55 -49t78 -17.5z" />
    <glyph glyph-name="Obreve" unicode="&#x14e;" horiz-adv-x="720" 
d="M360 694q72 0 130.5 -26t100 -73t64 -112t22.5 -143t-22.5 -143t-64 -112t-100 -73t-130.5 -26t-130.5 26t-100 73t-64 112t-22.5 143t22.5 143t64 112t100 73t130.5 26zM360 578q-45 0 -78 -17.5t-55 -49t-33 -75.5t-11 -96t11 -96t33 -75.5t55 -49t78 -17.5t78 17.5
t55 49t33 75.5t11 96t-11 96t-33 75.5t-55 49t-78 17.5zM360 745q-58 0 -98.5 30.5t-66.5 78.5l71 50q39 -63 94 -63t94 63l71 -50q-26 -48 -66.5 -78.5t-98.5 -30.5z" />
    <glyph glyph-name="Ohungarumlaut" unicode="&#x150;" horiz-adv-x="720" 
d="M360 694q72 0 130.5 -26t100 -73t64 -112t22.5 -143t-22.5 -143t-64 -112t-100 -73t-130.5 -26t-130.5 26t-100 73t-64 112t-22.5 143t22.5 143t64 112t100 73t130.5 26zM360 578q-45 0 -78 -17.5t-55 -49t-33 -75.5t-11 -96t11 -96t33 -75.5t55 -49t78 -17.5t78 17.5
t55 49t33 75.5t11 96t-11 96t-33 75.5t-55 49t-78 17.5zM204 754v3l84 151h125v-3l-104 -151h-105zM396 754v3l90 151h128v-3l-113 -151h-105z" />
    <glyph glyph-name="Omacron" unicode="&#x14c;" horiz-adv-x="720" 
d="M360 694q72 0 130.5 -26t100 -73t64 -112t22.5 -143t-22.5 -143t-64 -112t-100 -73t-130.5 -26t-130.5 26t-100 73t-64 112t-22.5 143t22.5 143t64 112t100 73t130.5 26zM360 578q-45 0 -78 -17.5t-55 -49t-33 -75.5t-11 -96t11 -96t33 -75.5t55 -49t78 -17.5t78 17.5
t55 49t33 75.5t11 96t-11 96t-33 75.5t-55 49t-78 17.5zM522 866v-90h-324v90h324z" />
    <glyph glyph-name="Racute" unicode="&#x154;" horiz-adv-x="636" 
d="M291 277h-73v-277h-135v680h269q47 0 87 -14.5t69.5 -40.5t46 -63.5t16.5 -83.5q0 -72 -38 -121t-101 -69l209 -285v-3h-160zM334 387q48 0 72.5 23.5t24.5 67.5t-24.5 68t-72.5 24h-116v-183h116zM243 754v3l90 151h138v-3l-123 -151h-105z" />
    <glyph glyph-name="Rcaron" unicode="&#x158;" horiz-adv-x="636" 
d="M291 277h-73v-277h-135v680h269q47 0 87 -14.5t69.5 -40.5t46 -63.5t16.5 -83.5q0 -72 -38 -121t-101 -69l209 -285v-3h-160zM334 387q48 0 72.5 23.5t24.5 67.5t-24.5 68t-72.5 24h-116v-183h116zM254 754l-121 151v3h108l69 -70l69 70h108v-3l-122 -151h-111z" />
    <glyph glyph-name="Rcommaaccent" unicode="&#x156;" horiz-adv-x="636" 
d="M291 277h-73v-277h-135v680h269q47 0 87 -14.5t69.5 -40.5t46 -63.5t16.5 -83.5q0 -72 -38 -121t-101 -69l209 -285v-3h-160zM334 387q48 0 72.5 23.5t24.5 67.5t-24.5 68t-72.5 24h-116v-183h116zM403 -156l-57 -115h-73l50 95h-54v103h134v-83z" />
    <glyph glyph-name="Sacute" unicode="&#x15a;" horiz-adv-x="566" 
d="M282 -14q-51 0 -92 13t-73 34.5t-57 49.5t-43 58l93 71q13 -24 30 -44.5t38 -36t47.5 -24.5t59.5 -9q51 0 78.5 27t27.5 63q0 35 -23 60t-80 41l-51 14q-37 10 -68.5 26.5t-54.5 40.5t-36 56.5t-13 74.5q0 40 14.5 75t43 61.5t71 41.5t97.5 15q70 0 124 -31.5t89 -84.5
l-94 -70q-48 74 -123 74q-40 0 -61 -22.5t-21 -51.5q0 -32 17.5 -49.5t61.5 -29.5l51 -14q40 -11 76 -29t62.5 -44.5t42 -62.5t15.5 -82t-18.5 -85t-51.5 -67t-79 -43.5t-100 -15.5zM228 754v3l90 151h138v-3l-123 -151h-105z" />
    <glyph glyph-name="Scaron" unicode="&#x160;" horiz-adv-x="566" 
d="M282 -14q-51 0 -92 13t-73 34.5t-57 49.5t-43 58l93 71q13 -24 30 -44.5t38 -36t47.5 -24.5t59.5 -9q51 0 78.5 27t27.5 63q0 35 -23 60t-80 41l-51 14q-37 10 -68.5 26.5t-54.5 40.5t-36 56.5t-13 74.5q0 40 14.5 75t43 61.5t71 41.5t97.5 15q70 0 124 -31.5t89 -84.5
l-94 -70q-48 74 -123 74q-40 0 -61 -22.5t-21 -51.5q0 -32 17.5 -49.5t61.5 -29.5l51 -14q40 -11 76 -29t62.5 -44.5t42 -62.5t15.5 -82t-18.5 -85t-51.5 -67t-79 -43.5t-100 -15.5zM239 754l-121 151v3h108l69 -70l69 70h108v-3l-122 -151h-111z" />
    <glyph glyph-name="Scedilla" unicode="&#x15e;" horiz-adv-x="566" 
d="M282 -14q-51 0 -92 13t-73 34.5t-57 49.5t-43 58l93 71q13 -24 30 -44.5t38 -36t47.5 -24.5t59.5 -9q51 0 78.5 27t27.5 63q0 35 -23 60t-80 41l-51 14q-37 10 -68.5 26.5t-54.5 40.5t-36 56.5t-13 74.5q0 40 14.5 75t43 61.5t71 41.5t97.5 15q70 0 124 -31.5t89 -84.5
l-94 -70q-48 74 -123 74q-40 0 -61 -22.5t-21 -51.5q0 -32 17.5 -49.5t61.5 -29.5l51 -14q40 -11 76 -29t62.5 -44.5t42 -62.5t15.5 -82t-18.5 -85t-51.5 -67t-79 -43.5t-100 -15.5zM307 16q48 -20 74 -50.5t26 -67.5q0 -44 -36 -71t-96 -27q-32 0 -57.5 6.5t-42.5 19.5
l35 73q12 -7 22 -10t24 -3q22 0 29.5 10t7.5 21q0 27 -25 47.5t-72 37.5z" />
    <glyph glyph-name="Scircumflex" unicode="&#x15c;" horiz-adv-x="566" 
d="M282 -14q-51 0 -92 13t-73 34.5t-57 49.5t-43 58l93 71q13 -24 30 -44.5t38 -36t47.5 -24.5t59.5 -9q51 0 78.5 27t27.5 63q0 35 -23 60t-80 41l-51 14q-37 10 -68.5 26.5t-54.5 40.5t-36 56.5t-13 74.5q0 40 14.5 75t43 61.5t71 41.5t97.5 15q70 0 124 -31.5t89 -84.5
l-94 -70q-48 74 -123 74q-40 0 -61 -22.5t-21 -51.5q0 -32 17.5 -49.5t61.5 -29.5l51 -14q40 -11 76 -29t62.5 -44.5t42 -62.5t15.5 -82t-18.5 -85t-51.5 -67t-79 -43.5t-100 -15.5zM351 908l121 -151v-3h-108l-70 70l-68 -70h-108v3l122 151h111z" />
    <glyph glyph-name="Scommaaccent" unicode="&#x218;" horiz-adv-x="566" 
d="M282 -14q-51 0 -92 13t-73 34.5t-57 49.5t-43 58l93 71q13 -24 30 -44.5t38 -36t47.5 -24.5t59.5 -9q51 0 78.5 27t27.5 63q0 35 -23 60t-80 41l-51 14q-37 10 -68.5 26.5t-54.5 40.5t-36 56.5t-13 74.5q0 40 14.5 75t43 61.5t71 41.5t97.5 15q70 0 124 -31.5t89 -84.5
l-94 -70q-48 74 -123 74q-40 0 -61 -22.5t-21 -51.5q0 -32 17.5 -49.5t61.5 -29.5l51 -14q40 -11 76 -29t62.5 -44.5t42 -62.5t15.5 -82t-18.5 -85t-51.5 -67t-79 -43.5t-100 -15.5zM349 -156l-57 -115h-73l50 95h-54v103h134v-83z" />
    <glyph glyph-name="Tbar" unicode="&#x166;" horiz-adv-x="557" 
d="M346 571v-185h108v-106h-108v-280h-135v280h-108v106h108v185h-185v109h505v-109h-185z" />
    <glyph glyph-name="Tcaron" unicode="&#x164;" horiz-adv-x="545" 
d="M205 571h-185v109h505v-109h-185v-571h-135v571zM218 754l-121 151v3h108l69 -70l69 70h108v-3l-122 -151h-111z" />
    <glyph glyph-name="uni0162" unicode="&#x162;" horiz-adv-x="545" 
d="M205 571h-185v109h505v-109h-185v-571h-135v571zM341 -156l-57 -115h-73l50 95h-54v103h134v-83z" />
    <glyph glyph-name="uni021A" unicode="&#x21a;" horiz-adv-x="545" 
d="M205 571h-185v109h505v-109h-185v-571h-135v571zM341 -156l-57 -115h-73l50 95h-54v103h134v-83z" />
    <glyph glyph-name="Ubreve" unicode="&#x16c;" horiz-adv-x="686" 
d="M343 -14q-67 0 -117 20t-83.5 56t-50 85t-16.5 107v426h135v-418q0 -36 7 -65.5t22.5 -50.5t41 -32.5t61.5 -11.5t61.5 11.5t41 32.5t22.5 50.5t7 65.5v418h135v-426q0 -58 -16.5 -107t-50 -85t-83.5 -56t-117 -20zM343 745q-58 0 -98.5 30.5t-66.5 78.5l71 50
q39 -63 94 -63t94 63l71 -50q-26 -48 -66.5 -78.5t-98.5 -30.5z" />
    <glyph glyph-name="Uhungarumlaut" unicode="&#x170;" horiz-adv-x="686" 
d="M343 -14q-67 0 -117 20t-83.5 56t-50 85t-16.5 107v426h135v-418q0 -36 7 -65.5t22.5 -50.5t41 -32.5t61.5 -11.5t61.5 11.5t41 32.5t22.5 50.5t7 65.5v418h135v-426q0 -58 -16.5 -107t-50 -85t-83.5 -56t-117 -20zM187 754v3l84 151h125v-3l-104 -151h-105zM379 754v3
l90 151h128v-3l-113 -151h-105z" />
    <glyph glyph-name="Umacron" unicode="&#x16a;" horiz-adv-x="686" 
d="M343 -14q-67 0 -117 20t-83.5 56t-50 85t-16.5 107v426h135v-418q0 -36 7 -65.5t22.5 -50.5t41 -32.5t61.5 -11.5t61.5 11.5t41 32.5t22.5 50.5t7 65.5v418h135v-426q0 -58 -16.5 -107t-50 -85t-83.5 -56t-117 -20zM505 866v-90h-324v90h324z" />
    <glyph glyph-name="Uogonek" unicode="&#x172;" horiz-adv-x="686" 
d="M281 -99q0 49 42 86q-62 3 -108.5 24t-77.5 56.5t-46 83t-15 103.5v426h135v-418q0 -36 7 -65.5t22.5 -50.5t41 -32.5t61.5 -11.5t61.5 11.5t41 32.5t22.5 50.5t7 65.5v418h135v-426q0 -85 -35 -149t-106 -95q-36 -21 -55.5 -44t-19.5 -46q0 -13 8 -24t29 -11
q13 0 22.5 3t20.5 9l36 -72q-34 -25 -98 -25q-60 0 -95.5 28t-35.5 73z" />
    <glyph glyph-name="Uring" unicode="&#x16e;" horiz-adv-x="686" 
d="M343 -14q-67 0 -117 20t-83.5 56t-50 85t-16.5 107v426h135v-418q0 -36 7 -65.5t22.5 -50.5t41 -32.5t61.5 -11.5t61.5 11.5t41 32.5t22.5 50.5t7 65.5v418h135v-426q0 -58 -16.5 -107t-50 -85t-83.5 -56t-117 -20zM228 851q0 23 9 42.5t25 33.5t36.5 22t43.5 8t43.5 -8
t36 -22t24.5 -33.5t9 -42.5t-9 -42.5t-24.5 -33.5t-36 -22t-43.5 -8t-43.5 8t-36.5 22t-25 33.5t-9 42.5zM300 851q0 -18 11.5 -30t30.5 -12q18 0 29.5 12t11.5 30q0 19 -11.5 30.5t-29.5 11.5q-19 0 -30.5 -11.5t-11.5 -30.5z" />
    <glyph glyph-name="Utilde" horiz-adv-x="686" 
d="M343 -14q-67 0 -117 20t-83.5 56t-50 85t-16.5 107v426h135v-418q0 -36 7 -65.5t22.5 -50.5t41 -32.5t61.5 -11.5t61.5 11.5t41 32.5t22.5 50.5t7 65.5v418h135v-426q0 -58 -16.5 -107t-50 -85t-83.5 -56t-117 -20zM290 805q-15 0 -23.5 -14.5t-14.5 -37.5l-84 27
q31 121 123 121q24 0 41.5 -8t31 -18t24 -18t21.5 -8q16 0 25 14.5t15 37.5l83 -27q-29 -121 -123 -121q-24 0 -42 8t-31.5 18t-24.5 18t-21 8z" />
    <glyph glyph-name="Wacute" unicode="&#x1e82;" horiz-adv-x="937" 
d="M7 680h138l96 -409q9 -40 15.5 -76t6.5 -48h4q0 12 7 47.5t17 76.5l107 409h141l107 -409q10 -41 17 -76.5t7 -47.5h4q0 12 6.5 48t15.5 76l96 409h138l-177 -680h-151l-108 423q-10 40 -16.5 75t-6.5 47h-4q-1 -12 -7.5 -47t-16.5 -75l-108 -423h-151zM403 754v3l90 151
h138v-3l-123 -151h-105z" />
    <glyph glyph-name="Wcircumflex" unicode="&#x174;" horiz-adv-x="937" 
d="M7 680h138l96 -409q9 -40 15.5 -76t6.5 -48h4q0 12 7 47.5t17 76.5l107 409h141l107 -409q10 -41 17 -76.5t7 -47.5h4q0 12 6.5 48t15.5 76l96 409h138l-177 -680h-151l-108 423q-10 40 -16.5 75t-6.5 47h-4q-1 -12 -7.5 -47t-16.5 -75l-108 -423h-151zM525 908l121 -151
v-3h-108l-70 70l-68 -70h-108v3l122 151h111z" />
    <glyph glyph-name="Wdieresis" unicode="&#x1e84;" horiz-adv-x="937" 
d="M7 680h138l96 -409q9 -40 15.5 -76t6.5 -48h4q0 12 7 47.5t17 76.5l107 409h141l107 -409q10 -41 17 -76.5t7 -47.5h4q0 12 6.5 48t15.5 76l96 409h138l-177 -680h-151l-108 423q-10 40 -16.5 75t-6.5 47h-4q-1 -12 -7.5 -47t-16.5 -75l-108 -423h-151zM297 894h133v-125
h-133v125zM508 894h132v-125h-132v125z" />
    <glyph glyph-name="Wgrave" unicode="&#x1e80;" horiz-adv-x="937" 
d="M7 680h138l96 -409q9 -40 15.5 -76t6.5 -48h4q0 12 7 47.5t17 76.5l107 409h141l107 -409q10 -41 17 -76.5t7 -47.5h4q0 12 6.5 48t15.5 76l96 409h138l-177 -680h-151l-108 423q-10 40 -16.5 75t-6.5 47h-4q-1 -12 -7.5 -47t-16.5 -75l-108 -423h-151zM307 905v3h138
l90 -151v-3h-105z" />
    <glyph glyph-name="Ycircumflex" unicode="&#x176;" horiz-adv-x="597" 
d="M231 0v293l-230 384v3h152l145 -263l146 263h152v-3l-230 -383v-294h-135zM356 908l121 -151v-3h-108l-70 70l-68 -70h-108v3l122 151h111z" />
    <glyph glyph-name="Ydieresis" unicode="&#x178;" horiz-adv-x="597" 
d="M231 0v293l-230 384v3h152l145 -263l146 263h152v-3l-230 -383v-294h-135zM128 894h133v-125h-133v125zM339 894h132v-125h-132v125z" />
    <glyph glyph-name="Ygrave" horiz-adv-x="597" 
d="M231 0v293l-230 384v3h152l145 -263l146 263h152v-3l-230 -383v-294h-135zM138 905v3h138l90 -151v-3h-105z" />
    <glyph glyph-name="Zacute" unicode="&#x179;" horiz-adv-x="553" 
d="M35 0v94l304 476h-290v110h460v-94l-307 -476h312v-110h-479zM213 754v3l90 151h138v-3l-123 -151h-105z" />
    <glyph glyph-name="Zcaron" unicode="&#x17d;" horiz-adv-x="553" 
d="M35 0v94l304 476h-290v110h460v-94l-307 -476h312v-110h-479zM223 754l-121 151v3h108l69 -70l69 70h108v-3l-122 -151h-111z" />
    <glyph glyph-name="Zdotaccent" unicode="&#x17b;" horiz-adv-x="553" 
d="M35 0v94l304 476h-290v110h460v-94l-307 -476h312v-110h-479zM207 884h144v-126h-144v126z" />
    <glyph glyph-name="uni1E9E" unicode="&#x1e9e;" horiz-adv-x="697" 
d="M457 398q46 -3 84.5 -17.5t65.5 -40t42 -60.5t15 -78q0 -47 -17 -87t-47.5 -68.5t-72.5 -44.5t-92 -16q-35 0 -63.5 7t-51 19t-39.5 27.5t-30 32.5l82 80q15 -23 36.5 -38.5t58.5 -15.5q47 0 71.5 28.5t24.5 66.5q0 17 -5 34t-17 31t-32 22.5t-50 8.5h-110v94l113 187
h-107q-57 0 -80.5 -36t-23.5 -96v-438h-135v446q0 51 15 93.5t44.5 74t74.5 49t105 17.5h260v-94z" />
    <glyph glyph-name="abreve" horiz-adv-x="541" 
d="M219 -14q-44 0 -78.5 12t-58.5 34t-37 52.5t-13 67.5t13 67.5t37 52.5t58.5 34t78.5 12q74 0 128 -43v32q0 46 -24 78.5t-78 32.5q-43 0 -72 -17t-44 -36l-68 83q23 30 71.5 54.5t115.5 24.5q57 0 100 -15.5t72 -43.5t44 -66t15 -84v-318h-124v36q-55 -50 -136 -50z
M250 80q33 0 58 13.5t39 33.5v50q-14 20 -39 33.5t-58 13.5q-46 0 -65.5 -22t-19.5 -50t19.5 -50t65.5 -22zM265 584q-58 0 -98.5 30.5t-66.5 78.5l71 50q39 -63 94 -63t94 63l71 -50q-26 -48 -66.5 -78.5t-98.5 -30.5z" />
    <glyph glyph-name="amacron" unicode="&#x101;" horiz-adv-x="541" 
d="M219 -14q-44 0 -78.5 12t-58.5 34t-37 52.5t-13 67.5t13 67.5t37 52.5t58.5 34t78.5 12q74 0 128 -43v32q0 46 -24 78.5t-78 32.5q-43 0 -72 -17t-44 -36l-68 83q23 30 71.5 54.5t115.5 24.5q57 0 100 -15.5t72 -43.5t44 -66t15 -84v-318h-124v36q-55 -50 -136 -50z
M250 80q33 0 58 13.5t39 33.5v50q-14 20 -39 33.5t-58 13.5q-46 0 -65.5 -22t-19.5 -50t19.5 -50t65.5 -22zM427 705v-90h-324v90h324z" />
    <glyph glyph-name="aogonek" unicode="&#x105;" horiz-adv-x="541" 
d="M219 -14q-44 0 -78.5 12t-58.5 34t-37 52.5t-13 67.5t13 67.5t37 52.5t58.5 34t78.5 12q74 0 128 -43v32q0 46 -24 78.5t-78 32.5q-43 0 -72 -17t-44 -36l-68 83q23 30 71.5 54.5t115.5 24.5q57 0 100 -15.5t72 -43.5t44 -66t15 -84v-318h-124v36q-55 -50 -136 -50z
M250 80q33 0 58 13.5t39 33.5v50q-14 20 -39 33.5t-58 13.5q-46 0 -65.5 -22t-19.5 -50t19.5 -50t65.5 -22zM476 0q-43 -17 -66 -36t-23 -44q0 -12 7.5 -21.5t27.5 -9.5q22 0 42 13l31 -65q-32 -24 -89 -24q-54 0 -86 27t-32 70q0 37 23.5 67t67.5 52z" />
    <glyph glyph-name="cacute" unicode="&#x107;" horiz-adv-x="526" 
d="M39 257q0 62 17.5 112t50 85.5t79 54.5t105.5 19q33 0 64 -8.5t58.5 -26t49 -44t34.5 -62.5l-100 -47q-14 35 -41 57t-65 22q-30 0 -52 -12t-37 -33.5t-22 -51.5t-7 -65t7 -65t22 -51.5t37 -33.5t52 -12q38 0 65 22t41 57l100 -47q-13 -36 -34.5 -62.5t-49 -44t-58.5 -26
t-64 -8.5q-59 0 -105.5 19t-79 54.5t-50 85.5t-17.5 112zM228 593v3l90 151h138v-3l-123 -151h-105z" />
    <glyph glyph-name="ccaron" unicode="&#x10d;" horiz-adv-x="526" 
d="M39 257q0 62 17.5 112t50 85.5t79 54.5t105.5 19q33 0 64 -8.5t58.5 -26t49 -44t34.5 -62.5l-100 -47q-14 35 -41 57t-65 22q-30 0 -52 -12t-37 -33.5t-22 -51.5t-7 -65t7 -65t22 -51.5t37 -33.5t52 -12q38 0 65 22t41 57l100 -47q-13 -36 -34.5 -62.5t-49 -44t-58.5 -26
t-64 -8.5q-59 0 -105.5 19t-79 54.5t-50 85.5t-17.5 112zM239 593l-121 151v3h108l69 -70l69 70h108v-3l-122 -151h-111z" />
    <glyph glyph-name="ccircumflex" unicode="&#x109;" horiz-adv-x="526" 
d="M39 257q0 62 17.5 112t50 85.5t79 54.5t105.5 19q33 0 64 -8.5t58.5 -26t49 -44t34.5 -62.5l-100 -47q-14 35 -41 57t-65 22q-30 0 -52 -12t-37 -33.5t-22 -51.5t-7 -65t7 -65t22 -51.5t37 -33.5t52 -12q38 0 65 22t41 57l100 -47q-13 -36 -34.5 -62.5t-49 -44t-58.5 -26
t-64 -8.5q-59 0 -105.5 19t-79 54.5t-50 85.5t-17.5 112zM351 747l121 -151v-3h-108l-70 70l-68 -70h-108v3l122 151h111z" />
    <glyph glyph-name="cdotaccent" unicode="&#x10b;" horiz-adv-x="526" 
d="M39 257q0 62 17.5 112t50 85.5t79 54.5t105.5 19q33 0 64 -8.5t58.5 -26t49 -44t34.5 -62.5l-100 -47q-14 35 -41 57t-65 22q-30 0 -52 -12t-37 -33.5t-22 -51.5t-7 -65t7 -65t22 -51.5t37 -33.5t52 -12q38 0 65 22t41 57l100 -47q-13 -36 -34.5 -62.5t-49 -44t-58.5 -26
t-64 -8.5q-59 0 -105.5 19t-79 54.5t-50 85.5t-17.5 112zM223 723h144v-126h-144v126z" />
    <glyph glyph-name="dcaron" unicode="&#x10f;" horiz-adv-x="695" 
d="M609 479v231h117l-33 -231h-84zM411 61q-25 -34 -61.5 -54.5t-81.5 -20.5q-49 0 -91 18.5t-72.5 53.5t-48 85t-17.5 114t17.5 114t48 85t72.5 53.5t91 18.5q43 0 78 -18.5t60 -49.5v250h132v-710h-127v61zM297 95q33 0 63 20.5t46 57.5v168q-16 37 -46 57.5t-63 20.5
q-53 0 -88.5 -39t-35.5 -123t35.5 -123t88.5 -39z" />
    <glyph glyph-name="glyph267" horiz-adv-x="606" 
d="M411 61q-25 -34 -61.5 -54.5t-81.5 -20.5q-49 0 -91 18t-72.5 52.5t-48 83.5t-17.5 112q0 62 17.5 111.5t48 83.5t72.5 52t91 18q43 0 78 -18.5t60 -49.5v112h-111v86h111v63h132v-63h63v-86h-63v-561h-127v61zM297 95q33 0 63 20.5t46 57.5v158q-16 36 -46 56.5
t-63 20.5q-53 0 -88.5 -37.5t-35.5 -118.5q0 -41 9.5 -70.5t26 -49t39.5 -28.5t49 -9z" />
    <glyph glyph-name="ebreve" unicode="&#x115;" horiz-adv-x="555" 
d="M290 -14q-56 0 -102 19t-79.5 54t-52 84.5t-18.5 111.5q0 65 20 115.5t54.5 85.5t79 53t94.5 18q51 0 94.5 -19t74.5 -52.5t48.5 -80t17.5 -101.5q0 -12 -1 -27t-3 -26h-349q8 -57 40 -92.5t92 -35.5q45 0 75.5 19t51.5 53l82 -68q-44 -58 -97 -84.5t-122 -26.5zM286 424
q-47 0 -76.5 -28t-39.5 -85h224q-6 58 -34.5 85.5t-73.5 27.5zM290 584q-58 0 -98.5 30.5t-66.5 78.5l71 50q39 -63 94 -63t94 63l71 -50q-26 -48 -66.5 -78.5t-98.5 -30.5z" />
    <glyph glyph-name="ecaron" unicode="&#x11b;" horiz-adv-x="555" 
d="M290 -14q-56 0 -102 19t-79.5 54t-52 84.5t-18.5 111.5q0 65 20 115.5t54.5 85.5t79 53t94.5 18q51 0 94.5 -19t74.5 -52.5t48.5 -80t17.5 -101.5q0 -12 -1 -27t-3 -26h-349q8 -57 40 -92.5t92 -35.5q45 0 75.5 19t51.5 53l82 -68q-44 -58 -97 -84.5t-122 -26.5zM286 424
q-47 0 -76.5 -28t-39.5 -85h224q-6 58 -34.5 85.5t-73.5 27.5zM234 593l-121 151v3h108l69 -70l69 70h108v-3l-122 -151h-111z" />
    <glyph glyph-name="emacron" unicode="&#x113;" horiz-adv-x="555" 
d="M290 -14q-56 0 -102 19t-79.5 54t-52 84.5t-18.5 111.5q0 65 20 115.5t54.5 85.5t79 53t94.5 18q51 0 94.5 -19t74.5 -52.5t48.5 -80t17.5 -101.5q0 -12 -1 -27t-3 -26h-349q8 -57 40 -92.5t92 -35.5q45 0 75.5 19t51.5 53l82 -68q-44 -58 -97 -84.5t-122 -26.5zM286 424
q-47 0 -76.5 -28t-39.5 -85h224q-6 58 -34.5 85.5t-73.5 27.5zM451 705v-90h-324v90h324z" />
    <glyph glyph-name="eogonek" unicode="&#x119;" horiz-adv-x="555" 
d="M245 -99q0 48 37 85q-54 1 -99 21t-77 55t-50 84t-18 109q0 65 20 115.5t54.5 85.5t79 53t94.5 18q51 0 94.5 -19t74.5 -52.5t48.5 -80t17.5 -101.5q0 -12 -1 -27t-3 -26h-349q8 -57 40 -92.5t92 -35.5q45 0 75.5 19t51.5 53l82 -68q-45 -59 -98 -85q-32 -20 -49.5 -43
t-17.5 -45q0 -14 7.5 -24.5t29.5 -10.5q21 0 40 13l31 -65q-32 -24 -89 -24q-54 0 -86 24.5t-32 63.5zM286 424q-47 0 -76.5 -28t-39.5 -85h224q-6 58 -34.5 85.5t-73.5 27.5z" />
    <glyph glyph-name="edotaccent" unicode="&#x117;" horiz-adv-x="555" 
d="M290 -14q-56 0 -102 19t-79.5 54t-52 84.5t-18.5 111.5q0 65 20 115.5t54.5 85.5t79 53t94.5 18q51 0 94.5 -19t74.5 -52.5t48.5 -80t17.5 -101.5q0 -12 -1 -27t-3 -26h-349q8 -57 40 -92.5t92 -35.5q45 0 75.5 19t51.5 53l82 -68q-44 -58 -97 -84.5t-122 -26.5zM286 424
q-47 0 -76.5 -28t-39.5 -85h224q-6 58 -34.5 85.5t-73.5 27.5zM218 723h144v-126h-144v126z" />
    <glyph glyph-name="gbreve" unicode="&#x11f;" horiz-adv-x="590" 
d="M253 35q-46 0 -85 17t-67.5 48.5t-45 77t-16.5 103.5t16.5 103.5t45 77t67.5 48.5t85 17q45 0 81.5 -20.5t61.5 -54.5v61h127v-449q0 -64 -21.5 -111t-56.5 -78t-81 -46.5t-95 -15.5q-45 0 -80 9.5t-62 26t-46 39t-31 47.5l90 59q22 -35 49.5 -55.5t75.5 -20.5
q22 0 44.5 7.5t40.5 24t29.5 42.5t11.5 63v47q-25 -30 -60 -48.5t-78 -18.5zM282 144q33 0 63 19.5t46 55.5v123q-16 36 -46 56t-63 20q-47 0 -79.5 -33.5t-32.5 -103.5q0 -71 32.5 -104t79.5 -33zM302 584q-58 0 -98.5 30.5t-66.5 78.5l71 50q39 -63 94 -63t94 63l71 -50
q-26 -48 -66.5 -78.5t-98.5 -30.5z" />
    <glyph glyph-name="gcircumflex" unicode="&#x11d;" horiz-adv-x="590" 
d="M253 35q-46 0 -85 17t-67.5 48.5t-45 77t-16.5 103.5t16.5 103.5t45 77t67.5 48.5t85 17q45 0 81.5 -20.5t61.5 -54.5v61h127v-449q0 -64 -21.5 -111t-56.5 -78t-81 -46.5t-95 -15.5q-45 0 -80 9.5t-62 26t-46 39t-31 47.5l90 59q22 -35 49.5 -55.5t75.5 -20.5
q22 0 44.5 7.5t40.5 24t29.5 42.5t11.5 63v47q-25 -30 -60 -48.5t-78 -18.5zM282 144q33 0 63 19.5t46 55.5v123q-16 36 -46 56t-63 20q-47 0 -79.5 -33.5t-32.5 -103.5q0 -71 32.5 -104t79.5 -33zM358 747l121 -151v-3h-108l-70 70l-68 -70h-108v3l122 151h111z" />
    <glyph glyph-name="gcommaaccent" unicode="&#x123;" horiz-adv-x="590" 
d="M253 35q-46 0 -85 17t-67.5 48.5t-45 77t-16.5 103.5t16.5 103.5t45 77t67.5 48.5t85 17q45 0 81.5 -20.5t61.5 -54.5v61h127v-449q0 -64 -21.5 -111t-56.5 -78t-81 -46.5t-95 -15.5q-45 0 -80 9.5t-62 26t-46 39t-31 47.5l90 59q22 -35 49.5 -55.5t75.5 -20.5
q22 0 44.5 7.5t40.5 24t29.5 42.5t11.5 63v47q-25 -30 -60 -48.5t-78 -18.5zM282 144q33 0 63 19.5t46 55.5v123q-16 36 -46 56t-63 20q-47 0 -79.5 -33.5t-32.5 -103.5q0 -71 32.5 -104t79.5 -33zM235 666l57 115h73l-50 -95h54v-103h-134v83z" />
    <glyph glyph-name="gdotaccent" unicode="&#x121;" horiz-adv-x="590" 
d="M253 35q-46 0 -85 17t-67.5 48.5t-45 77t-16.5 103.5t16.5 103.5t45 77t67.5 48.5t85 17q45 0 81.5 -20.5t61.5 -54.5v61h127v-449q0 -64 -21.5 -111t-56.5 -78t-81 -46.5t-95 -15.5q-45 0 -80 9.5t-62 26t-46 39t-31 47.5l90 59q22 -35 49.5 -55.5t75.5 -20.5
q22 0 44.5 7.5t40.5 24t29.5 42.5t11.5 63v47q-25 -30 -60 -48.5t-78 -18.5zM282 144q33 0 63 19.5t46 55.5v123q-16 36 -46 56t-63 20q-47 0 -79.5 -33.5t-32.5 -103.5q0 -71 32.5 -104t79.5 -33zM230 723h144v-126h-144v126z" />
    <glyph glyph-name="hbar" unicode="&#x127;" horiz-adv-x="589" 
d="M311 561h-111v-108q24 28 59 46t83 18t83 -15t57.5 -41.5t33 -64t10.5 -82.5v-314h-132v297q0 55 -26 83t-68 28q-36 0 -61 -21.5t-39 -53.5v-333h-132v561h-63v86h63v63h132v-63h111v-86z" />
    <glyph glyph-name="hcircumflex" unicode="&#x125;" horiz-adv-x="589" 
d="M68 710h132v-247q24 28 59 46t83 18t83 -15t57.5 -41.5t33 -64t10.5 -82.5v-324h-132v307q0 55 -26 83t-68 28q-36 0 -61 -21.5t-39 -53.5v-343h-132v710zM355 921l121 -151v-3h-108l-70 70l-68 -70h-108v3l122 151h111z" />
    <glyph glyph-name="dotlessi" unicode="&#x131;" horiz-adv-x="268" 
d="M68 513h132v-513h-132v513z" />
    <glyph glyph-name="ibreve" unicode="&#x12d;" horiz-adv-x="268" 
d="M68 513h132v-513h-132v513zM135 584q-58 0 -98.5 30.5t-66.5 78.5l71 50q39 -63 94 -63t94 63l71 -50q-26 -48 -66.5 -78.5t-98.5 -30.5z" />
    <glyph glyph-name="imacron" unicode="&#x12b;" horiz-adv-x="268" 
d="M68 513h132v-513h-132v513zM297 705v-90h-324v90h324z" />
    <glyph glyph-name="iogonek" unicode="&#x12f;" horiz-adv-x="268" 
d="M201 0q-38 -17 -58 -35t-20 -42q0 -14 7.5 -24t27.5 -10q22 0 42 13l31 -65q-32 -24 -89 -24q-54 0 -86 27t-32 70q0 32 15.5 57t44.5 45zM68 513h132v-513h-132v513zM62 723h144v-126h-144v126z" />
    <glyph glyph-name="itilde" horiz-adv-x="268" 
d="M68 513h132v-513h-132v513zM82 644q-15 0 -23.5 -14.5t-14.5 -37.5l-84 27q31 121 123 121q24 0 41.5 -8t31 -18t24 -18t21.5 -8q16 0 25 14.5t15 37.5l83 -27q-29 -121 -123 -121q-24 0 -42 8t-31.5 18t-24.5 18t-21 8z" />
    <glyph glyph-name="uni0237" unicode="&#x237;" horiz-adv-x="267" 
d="M200 42q0 -45 -10 -81t-27.5 -64.5t-40.5 -50t-50 -37.5l-78 85q16 15 30 30t23.5 33t15 40.5t5.5 51.5v464h132v-471z" />
    <glyph glyph-name="jcircumflex" unicode="&#x135;" horiz-adv-x="267" 
d="M200 42q0 -45 -10 -81t-27.5 -64.5t-40.5 -50t-50 -37.5l-78 85q16 15 30 30t23.5 33t15 40.5t5.5 51.5v464h132v-471zM191 747l121 -151v-3h-108l-70 70l-68 -70h-108v3l122 151h111z" />
    <glyph glyph-name="kcommaaccent" unicode="&#x137;" horiz-adv-x="531" 
d="M384 0l-127 205l-57 -68v-137h-132v710h132v-399l164 202h150v-4l-176 -208l197 -298v-3h-151zM350 -156l-57 -115h-73l50 95h-54v103h134v-83z" />
    <glyph glyph-name="lacute" unicode="&#x13a;" horiz-adv-x="268" 
d="M68 710h132v-710h-132v710zM68 767v3l90 151h138v-3l-123 -151h-105z" />
    <glyph glyph-name="lcaron" unicode="&#x13e;" horiz-adv-x="350" 
d="M68 710h132v-710h-132v710zM263 479v231h117l-33 -231h-84z" />
    <glyph glyph-name="lcommaaccent" unicode="&#x13c;" horiz-adv-x="268" 
d="M68 710h132v-710h-132v710zM202 -156l-57 -115h-73l50 95h-54v103h134v-83z" />
    <glyph glyph-name="ldot" unicode="&#x140;" horiz-adv-x="411" 
d="M68 710h132v-710h-132v710zM249 418h144v-126h-144v126z" />
    <glyph glyph-name="lslash" unicode="&#x142;" horiz-adv-x="339" 
d="M319 388l-84 -38v-350h-132v303l-82 -37v96l82 37v311h132v-264l84 38v-96z" />
    <glyph glyph-name="eng" unicode="&#x14b;" horiz-adv-x="589" 
d="M68 513h127v-56q24 30 60.5 50t86.5 20q48 0 83 -15t57.5 -41.5t33 -64t10.5 -82.5v-282q0 -45 -10 -81t-27.5 -64.5t-40.5 -50t-50 -37.5l-78 85q16 15 30 30t23.5 33t15 40.5t5.5 51.5v258q0 55 -26 83t-68 28q-36 0 -61 -21.5t-39 -53.5v-343h-132v513z" />
    <glyph glyph-name="nacute" unicode="&#x144;" horiz-adv-x="589" 
d="M68 513h127v-56q24 30 60.5 50t86.5 20q48 0 83 -15t57.5 -41.5t33 -64t10.5 -82.5v-324h-132v307q0 55 -26 83t-68 28q-36 0 -61 -21.5t-39 -53.5v-343h-132v513zM236 593v3l90 151h138v-3l-123 -151h-105z" />
    <glyph glyph-name="ncaron" unicode="&#x148;" horiz-adv-x="589" 
d="M68 513h127v-56q24 30 60.5 50t86.5 20q48 0 83 -15t57.5 -41.5t33 -64t10.5 -82.5v-324h-132v307q0 55 -26 83t-68 28q-36 0 -61 -21.5t-39 -53.5v-343h-132v513zM247 593l-121 151v3h108l69 -70l69 70h108v-3l-122 -151h-111z" />
    <glyph glyph-name="ncommaaccent" unicode="&#x146;" horiz-adv-x="589" 
d="M68 513h127v-56q24 30 60.5 50t86.5 20q48 0 83 -15t57.5 -41.5t33 -64t10.5 -82.5v-324h-132v307q0 55 -26 83t-68 28q-36 0 -61 -21.5t-39 -53.5v-343h-132v513zM365 -156l-57 -115h-73l50 95h-54v103h134v-83z" />
    <glyph glyph-name="oe" unicode="&#x153;" horiz-adv-x="921" 
d="M656 -14q-59 0 -105.5 22t-78.5 63q-30 -40 -75.5 -62.5t-103.5 -22.5q-59 0 -106 20t-80 56t-51 86t-18 109t18 108.5t51 85.5t80 56t106 20t104.5 -23t75.5 -64q33 43 79 65t100 22q51 0 94.5 -19t74.5 -52.5t48.5 -80t17.5 -101.5q0 -12 -1 -27t-3 -26h-349
q8 -57 40 -92.5t92 -35.5q45 0 75.5 19t51.5 53l82 -68q-44 -58 -97 -84.5t-122 -26.5zM293 95q31 0 53.5 12t37.5 34t22.5 51.5t7.5 64.5t-7.5 64.5t-22.5 51t-37.5 33.5t-53.5 12t-53.5 -12t-37.5 -33.5t-22.5 -51t-7.5 -64.5t7.5 -64.5t22.5 -51.5t37.5 -34t53.5 -12z
M652 424q-47 0 -76.5 -28t-39.5 -85h224q-6 58 -34.5 85.5t-73.5 27.5z" />
    <glyph glyph-name="obreve" unicode="&#x14f;" horiz-adv-x="586" 
d="M293 95q31 0 53.5 12t37.5 34t22.5 51.5t7.5 64.5t-7.5 64.5t-22.5 51t-37.5 33.5t-53.5 12t-53.5 -12t-37.5 -33.5t-22.5 -51t-7.5 -64.5t7.5 -64.5t22.5 -51.5t37.5 -34t53.5 -12zM293 527q58 0 105.5 -20t80.5 -56t51 -85.5t18 -108.5t-18 -109t-51 -86t-80.5 -56
t-105.5 -20q-59 0 -106 20t-80 56t-51 86t-18 109t18 108.5t51 85.5t80 56t106 20zM294 584q-58 0 -98.5 30.5t-66.5 78.5l71 50q39 -63 94 -63t94 63l71 -50q-26 -48 -66.5 -78.5t-98.5 -30.5z" />
    <glyph glyph-name="ohungarumlaut" unicode="&#x151;" horiz-adv-x="586" 
d="M293 95q31 0 53.5 12t37.5 34t22.5 51.5t7.5 64.5t-7.5 64.5t-22.5 51t-37.5 33.5t-53.5 12t-53.5 -12t-37.5 -33.5t-22.5 -51t-7.5 -64.5t7.5 -64.5t22.5 -51.5t37.5 -34t53.5 -12zM293 527q58 0 105.5 -20t80.5 -56t51 -85.5t18 -108.5t-18 -109t-51 -86t-80.5 -56
t-105.5 -20q-59 0 -106 20t-80 56t-51 86t-18 109t18 108.5t51 85.5t80 56t106 20zM137 593v3l84 151h125v-3l-104 -151h-105zM329 593v3l90 151h128v-3l-113 -151h-105z" />
    <glyph glyph-name="omacron" unicode="&#x14d;" horiz-adv-x="586" 
d="M293 95q31 0 53.5 12t37.5 34t22.5 51.5t7.5 64.5t-7.5 64.5t-22.5 51t-37.5 33.5t-53.5 12t-53.5 -12t-37.5 -33.5t-22.5 -51t-7.5 -64.5t7.5 -64.5t22.5 -51.5t37.5 -34t53.5 -12zM293 527q58 0 105.5 -20t80.5 -56t51 -85.5t18 -108.5t-18 -109t-51 -86t-80.5 -56
t-105.5 -20q-59 0 -106 20t-80 56t-51 86t-18 109t18 108.5t51 85.5t80 56t106 20zM455 705v-90h-324v90h324z" />
    <glyph glyph-name="racute" unicode="&#x155;" horiz-adv-x="382" 
d="M68 0v513h126v-75q20 40 56 64.5t81 24.5q10 0 18 -0.5t16 -1.5v-124h-29q-44 0 -80.5 -17t-55.5 -64v-320h-132zM158 593v3l90 151h138v-3l-123 -151h-105z" />
    <glyph glyph-name="rcaron" unicode="&#x159;" horiz-adv-x="382" 
d="M68 0v513h126v-75q20 40 56 64.5t81 24.5q10 0 18 -0.5t16 -1.5v-124h-29q-44 0 -80.5 -17t-55.5 -64v-320h-132zM168 593l-121 151v3h108l69 -70l69 70h108v-3l-122 -151h-111z" />
    <glyph glyph-name="rcommaaccent" unicode="&#x157;" horiz-adv-x="382" 
d="M68 0v513h126v-75q20 40 56 64.5t81 24.5q10 0 18 -0.5t16 -1.5v-124h-29q-44 0 -80.5 -17t-55.5 -64v-320h-132zM202 -156l-57 -115h-73l50 95h-54v103h134v-83z" />
    <glyph glyph-name="sacute" unicode="&#x15b;" horiz-adv-x="462" 
d="M327 373q-20 24 -40.5 37.5t-48.5 13.5q-23 0 -38.5 -14t-15.5 -34q0 -19 10.5 -31t37.5 -19l38 -9q81 -19 120.5 -57t39.5 -109q0 -34 -14.5 -64t-41 -52.5t-64.5 -35.5t-85 -13q-67 0 -118 28.5t-86 77.5l79 74q26 -41 58.5 -59t71.5 -18q31 0 51 14.5t20 39.5
t-16.5 38t-54.5 22l-39 9q-66 15 -101 53.5t-35 102.5q0 32 12 61t35.5 50.5t58 34.5t79.5 13q59 0 100.5 -24t67.5 -60zM173 593v3l90 151h138v-3l-123 -151h-105z" />
    <glyph glyph-name="scaron" unicode="&#x161;" horiz-adv-x="462" 
d="M327 373q-20 24 -40.5 37.5t-48.5 13.5q-23 0 -38.5 -14t-15.5 -34q0 -19 10.5 -31t37.5 -19l38 -9q81 -19 120.5 -57t39.5 -109q0 -34 -14.5 -64t-41 -52.5t-64.5 -35.5t-85 -13q-67 0 -118 28.5t-86 77.5l79 74q26 -41 58.5 -59t71.5 -18q31 0 51 14.5t20 39.5
t-16.5 38t-54.5 22l-39 9q-66 15 -101 53.5t-35 102.5q0 32 12 61t35.5 50.5t58 34.5t79.5 13q59 0 100.5 -24t67.5 -60zM183 593l-121 151v3h108l69 -70l69 70h108v-3l-122 -151h-111z" />
    <glyph glyph-name="scedilla" unicode="&#x15f;" horiz-adv-x="462" 
d="M327 373q-20 24 -40.5 37.5t-48.5 13.5q-23 0 -38.5 -14t-15.5 -34q0 -19 10.5 -31t37.5 -19l38 -9q81 -19 120.5 -57t39.5 -109q0 -34 -14.5 -64t-41 -52.5t-64.5 -35.5t-85 -13q-67 0 -118 28.5t-86 77.5l79 74q26 -41 58.5 -59t71.5 -18q31 0 51 14.5t20 39.5
t-16.5 38t-54.5 22l-39 9q-66 15 -101 53.5t-35 102.5q0 32 12 61t35.5 50.5t58 34.5t79.5 13q59 0 100.5 -24t67.5 -60zM247 13q44 -20 67.5 -48t23.5 -62q0 -40 -32 -65t-86 -25q-57 0 -89 24l31 65q20 -13 42 -13q20 0 27.5 9.5t7.5 21.5q0 25 -23 44t-66 36z" />
    <glyph glyph-name="scircumflex" unicode="&#x15d;" horiz-adv-x="462" 
d="M327 373q-20 24 -40.5 37.5t-48.5 13.5q-23 0 -38.5 -14t-15.5 -34q0 -19 10.5 -31t37.5 -19l38 -9q81 -19 120.5 -57t39.5 -109q0 -34 -14.5 -64t-41 -52.5t-64.5 -35.5t-85 -13q-67 0 -118 28.5t-86 77.5l79 74q26 -41 58.5 -59t71.5 -18q31 0 51 14.5t20 39.5
t-16.5 38t-54.5 22l-39 9q-66 15 -101 53.5t-35 102.5q0 32 12 61t35.5 50.5t58 34.5t79.5 13q59 0 100.5 -24t67.5 -60zM295 747l121 -151v-3h-108l-70 70l-68 -70h-108v3l122 151h111z" />
    <glyph glyph-name="scommaaccent" unicode="&#x219;" horiz-adv-x="462" 
d="M327 373q-20 24 -40.5 37.5t-48.5 13.5q-23 0 -38.5 -14t-15.5 -34q0 -19 10.5 -31t37.5 -19l38 -9q81 -19 120.5 -57t39.5 -109q0 -34 -14.5 -64t-41 -52.5t-64.5 -35.5t-85 -13q-67 0 -118 28.5t-86 77.5l79 74q26 -41 58.5 -59t71.5 -18q31 0 51 14.5t20 39.5
t-16.5 38t-54.5 22l-39 9q-66 15 -101 53.5t-35 102.5q0 32 12 61t35.5 50.5t58 34.5t79.5 13q59 0 100.5 -24t67.5 -60zM296 -156l-57 -115h-73l50 95h-54v103h134v-83z" />
    <glyph glyph-name="tbar" unicode="&#x167;" horiz-adv-x="379" 
d="M236 415v-94h96v-88h-96v-48q0 -45 18.5 -63.5t61.5 -18.5h32v-103q-16 -2 -35.5 -4t-37.5 -2q-85 0 -128 44.5t-43 142.5v52h-72v88h72v94h-84v98h88v131h128v-131h112v-98h-112z" />
    <glyph glyph-name="tcaron" unicode="&#x165;" horiz-adv-x="375" 
d="M273 -6q-85 0 -128 44.5t-43 142.5v234h-84v98h88v131h128v-131h112v-98h-112v-230q0 -45 18.5 -63.5t61.5 -18.5h32v-103q-16 -2 -35.5 -4t-37.5 -2zM288 555v231h117l-33 -231h-84z" />
    <glyph glyph-name="uni0163" unicode="&#x163;" horiz-adv-x="375" 
d="M273 -6q-85 0 -128 44.5t-43 142.5v234h-84v98h88v131h128v-131h112v-98h-112v-230q0 -45 18.5 -63.5t61.5 -18.5h32v-103q-16 -2 -35.5 -4t-37.5 -2zM297 -156l-57 -115h-73l50 95h-54v103h134v-83z" />
    <glyph glyph-name="uni021B" unicode="&#x21b;" horiz-adv-x="375" 
d="M273 -6q-85 0 -128 44.5t-43 142.5v234h-84v98h88v131h128v-131h112v-98h-112v-230q0 -45 18.5 -63.5t61.5 -18.5h32v-103q-16 -2 -35.5 -4t-37.5 -2zM297 -156l-57 -115h-73l50 95h-54v103h134v-83z" />
    <glyph glyph-name="ubreve" unicode="&#x16d;" horiz-adv-x="589" 
d="M521 0h-127v56q-24 -30 -60.5 -50t-86.5 -20q-48 0 -83 15t-57.5 41.5t-33 64t-10.5 82.5v324h132v-307q0 -55 26 -83t68 -28q35 0 60.5 21.5t39.5 53.5v343h132v-513zM293 584q-58 0 -98.5 30.5t-66.5 78.5l71 50q39 -63 94 -63t94 63l71 -50q-26 -48 -66.5 -78.5
t-98.5 -30.5z" />
    <glyph glyph-name="uhungarumlaut" unicode="&#x171;" horiz-adv-x="589" 
d="M521 0h-127v56q-24 -30 -60.5 -50t-86.5 -20q-48 0 -83 15t-57.5 41.5t-33 64t-10.5 82.5v324h132v-307q0 -55 26 -83t68 -28q35 0 60.5 21.5t39.5 53.5v343h132v-513zM136 593v3l84 151h125v-3l-104 -151h-105zM328 593v3l90 151h128v-3l-113 -151h-105z" />
    <glyph glyph-name="umacron" unicode="&#x16b;" horiz-adv-x="589" 
d="M521 0h-127v56q-24 -30 -60.5 -50t-86.5 -20q-48 0 -83 15t-57.5 41.5t-33 64t-10.5 82.5v324h132v-307q0 -55 26 -83t68 -28q35 0 60.5 21.5t39.5 53.5v343h132v-513zM454 705v-90h-324v90h324z" />
    <glyph glyph-name="uogonek" unicode="&#x173;" horiz-adv-x="589" 
d="M521 0h-127v56q-24 -30 -60.5 -50t-86.5 -20q-48 0 -83 15t-57.5 41.5t-33 64t-10.5 82.5v324h132v-307q0 -55 26 -83t68 -28q35 0 60.5 21.5t39.5 53.5v343h132v-513zM521 0q-43 -17 -66 -36t-23 -44q0 -12 7.5 -21.5t27.5 -9.5q22 0 42 13l31 -65q-32 -24 -89 -24
q-54 0 -86 27t-32 70q0 37 23.5 67t67.5 52z" />
    <glyph glyph-name="uring" unicode="&#x16f;" horiz-adv-x="589" 
d="M521 0h-127v56q-24 -30 -60.5 -50t-86.5 -20q-48 0 -83 15t-57.5 41.5t-33 64t-10.5 82.5v324h132v-307q0 -55 26 -83t68 -28q35 0 60.5 21.5t39.5 53.5v343h132v-513zM178 690q0 23 9 42.5t25 33.5t36.5 22t43.5 8t43.5 -8t36 -22t24.5 -33.5t9 -42.5t-9 -42.5
t-24.5 -33.5t-36 -22t-43.5 -8t-43.5 8t-36.5 22t-25 33.5t-9 42.5zM250 690q0 -18 11.5 -30t30.5 -12q18 0 29.5 12t11.5 30q0 19 -11.5 30.5t-29.5 11.5q-19 0 -30.5 -11.5t-11.5 -30.5z" />
    <glyph glyph-name="utilde" horiz-adv-x="589" 
d="M521 0h-127v56q-24 -30 -60.5 -50t-86.5 -20q-48 0 -83 15t-57.5 41.5t-33 64t-10.5 82.5v324h132v-307q0 -55 26 -83t68 -28q35 0 60.5 21.5t39.5 53.5v343h132v-513zM239 644q-15 0 -23.5 -14.5t-14.5 -37.5l-84 27q31 121 123 121q24 0 41.5 -8t31 -18t24 -18t21.5 -8
q16 0 25 14.5t15 37.5l83 -27q-29 -121 -123 -121q-24 0 -42 8t-31.5 18t-24.5 18t-21 8z" />
    <glyph glyph-name="wacute" unicode="&#x1e83;" horiz-adv-x="814" 
d="M10 513h141l63 -254q9 -39 15.5 -73.5t6.5 -46.5h4q0 12 7 46.5t18 72.5l72 255h140l72 -255q11 -38 18 -72.5t7 -46.5h4q0 12 6.5 46.5t15.5 73.5l63 254h141l-153 -513h-136l-82 281q-10 37 -17 69.5t-7 44.5h-4q0 -12 -7 -44.5t-17 -69.5l-82 -281h-136zM342 593v3
l90 151h138v-3l-123 -151h-105z" />
    <glyph glyph-name="wcircumflex" unicode="&#x175;" horiz-adv-x="814" 
d="M10 513h141l63 -254q9 -39 15.5 -73.5t6.5 -46.5h4q0 12 7 46.5t18 72.5l72 255h140l72 -255q11 -38 18 -72.5t7 -46.5h4q0 12 6.5 46.5t15.5 73.5l63 254h141l-153 -513h-136l-82 281q-10 37 -17 69.5t-7 44.5h-4q0 -12 -7 -44.5t-17 -69.5l-82 -281h-136zM464 747
l121 -151v-3h-108l-70 70l-68 -70h-108v3l122 151h111z" />
    <glyph glyph-name="wdieresis" unicode="&#x1e85;" horiz-adv-x="814" 
d="M10 513h141l63 -254q9 -39 15.5 -73.5t6.5 -46.5h4q0 12 7 46.5t18 72.5l72 255h140l72 -255q11 -38 18 -72.5t7 -46.5h4q0 12 6.5 46.5t15.5 73.5l63 254h141l-153 -513h-136l-82 281q-10 37 -17 69.5t-7 44.5h-4q0 -12 -7 -44.5t-17 -69.5l-82 -281h-136zM236 733h133
v-125h-133v125zM447 733h132v-125h-132v125z" />
    <glyph glyph-name="wgrave" unicode="&#x1e81;" horiz-adv-x="814" 
d="M10 513h141l63 -254q9 -39 15.5 -73.5t6.5 -46.5h4q0 12 7 46.5t18 72.5l72 255h140l72 -255q11 -38 18 -72.5t7 -46.5h4q0 12 6.5 46.5t15.5 73.5l63 254h141l-153 -513h-136l-82 281q-10 37 -17 69.5t-7 44.5h-4q0 -12 -7 -44.5t-17 -69.5l-82 -281h-136zM246 744v3
h138l90 -151v-3h-105z" />
    <glyph glyph-name="ycircumflex" unicode="&#x177;" horiz-adv-x="521" 
d="M197 65l-187 448h142l85 -234q11 -33 19 -62t8 -42h4q2 23 8 47t17 57l79 234h143l-274 -686h-143zM319 747l121 -151v-3h-108l-70 70l-68 -70h-108v3l122 151h111z" />
    <glyph glyph-name="ygrave" horiz-adv-x="521" 
d="M197 65l-187 448h142l85 -234q11 -33 19 -62t8 -42h4q2 23 8 47t17 57l79 234h143l-274 -686h-143zM101 744v3h138l90 -151v-3h-105z" />
    <glyph glyph-name="zacute" unicode="&#x17a;" horiz-adv-x="471" 
d="M432 513v-87l-239 -328h243v-98h-406v87l241 328h-226v98h387zM174 593v3l90 151h138v-3l-123 -151h-105z" />
    <glyph glyph-name="zcaron" unicode="&#x17e;" horiz-adv-x="471" 
d="M432 513v-87l-239 -328h243v-98h-406v87l241 328h-226v98h387zM184 593l-121 151v3h108l69 -70l69 70h108v-3l-122 -151h-111z" />
    <glyph glyph-name="zdotaccent" unicode="&#x17c;" horiz-adv-x="471" 
d="M432 513v-87l-239 -328h243v-98h-406v87l241 328h-226v98h387zM168 723h144v-126h-144v126z" />
    <glyph glyph-name="florin" unicode="&#x192;" 
d="M233 384l16 119q5 35 16.5 65.5t32 53t51.5 35.5t76 13q14 0 29 -0.5t26 -2.5v-111h-30q-30 0 -48 -16t-23 -51l-14 -105h97v-105h-111l-17 -126q-5 -35 -16.5 -65.5t-32 -53t-51.5 -35.5t-76 -13q-15 0 -30 0.5t-26 2.5v111h31q30 0 48 16t23 51l15 112h-93v105h107z
" />
    <glyph glyph-name="uni037E" unicode="&#x37e;" horiz-adv-x="271" 
d="M66.1787 -153.102l62.207 153.102h-69.0107v149.225h151.63v-132.752l-70.9551 -169.574h-73.8711zM59.5986 512.996h152.097v-149.996h-152.097v149.996z" />
    <glyph glyph-name="anoteleia" unicode="&#x387;" horiz-adv-x="276" 
d="M60 380h156v-154h-156v154z" />
    <glyph glyph-name="tonos" unicode="&#x384;" horiz-adv-x="556" 
d="M181 586l53 165h133v-3l-91 -165h-95v3z" />
    <glyph glyph-name="dieresistonos" unicode="&#x385;" horiz-adv-x="556" 
d="M105 708h107v-125h-107v125zM435 708h107v-125h-107v125zM248 586l43 165h133v-3l-81 -165h-95v3z" />
    <glyph glyph-name="Alpha" unicode="&#x391;" horiz-adv-x="637" 
d="M238 680h161l237 -680h-143l-48 146h-254l-47 -146h-143zM227 256h182l-64 197q-12 34 -18.5 64.5t-6.5 43.5h-4q0 -13 -6.5 -43.5t-17.5 -64.5z" />
    <glyph glyph-name="Beta" unicode="&#x392;" horiz-adv-x="633" 
d="M83 680h254q48 0 87 -13.5t66.5 -38t42.5 -57.5t15 -72q0 -45 -21.5 -80.5t-60.5 -58.5q58 -21 94 -62.5t36 -103.5q0 -91 -60 -142.5t-172 -51.5h-281v680zM351 106q55 0 80 26t25 68t-25 68t-80 26h-133v-188h133zM308 400q55 0 77.5 24.5t22.5 62.5t-22.5 62.5
t-77.5 24.5h-90v-174h90z" />
    <glyph glyph-name="Gamma" unicode="&#x393;" horiz-adv-x="521" 
d="M83 680h418v-110h-283v-570h-135v680z" />
    <glyph glyph-name="Delta" unicode="&#x394;" horiz-adv-x="619" 
d="M20 94l209 586h161l209 -586v-94h-579v94zM167 110h285l-116 343q-11 34 -18 64.5t-7 43.5h-4q0 -13 -7 -43.5t-18 -64.5z" />
    <glyph glyph-name="Delta" unicode="&#x2206;" horiz-adv-x="619" 
d="M20 94l209 586h161l209 -586v-94h-579v94zM167 110h285l-116 343q-11 34 -18 64.5t-7 43.5h-4q0 -13 -7 -43.5t-18 -64.5z" />
    <glyph glyph-name="Epsilon" unicode="&#x395;" horiz-adv-x="573" 
d="M526 0h-443v680h443v-110h-308v-171h260v-110h-260v-179h308v-110z" />
    <glyph glyph-name="Zeta" unicode="&#x396;" horiz-adv-x="553" 
d="M35 0v94l304 476h-290v110h460v-94l-307 -476h312v-110h-479z" />
    <glyph glyph-name="Eta" unicode="&#x397;" horiz-adv-x="718" 
d="M83 0v680h135v-281h282v281h135v-680h-135v289h-282v-289h-135z" />
    <glyph glyph-name="Theta" unicode="&#x398;" horiz-adv-x="720" 
d="M244 399h233v-110h-233v110zM360 694q72 0 130.5 -26t100 -73t64 -112t22.5 -143t-22.5 -143t-64 -112t-100 -73t-130.5 -26t-130.5 26t-100 73t-64 112t-22.5 143t22.5 143t64 112t100 73t130.5 26zM360 578q-45 0 -78 -17.5t-55 -49t-33 -75.5t-11 -96t11 -96t33 -75.5
t55 -49t78 -17.5t78 17.5t55 49t33 75.5t11 96t-11 96t-33 75.5t-55 49t-78 17.5z" />
    <glyph glyph-name="Iota" unicode="&#x399;" horiz-adv-x="301" 
d="M83 0v680h135v-680h-135z" />
    <glyph glyph-name="Kappa" unicode="&#x39a;" horiz-adv-x="625" 
d="M469 0l-173 296l-78 -97v-199h-135v680h135v-301l228 301h161v-3l-228 -279l245 -395v-3h-155z" />
    <glyph glyph-name="Lambda" unicode="&#x39b;" horiz-adv-x="634" 
d="M632 0h-140l-148 459q-11 35 -18 65t-7 43h-4q0 -13 -7 -43t-18 -65l-148 -459h-140l234 680h162z" />
    <glyph glyph-name="Mu" unicode="&#x39c;" horiz-adv-x="882" 
d="M415 254q11 -32 17.5 -60.5t6.5 -40.5h4q0 12 6.5 40.5t17.5 60.5l149 426h183v-680h-135v339q0 53 1 91t3 65h-4q-1 -8 -4.5 -23t-8.5 -35t-12 -43.5t-16 -47.5l-121 -346h-122l-121 346q-9 24 -16 48.5t-12.5 44.5t-8.5 35t-4 21h-4q2 -27 3 -65t1 -91v-339h-135v680
h183z" />
    <glyph glyph-name="Nu" unicode="&#x39d;" horiz-adv-x="735" 
d="M83 680h121l265 -380q21 -30 35 -58t17 -40h4q-4 17 -6 48t-2 66v364h135v-680h-120l-266 380q-21 30 -35 58t-17 40h-4q3 -14 5.5 -46.5t2.5 -67.5v-364h-135v680z" />
    <glyph glyph-name="Xi" unicode="&#x39e;" horiz-adv-x="547" 
d="M45 680h457v-110h-457v110zM45 110h457v-110h-457v110zM89 399h369v-110h-369v110z" />
    <glyph glyph-name="Omicron" unicode="&#x39f;" horiz-adv-x="720" 
d="M360 694q72 0 130.5 -26t100 -73t64 -112t22.5 -143t-22.5 -143t-64 -112t-100 -73t-130.5 -26t-130.5 26t-100 73t-64 112t-22.5 143t22.5 143t64 112t100 73t130.5 26zM360 578q-45 0 -78 -17.5t-55 -49t-33 -75.5t-11 -96t11 -96t33 -75.5t55 -49t78 -17.5t78 17.5
t55 49t33 75.5t11 96t-11 96t-33 75.5t-55 49t-78 17.5z" />
    <glyph glyph-name="Pi" unicode="&#x3a0;" horiz-adv-x="698" 
d="M83 680h532v-680h-135v570h-262v-570h-135v680z" />
    <glyph glyph-name="Rho" unicode="&#x3a1;" horiz-adv-x="584" 
d="M556 468q0 -53 -17.5 -92.5t-48.5 -65.5t-74 -39.5t-93 -13.5h-105v-257h-135v680h240q50 0 93 -13.5t74 -40t48.5 -66.5t17.5 -92zM416 468q0 55 -29.5 78.5t-76.5 23.5h-92v-203h92q47 0 76.5 23t29.5 78z" />
    <glyph glyph-name="Sigma" unicode="&#x3a3;" horiz-adv-x="539" 
d="M44 94l163 252l-154 240v94h444v-110h-282l144 -224l-152 -236h290v-110h-453v94z" />
    <glyph glyph-name="Tau" unicode="&#x3a4;" horiz-adv-x="545" 
d="M205 571h-185v109h505v-109h-185v-571h-135v571z" />
    <glyph glyph-name="Upsilon" unicode="&#x3a5;" horiz-adv-x="597" 
d="M231 0v293l-230 384v3h152l145 -263l146 263h152v-3l-230 -383v-294h-135z" />
    <glyph glyph-name="Phi" unicode="&#x3a6;" horiz-adv-x="777" 
d="M321 55q-67 3 -121 26.5t-91.5 62.5t-57.5 90t-20 109t20 109t57.5 90t91.5 62.5t121 26.5v78h135v-78q67 -3 121 -26.5t91.5 -62.5t57.5 -90t20 -109t-20 -109t-57.5 -90t-91.5 -62.5t-121 -26.5v-85h-135v85zM321 522q-39 -3 -67.5 -19.5t-46.5 -41t-27 -55.5t-9 -63
t9 -63t27 -55.5t46.5 -41t67.5 -19.5v358zM456 164q39 3 67.5 19.5t46.5 41t27 55.5t9 63t-9 63t-27 55.5t-46.5 41t-67.5 19.5v-358z" />
    <glyph glyph-name="Chi" unicode="&#x3a7;" horiz-adv-x="622" 
d="M0 3l226 355l-200 319v3h148l137 -232l137 232h148v-3l-201 -319l227 -355v-3h-149l-162 264l-162 -264h-149v3z" />
    <glyph glyph-name="Psi" unicode="&#x3a8;" horiz-adv-x="739" 
d="M302 153q-129 3 -191.5 78t-62.5 207v242h135v-242q0 -90 25.5 -130.5t93.5 -43.5v416h135v-416q67 3 93 43.5t26 130.5v242h135v-242q0 -134 -62.5 -207t-191.5 -78v-153h-135v153z" />
    <glyph glyph-name="Omega" unicode="&#x3a9;" horiz-adv-x="766" 
d="M383 578q-45 0 -78.5 -17.5t-55.5 -49t-33 -75.5t-11 -96q0 -93 30 -155.5t99 -89.5v-95h-278v105h112q-44 35 -73.5 98t-29.5 154q0 72 22.5 133.5t64 106.5t100 71t131.5 26t131.5 -26t100 -71t64 -106.5t22.5 -133.5q0 -91 -30 -154t-73 -98h112v-105h-278v95
q69 27 99 89.5t30 155.5q0 52 -11 96t-33 75.5t-55.5 49t-78.5 17.5z" />
    <glyph glyph-name="Omega" unicode="&#x2126;" horiz-adv-x="766" 
d="M383 578q-45 0 -78.5 -17.5t-55.5 -49t-33 -75.5t-11 -96q0 -93 30 -155.5t99 -89.5v-95h-278v105h112q-44 35 -73.5 98t-29.5 154q0 72 22.5 133.5t64 106.5t100 71t131.5 26t131.5 -26t100 -71t64 -106.5t22.5 -133.5q0 -91 -30 -154t-73 -98h112v-105h-278v95
q69 27 99 89.5t30 155.5q0 52 -11 96t-33 75.5t-55.5 49t-78.5 17.5z" />
    <glyph glyph-name="Alphatonos" unicode="&#x386;" horiz-adv-x="706" 
d="M18 516l53 165h133v-3l-91 -165h-95v3zM307 680h161l237 -680h-143l-48 146h-254l-47 -146h-143zM296 256h182l-64 197q-12 34 -18.5 64.5t-6.5 43.5h-4q0 -13 -6.5 -43.5t-17.5 -64.5z" />
    <glyph glyph-name="Epsilontonos" unicode="&#x388;" horiz-adv-x="743" 
d="M2 516l53 165h133v-3l-91 -165h-95v3zM696 0h-443v680h443v-110h-308v-171h260v-110h-260v-179h308v-110z" />
    <glyph glyph-name="Etatonos" unicode="&#x389;" horiz-adv-x="888" 
d="M2 516l53 165h133v-3l-91 -165h-95v3zM253 0v680h135v-281h282v281h135v-680h-135v289h-282v-289h-135z" />
    <glyph glyph-name="Iotatonos" unicode="&#x38a;" horiz-adv-x="471" 
d="M2 516l53 165h133v-3l-91 -165h-95v3zM253 0v680h135v-680h-135z" />
    <glyph glyph-name="Omicrontonos" unicode="&#x38c;" horiz-adv-x="856" 
d="M5 516l53 165h133v-3l-91 -165h-95v3zM496 694q72 0 130.5 -26t100 -73t64 -112t22.5 -143t-22.5 -143t-64 -112t-100 -73t-130.5 -26t-130.5 26t-100 73t-64 112t-22.5 143t22.5 143t64 112t100 73t130.5 26zM496 578q-45 0 -78 -17.5t-55 -49t-33 -75.5t-11 -96t11 -96
t33 -75.5t55 -49t78 -17.5t78 17.5t55 49t33 75.5t11 96t-11 96t-33 75.5t-55 49t-78 17.5z" />
    <glyph glyph-name="Upsilontonos" unicode="&#x38e;" horiz-adv-x="835" 
d="M20 516l53 165h133v-3l-91 -165h-95v3zM469 0v293l-230 384v3h152l145 -263l146 263h152v-3l-230 -383v-294h-135z" />
    <glyph glyph-name="Omegatonos" unicode="&#x38f;" horiz-adv-x="875" 
d="M503 578q-45 0 -78.5 -17.5t-55.5 -49t-33 -75.5t-11 -96q0 -93 30 -155.5t99 -89.5v-95h-278v105h112q-44 35 -73.5 98t-29.5 154q0 72 22.5 133.5t64 106.5t100 71t131.5 26t131.5 -26t100 -71t64 -106.5t22.5 -133.5q0 -91 -30 -154t-73 -98h112v-105h-278v95
q69 27 99 89.5t30 155.5q0 52 -11 96t-33 75.5t-55.5 49t-78.5 17.5zM8 516l53 165h133v-3l-91 -165h-95v3z" />
    <glyph glyph-name="Iotadieresis" unicode="&#x3aa;" horiz-adv-x="301" 
d="M83 0v680h135v-680h-135zM-20 894h133v-125h-133v125zM191 894h132v-125h-132v125z" />
    <glyph glyph-name="Upsilondieresis" unicode="&#x3ab;" horiz-adv-x="597" 
d="M231 0v293l-230 384v3h152l145 -263l146 263h152v-3l-230 -383v-294h-135zM128 894h133v-125h-133v125zM339 894h132v-125h-132v125z" />
    <glyph glyph-name="alpha" unicode="&#x3b1;" horiz-adv-x="605" 
d="M410 59q-25 -33 -61 -53t-81 -20q-49 0 -91 18.5t-72.5 53.5t-48 85t-17.5 114t17.5 114t48 85t72.5 53.5t91 18.5q45 0 81 -20.5t61 -53.5v59h127v-513h-127v59zM297 95q33 0 62.5 20t45.5 55v173q-16 36 -45.5 56t-62.5 20q-53 0 -88.5 -39t-35.5 -123t35.5 -123
t88.5 -39z" />
    <glyph glyph-name="beta" unicode="&#x3b2;" horiz-adv-x="567" 
d="M68 514q0 99 54.5 152.5t151.5 53.5q43 0 79 -14.5t62.5 -39.5t41 -58t14.5 -69q0 -94 -65 -137q54 -20 89 -68t35 -124q0 -51 -17 -91.5t-45.5 -69t-65 -43.5t-74.5 -15q-75 0 -128 60v-224h-132v687zM200 155q22 -34 47 -44.5t51 -10.5q49 0 73.5 32t24.5 85
q0 56 -24.5 87t-74.5 31h-39v98h13q38 0 52 26t14 67q0 39 -16 62t-51 23t-52.5 -22t-17.5 -62v-372z" />
    <glyph glyph-name="gamma" unicode="&#x3b3;" horiz-adv-x="531" 
d="M199 8l-190 505h142l88 -266q11 -35 18 -65t7 -43h4q0 13 7 43t18 65l88 266h141l-190 -508v-180h-133v183z" />
    <glyph glyph-name="delta" unicode="&#x3b4;" horiz-adv-x="540" 
d="M266 -12q-56 0 -98.5 20t-72 52.5t-44.5 74.5t-15 87q0 69 39.5 123t114.5 88q-35 30 -54 62t-19 77q0 65 51 106.5t145 41.5q30 0 64.5 -6.5t58.5 -14.5v-110q-22 9 -54.5 15.5t-55.5 6.5q-45 0 -60 -13t-15 -31q0 -20 18.5 -38t47 -38.5t61 -45t61 -56.5t47 -73.5
t18.5 -96.5q0 -43 -15 -84.5t-45 -74t-74.5 -52.5t-103.5 -20zM370 220q0 28 -8 50.5t-21 41t-31 34.5t-37 33q-45 -23 -74 -61t-29 -96q0 -54 26 -89.5t70 -35.5q50 0 77 36t27 87z" />
    <glyph glyph-name="epsilon" unicode="&#x3b5;" horiz-adv-x="483" 
d="M254 -14q-57 0 -98 12t-67.5 33t-39 50t-12.5 64q0 41 23 72t63 48q-31 17 -47.5 47t-16.5 66q0 33 15 60.5t42.5 47t65.5 30t84 10.5q50 0 94.5 -18.5t79.5 -54.5l-71 -79q-17 18 -42 30.5t-55 12.5q-38 0 -58.5 -16.5t-20.5 -42.5q0 -22 15 -39t45 -17h79v-90h-79
q-47 0 -64.5 -16t-17.5 -41q0 -26 21 -43t66 -17q24 0 42.5 4.5t33.5 13.5t28 22t26 29l79 -78q-33 -43 -84 -71.5t-129 -28.5z" />
    <glyph glyph-name="zeta" unicode="&#x3b6;" horiz-adv-x="460" 
d="M309 -53q0 19 -20 31.5t-50.5 24.5t-66 26t-66 36.5t-50.5 56t-20 84.5q0 48 15.5 91t46.5 89.5t77 100.5t106 125h-234v98h402v-87q-78 -89 -131 -151t-86 -107.5t-47.5 -79t-14.5 -66.5q0 -32 20 -52t50.5 -34t66 -26t66 -30.5t50.5 -46t20 -72.5q0 -43 -23.5 -81.5
t-55.5 -63.5l-104 57q17 14 33 34t16 43z" />
    <glyph glyph-name="eta" unicode="&#x3b7;" horiz-adv-x="589" 
d="M68 513h127v-56q24 30 60.5 50t86.5 20q48 0 83 -15t57.5 -41.5t33 -64t10.5 -82.5v-497h-132v480q0 55 -26 83t-68 28q-36 0 -61 -21.5t-39 -53.5v-343h-132v513z" />
    <glyph glyph-name="theta" unicode="&#x3b8;" horiz-adv-x="570" 
d="M285 -14q-54 0 -97.5 21.5t-74.5 66.5t-48 114.5t-17 166.5t17 166.5t48 114.5t74.5 66.5t97.5 21.5t97.5 -21.5t74.5 -66.5t48 -114.5t17 -166.5t-17 -166.5t-48 -114.5t-74.5 -66.5t-97.5 -21.5zM285 95q24 0 42 11t30.5 36.5t20 67t9.5 102.5h-205q2 -61 9.5 -102.5
t20.5 -67t31 -36.5t42 -11zM285 615q-23 0 -41 -10.5t-30.5 -34.5t-20.5 -63.5t-10 -96.5h204q-3 57 -10.5 96.5t-20.5 63.5t-30.5 34.5t-40.5 10.5z" />
    <glyph glyph-name="iota" unicode="&#x3b9;" horiz-adv-x="304" 
d="M216 -7q-82 0 -117.5 44.5t-35.5 141.5v334h132v-339q0 -42 13.5 -57t38.5 -15q27 0 45 6v-107q-11 -2 -33.5 -5t-42.5 -3z" />
    <glyph glyph-name="kappa" unicode="&#x3ba;" horiz-adv-x="531" 
d="M68 513h132v-202l164 202h150v-3l-176 -209l197 -298v-3h-151l-127 205l-57 -68v-137h-132v513z" />
    <glyph glyph-name="lambda" unicode="&#x3bb;" horiz-adv-x="534" 
d="M525 0h-141l-81 231q-14 41 -24 76.5t-12 49.5h-4q0 -14 -9.5 -49.5t-23.5 -76.5l-78 -231h-142l189 496l-24 66q-10 26 -27.5 36.5t-37.5 10.5h-33v107q10 2 28 2h30q62 0 100 -27.5t60 -84.5z" />
    <glyph glyph-name="mu" unicode="&#xb5;" horiz-adv-x="594" 
d="M526 513v-513h-127v57q-23 -30 -57 -50.5t-82 -20.5q-31 0 -60 13v-174h-132v688h132v-307q0 -55 26 -83t68 -28q35 0 60.5 21.5t39.5 53.5v343h132z" />
    <glyph glyph-name="mu" unicode="&#x3bc;" horiz-adv-x="594" 
d="M526 513v-513h-127v57q-23 -30 -57 -50.5t-82 -20.5q-31 0 -60 13v-174h-132v688h132v-307q0 -55 26 -83t68 -28q35 0 60.5 21.5t39.5 53.5v343h132z" />
    <glyph glyph-name="nu" unicode="&#x3bd;" horiz-adv-x="533" 
d="M10 513h142l88 -269q11 -35 18 -65t7 -43h4q0 13 7 43t18 65l88 269h141l-189 -513h-134z" />
    <glyph glyph-name="xi" unicode="&#x3be;" horiz-adv-x="476" 
d="M261 -129q17 13 33 32t16 41q0 19 -20 33t-50.5 27t-66 28.5t-66 37.5t-50.5 53.5t-20 76.5q0 71 35.5 114.5t90.5 62.5q-17 7 -34.5 21t-31.5 34t-22.5 45.5t-8.5 56.5q0 38 14 71.5t41 59t67 40.5t91 15q66 0 113 -29t81 -81l-92 -65q-17 28 -39.5 47t-59.5 19
q-36 0 -59 -22t-23 -61q0 -52 31.5 -79.5t96.5 -27.5h61v-98h-60q-82 0 -120 -27.5t-38 -73.5q0 -34 20 -54t50.5 -34.5t66 -27.5t66 -31.5t50.5 -46.5t20 -73q0 -42 -23 -79.5t-55 -61.5z" />
    <glyph glyph-name="omicron" unicode="&#x3bf;" horiz-adv-x="586" 
d="M293 95q31 0 53.5 12t37.5 34t22.5 51.5t7.5 64.5t-7.5 64.5t-22.5 51t-37.5 33.5t-53.5 12t-53.5 -12t-37.5 -33.5t-22.5 -51t-7.5 -64.5t7.5 -64.5t22.5 -51.5t37.5 -34t53.5 -12zM293 527q58 0 105.5 -20t80.5 -56t51 -85.5t18 -108.5t-18 -109t-51 -86t-80.5 -56
t-105.5 -20q-59 0 -106 20t-80 56t-51 86t-18 109t18 108.5t51 85.5t80 56t106 20z" />
    <glyph glyph-name="pi" unicode="&#x3c0;" horiz-adv-x="639" 
d="M528 -7q-81 0 -115.5 43.5t-34.5 140.5v238h-143v-415h-132v415h-72v98h567v-98h-88v-243q0 -40 13 -55t36 -15q20 0 37 5v-107q-10 -2 -30 -4.5t-38 -2.5z" />
    <glyph glyph-name="rho" unicode="&#x3c1;" horiz-adv-x="601" 
d="M309 527q58 0 105 -20t80 -56t50.5 -85.5t17.5 -108.5t-16.5 -109t-46.5 -86t-72.5 -56t-94.5 -20q-87 0 -142 69v-230h-132v432q0 59 17.5 108.5t50 85.5t79 56t104.5 20zM309 95q30 0 52.5 12t37.5 34t22 51.5t7 64.5t-7 64.5t-22 51t-37.5 33.5t-52.5 12t-52.5 -12
t-37.5 -33.5t-22 -51t-7 -64.5t7 -64.5t22 -51.5t37.5 -34t52.5 -12z" />
    <glyph glyph-name="uni03C2" unicode="&#x3c2;" horiz-adv-x="498" 
d="M289 527q33 0 64 -8.5t58.5 -26t49 -44t34.5 -61.5l-100 -47q-14 35 -41 56.5t-65 21.5q-56 0 -86.5 -38t-30.5 -104q0 -48 19.5 -77.5t48.5 -50.5t62.5 -37t62.5 -36t48.5 -48.5t19.5 -73.5q0 -42 -22 -78.5t-51 -60.5l-105 57q16 13 30 31t14 38q0 23 -19.5 37.5
t-48.5 29.5t-62.5 33.5t-62.5 48.5t-48.5 75t-19.5 112q0 52 16 98t47.5 80t78.5 53.5t109 19.5z" />
    <glyph glyph-name="sigma" unicode="&#x3c3;" horiz-adv-x="604" 
d="M302 513h270v-98h-118q46 -30 70 -78t24 -97q0 -56 -18 -102.5t-51 -80t-80.5 -52.5t-105.5 -19q-59 0 -106 20t-80 56t-51 86t-18 109q0 56 18 103t51 81t80 53t106 19h9zM293 415q-31 0 -53.5 -12t-37.5 -33t-22.5 -50t-7.5 -63q0 -35 7.5 -64.5t22.5 -51.5t37.5 -34
t53.5 -12t53.5 12t37.5 34t22.5 51.5t7.5 64.5q0 33 -7 61.5t-21.5 49.5t-36 33.5t-50.5 13.5h-6z" />
    <glyph glyph-name="tau" unicode="&#x3c4;" horiz-adv-x="465" 
d="M18 513h417v-98h-152v-244q0 -40 13.5 -54.5t37.5 -14.5q43 0 72 12v-104q-14 -6 -42 -11.5t-53 -5.5q-86 0 -123 43.5t-37 140.5v238h-133v98z" />
    <glyph glyph-name="upsilon" unicode="&#x3c5;" horiz-adv-x="567" 
d="M286 -14q-44 0 -84.5 13.5t-71.5 40.5t-49.5 68.5t-18.5 97.5v307h132v-297q0 -64 26 -92.5t66 -28.5q48 0 76 45t28 130q0 57 -15.5 121.5t-38.5 121.5h140q20 -52 34 -115t14 -125q0 -67 -18 -120.5t-49.5 -90.5t-75 -56.5t-95.5 -19.5z" />
    <glyph glyph-name="phi" unicode="&#x3c6;" horiz-adv-x="724" 
d="M296 -12q-66 4 -114.5 26.5t-80.5 58.5t-48 83t-16 100t16 100t48 83t80.5 58.5t114.5 26.5v186h132v-186q65 -4 113.5 -26.5t81 -58.5t48.5 -83t16 -100t-16 -100t-48.5 -83t-81 -58.5t-113.5 -26.5v-161h-132v161zM553 256q0 76 -35.5 117t-97.5 46v-326q62 5 97.5 46
t35.5 117zM171 256q0 -76 35 -117t98 -46v326q-63 -5 -98 -46t-35 -117z" />
    <glyph glyph-name="chi" unicode="&#x3c7;" horiz-adv-x="532" 
d="M6 -170l177 348l-165 332v3h146l102 -230l103 230h145v-3l-165 -332l177 -348v-3h-144l-116 248l-115 -248h-145v3z" />
    <glyph glyph-name="psi" unicode="&#x3c8;" horiz-adv-x="706" 
d="M287 -11q-48 0 -89.5 14t-71.5 41.5t-47 69.5t-17 99v300h132v-302q0 -59 25.5 -87t67.5 -28v614h132v-614q48 0 79.5 44t31.5 130q0 57 -15.5 121.5t-37.5 121.5h138q20 -52 34.5 -115t14.5 -125q0 -70 -19 -123t-52 -89t-78 -54t-96 -18v-164h-132v164z" />
    <glyph glyph-name="omega" unicode="&#x3c9;" horiz-adv-x="814" 
d="M260 -11q-49 0 -89.5 19t-69 55.5t-44.5 89.5t-16 120q0 62 17 124t40 116h140q-28 -59 -45.5 -122.5t-17.5 -120.5q0 -80 22 -126t69 -46q34 0 54.5 28t20.5 85v194h132v-194q0 -57 20.5 -85t54.5 -28q47 0 69 46t22 126q0 57 -17.5 120.5t-45.5 122.5h140
q23 -54 40 -116t17 -124q0 -67 -16 -120t-44.5 -89.5t-69 -55.5t-89.5 -19q-55 0 -89.5 27t-57.5 71q-23 -44 -57 -71t-90 -27z" />
    <glyph glyph-name="iotatonos" unicode="&#x3af;" horiz-adv-x="304" 
d="M216 -7q-82 0 -117.5 44.5t-35.5 141.5v334h132v-339q0 -42 13.5 -57t38.5 -15q27 0 45 6v-107q-11 -2 -33.5 -5t-42.5 -3zM72 586l53 165h133v-3l-91 -165h-95v3z" />
    <glyph glyph-name="iotadieresis" unicode="&#x3ca;" horiz-adv-x="304" 
d="M216 -7q-82 0 -117.5 44.5t-35.5 141.5v334h132v-339q0 -42 13.5 -57t38.5 -15q27 0 45 6v-107q-11 -2 -33.5 -5t-42.5 -3zM-42 733h133v-125h-133v125zM169 733h132v-125h-132v125z" />
    <glyph glyph-name="iotadieresistonos" unicode="&#x390;" horiz-adv-x="304" 
d="M216 -7q-82 0 -117.5 44.5t-35.5 141.5v334h132v-339q0 -42 13.5 -57t38.5 -15q27 0 45 6v-107q-11 -2 -33.5 -5t-42.5 -3zM-83 708h107v-125h-107v125zM247 708h107v-125h-107v125zM60 586l43 165h133v-3l-81 -165h-95v3z" />
    <glyph glyph-name="upsilontonos" unicode="&#x3cd;" horiz-adv-x="567" 
d="M286 -14q-44 0 -84.5 13.5t-71.5 40.5t-49.5 68.5t-18.5 97.5v307h132v-297q0 -64 26 -92.5t66 -28.5q48 0 76 45t28 130q0 57 -15.5 121.5t-38.5 121.5h140q20 -52 34 -115t14 -125q0 -67 -18 -120.5t-49.5 -90.5t-75 -56.5t-95.5 -19.5zM220 586l53 165h133v-3
l-91 -165h-95v3z" />
    <glyph glyph-name="upsilondieresis" unicode="&#x3cb;" horiz-adv-x="567" 
d="M286 -14q-44 0 -84.5 13.5t-71.5 40.5t-49.5 68.5t-18.5 97.5v307h132v-297q0 -64 26 -92.5t66 -28.5q48 0 76 45t28 130q0 57 -15.5 121.5t-38.5 121.5h140q20 -52 34 -115t14 -125q0 -67 -18 -120.5t-49.5 -90.5t-75 -56.5t-95.5 -19.5zM107 733h133v-125h-133v125z
M318 733h132v-125h-132v125z" />
    <glyph glyph-name="upsilondieresistonos" unicode="&#x3b0;" horiz-adv-x="567" 
d="M286 -14q-44 0 -84.5 13.5t-71.5 40.5t-49.5 68.5t-18.5 97.5v307h132v-297q0 -64 26 -92.5t66 -28.5q48 0 76 45t28 130q0 57 -15.5 121.5t-38.5 121.5h140q20 -52 34 -115t14 -125q0 -67 -18 -120.5t-49.5 -90.5t-75 -56.5t-95.5 -19.5zM66 708h107v-125h-107v125z
M396 708h107v-125h-107v125zM209 586l43 165h133v-3l-81 -165h-95v3z" />
    <glyph glyph-name="omicrontonos" unicode="&#x3cc;" horiz-adv-x="586" 
d="M235 586l53 165h133v-3l-91 -165h-95v3zM293 95q31 0 53.5 12t37.5 34t22.5 51.5t7.5 64.5t-7.5 64.5t-22.5 51t-37.5 33.5t-53.5 12t-53.5 -12t-37.5 -33.5t-22.5 -51t-7.5 -64.5t7.5 -64.5t22.5 -51.5t37.5 -34t53.5 -12zM293 527q58 0 105.5 -20t80.5 -56t51 -85.5
t18 -108.5t-18 -109t-51 -86t-80.5 -56t-105.5 -20q-59 0 -106 20t-80 56t-51 86t-18 109t18 108.5t51 85.5t80 56t106 20z" />
    <glyph glyph-name="omegatonos" unicode="&#x3ce;" horiz-adv-x="814" 
d="M260 -11q-49 0 -89.5 19t-69 55.5t-44.5 89.5t-16 120q0 62 17 124t40 116h140q-28 -59 -45.5 -122.5t-17.5 -120.5q0 -80 22 -126t69 -46q34 0 54.5 28t20.5 85v194h132v-194q0 -57 20.5 -85t54.5 -28q47 0 69 46t22 126q0 57 -17.5 120.5t-45.5 122.5h140
q23 -54 40 -116t17 -124q0 -67 -16 -120t-44.5 -89.5t-69 -55.5t-89.5 -19q-55 0 -89.5 27t-57.5 71q-23 -44 -57 -71t-90 -27zM349 586l53 165h133v-3l-91 -165h-95v3z" />
    <glyph glyph-name="alphatonos" unicode="&#x3ac;" horiz-adv-x="605" 
d="M252 586l53 165h133v-3l-91 -165h-95v3zM410 59q-25 -33 -61 -53t-81 -20q-49 0 -91 18.5t-72.5 53.5t-48 85t-17.5 114t17.5 114t48 85t72.5 53.5t91 18.5q45 0 81 -20.5t61 -53.5v59h127v-513h-127v59zM297 95q33 0 62.5 20t45.5 55v173q-16 36 -45.5 56t-62.5 20
q-53 0 -88.5 -39t-35.5 -123t35.5 -123t88.5 -39z" />
    <glyph glyph-name="epsilontonos" unicode="&#x3ad;" horiz-adv-x="483" 
d="M254 -14q-57 0 -98 12t-67.5 33t-39 50t-12.5 64q0 41 23 72t63 48q-31 17 -47.5 47t-16.5 66q0 33 15 60.5t42.5 47t65.5 30t84 10.5q50 0 94.5 -18.5t79.5 -54.5l-71 -79q-17 18 -42 30.5t-55 12.5q-38 0 -58.5 -16.5t-20.5 -42.5q0 -22 15 -39t45 -17h79v-90h-79
q-47 0 -64.5 -16t-17.5 -41q0 -26 21 -43t66 -17q24 0 42.5 4.5t33.5 13.5t28 22t26 29l79 -78q-33 -43 -84 -71.5t-129 -28.5zM201 586l53 165h133v-3l-91 -165h-95v3z" />
    <glyph glyph-name="etatonos" unicode="&#x3ae;" horiz-adv-x="589" 
d="M68 513h127v-56q24 30 60.5 50t86.5 20q48 0 83 -15t57.5 -41.5t33 -64t10.5 -82.5v-497h-132v480q0 55 -26 83t-68 28q-36 0 -61 -21.5t-39 -53.5v-343h-132v513zM234 586l53 165h133v-3l-91 -165h-95v3z" />
    <glyph glyph-name="uni0410" unicode="&#x410;" horiz-adv-x="637" 
d="M238 680h161l237 -680h-143l-48 146h-254l-47 -146h-143zM227 256h182l-64 197q-12 34 -18.5 64.5t-6.5 43.5h-4q0 -13 -6.5 -43.5t-17.5 -64.5z" />
    <glyph glyph-name="uni0411" unicode="&#x411;" horiz-adv-x="615" 
d="M581 205q0 -51 -17.5 -89t-48.5 -64t-74 -39t-93 -13h-265v680h452v-110h-317v-161h130q50 0 93 -13t74 -38.5t48.5 -63.5t17.5 -89zM441 205q0 51 -29.5 72.5t-76.5 21.5h-117v-189h117q47 0 76.5 22t29.5 73z" />
    <glyph glyph-name="uni0412" unicode="&#x412;" horiz-adv-x="633" 
d="M83 680h254q48 0 87 -13.5t66.5 -38t42.5 -57.5t15 -72q0 -45 -21.5 -80.5t-60.5 -58.5q58 -21 94 -62.5t36 -103.5q0 -91 -60 -142.5t-172 -51.5h-281v680zM351 106q55 0 80 26t25 68t-25 68t-80 26h-133v-188h133zM308 400q55 0 77.5 24.5t22.5 62.5t-22.5 62.5
t-77.5 24.5h-90v-174h90z" />
    <glyph glyph-name="uni0413" unicode="&#x413;" horiz-adv-x="521" 
d="M83 680h418v-110h-283v-570h-135v680z" />
    <glyph glyph-name="uni0403" unicode="&#x403;" horiz-adv-x="521" 
d="M226 760v3l90 151h138v-3l-123 -151h-105zM83 680h418v-110h-283v-570h-135v680z" />
    <glyph glyph-name="uni0490" unicode="&#x490;" horiz-adv-x="538" 
d="M218 0h-135v680h300v136h135v-246h-300v-570z" />
    <glyph glyph-name="uni0414" unicode="&#x414;" horiz-adv-x="693" 
d="M14 110h59q17 25 29.5 52.5t21 61t14 74t7.5 91.5l13 291h424v-570h71v-246h-135v136h-369v-136h-135v246zM447 110v460h-162l-7 -182q-6 -103 -18 -169t-38 -109h225z" />
    <glyph glyph-name="uni0415" unicode="&#x415;" horiz-adv-x="573" 
d="M526 0h-443v680h443v-110h-308v-171h260v-110h-260v-179h308v-110z" />
    <glyph glyph-name="uni0400" unicode="&#x400;" horiz-adv-x="573" 
d="M526 0h-443v680h443v-110h-308v-171h260v-110h-260v-179h308v-110zM147 905v3h138l90 -151v-3h-105z" />
    <glyph glyph-name="uni0401" unicode="&#x401;" horiz-adv-x="573" 
d="M526 0h-443v680h443v-110h-308v-171h260v-110h-260v-179h308v-110zM136 894h133v-125h-133v125zM347 894h132v-125h-132v125z" />
    <glyph glyph-name="uni0416" unicode="&#x416;" horiz-adv-x="937" 
d="M1 3l247 346l-232 328v3h156l189 -281h40v281h135v-281h40l189 281h156v-3l-232 -328l247 -346v-3h-158l-201 289h-41v-289h-135v289h-41l-201 -289h-158v3z" />
    <glyph glyph-name="uni0417" unicode="&#x417;" horiz-adv-x="569" 
d="M255 -14q-50 0 -87.5 11t-66 28t-49 38t-35.5 42l89 84q11 -15 24.5 -30.5t31 -28t40.5 -20.5t53 -8q60 0 97 26.5t37 76.5q0 45 -34.5 69t-104.5 24h-58v110h58q56 0 80 26t24 61q0 41 -26.5 62t-68.5 21q-27 0 -47.5 -5.5t-37 -15t-29 -22.5t-21.5 -27l-79 79
q16 21 38.5 40.5t49.5 34.5t58.5 23.5t67.5 8.5q112 0 173.5 -51t61.5 -138q0 -42 -24.5 -80t-67.5 -61q62 -20 94.5 -65t32.5 -105q0 -48 -21 -86.5t-58 -65.5t-87 -41.5t-108 -14.5z" />
    <glyph glyph-name="uni0418" unicode="&#x418;" horiz-adv-x="735" 
d="M517 0v364q0 35 2.5 67.5t5.5 46.5h-4q-3 -12 -17 -40t-35 -58l-266 -380h-120v680h135v-364q0 -35 -2 -66t-6 -48h4q3 12 17 40t35 58l265 380h121v-680h-135z" />
    <glyph glyph-name="uni040D" unicode="&#x40d;" horiz-adv-x="735" 
d="M517 0v364q0 35 2.5 67.5t5.5 46.5h-4q-3 -12 -17 -40t-35 -58l-266 -380h-120v680h135v-364q0 -35 -2 -66t-6 -48h4q3 12 17 40t35 58l265 380h121v-680h-135zM206 911v3h138l90 -151v-3h-105z" />
    <glyph glyph-name="uni0419" unicode="&#x419;" horiz-adv-x="735" 
d="M517 0v364q0 35 2.5 67.5t5.5 46.5h-4q-3 -12 -17 -40t-35 -58l-266 -380h-120v680h135v-364q0 -35 -2 -66t-6 -48h4q3 12 17 40t35 58l265 380h121v-680h-135zM368 751q-58 0 -98.5 30.5t-66.5 78.5l71 50q39 -63 94 -63t94 63l71 -50q-26 -48 -66.5 -78.5t-98.5 -30.5z
" />
    <glyph glyph-name="uni041A" unicode="&#x41a;" horiz-adv-x="618" 
d="M83 0v680h135v-281h39l189 281h156v-3l-232 -328l247 -346v-3h-158l-201 289h-40v-289h-135z" />
    <glyph glyph-name="uni040C" unicode="&#x40c;" horiz-adv-x="618" 
d="M83 0v680h135v-281h39l189 281h156v-3l-232 -328l247 -346v-3h-158l-201 289h-40v-289h-135zM250 760v3l90 151h138v-3l-123 -151h-105z" />
    <glyph glyph-name="uni041B" unicode="&#x41b;" horiz-adv-x="695" 
d="M16 101q25 0 45 10t33.5 34.5t21.5 66t11 105.5l15 363h470v-680h-135v570h-203l-14 -258q-5 -84 -19.5 -145t-43 -100t-73 -57.5t-108.5 -18.5v110z" />
    <glyph glyph-name="uni041C" unicode="&#x41c;" horiz-adv-x="882" 
d="M415 254q11 -32 17.5 -60.5t6.5 -40.5h4q0 12 6.5 40.5t17.5 60.5l149 426h183v-680h-135v339q0 53 1 91t3 65h-4q-1 -8 -4.5 -23t-8.5 -35t-12 -43.5t-16 -47.5l-121 -346h-122l-121 346q-9 24 -16 48.5t-12.5 44.5t-8.5 35t-4 21h-4q2 -27 3 -65t1 -91v-339h-135v680
h183z" />
    <glyph glyph-name="uni041D" unicode="&#x41d;" horiz-adv-x="718" 
d="M83 0v680h135v-281h282v281h135v-680h-135v289h-282v-289h-135z" />
    <glyph glyph-name="uni041E" unicode="&#x41e;" horiz-adv-x="720" 
d="M360 694q72 0 130.5 -26t100 -73t64 -112t22.5 -143t-22.5 -143t-64 -112t-100 -73t-130.5 -26t-130.5 26t-100 73t-64 112t-22.5 143t22.5 143t64 112t100 73t130.5 26zM360 578q-45 0 -78 -17.5t-55 -49t-33 -75.5t-11 -96t11 -96t33 -75.5t55 -49t78 -17.5t78 17.5
t55 49t33 75.5t11 96t-11 96t-33 75.5t-55 49t-78 17.5z" />
    <glyph glyph-name="uni041F" unicode="&#x41f;" horiz-adv-x="698" 
d="M83 680h532v-680h-135v570h-262v-570h-135v680z" />
    <glyph glyph-name="uni0420" unicode="&#x420;" horiz-adv-x="584" 
d="M556 468q0 -53 -17.5 -92.5t-48.5 -65.5t-74 -39.5t-93 -13.5h-105v-257h-135v680h240q50 0 93 -13.5t74 -40t48.5 -66.5t17.5 -92zM416 468q0 55 -29.5 78.5t-76.5 23.5h-92v-203h92q47 0 76.5 23t29.5 78z" />
    <glyph glyph-name="uni0421" unicode="&#x421;" horiz-adv-x="660" 
d="M43 340q0 78 23 143t64.5 112t100 73t130.5 26q88 0 160.5 -42.5t113.5 -138.5l-115 -50q-18 55 -60 85t-99 30q-45 0 -78.5 -17.5t-55.5 -49t-33 -75.5t-11 -96t11 -96t33 -75.5t55.5 -49t78.5 -17.5q57 0 99 30t60 85l115 -50q-41 -96 -113.5 -138.5t-160.5 -42.5
q-72 0 -130.5 26t-100 73t-64.5 112t-23 143z" />
    <glyph glyph-name="uni0422" unicode="&#x422;" horiz-adv-x="545" 
d="M205 571h-185v109h505v-109h-185v-571h-135v571z" />
    <glyph glyph-name="uni0423" unicode="&#x423;" horiz-adv-x="585" 
d="M91 110h27q47 0 75.5 15.5t45.5 57.5l-229 494v3h152l98 -252q14 -37 25 -69.5t11 -46.5h4q0 14 11 46.5t27 69.5l102 252h144v-3l-232 -530q-19 -44 -41.5 -72t-50 -45t-60.5 -23.5t-72 -6.5h-37v110z" />
    <glyph glyph-name="uni040E" unicode="&#x40e;" horiz-adv-x="585" 
d="M91 110h27q47 0 75.5 15.5t45.5 57.5l-229 494v3h152l98 -252q14 -37 25 -69.5t11 -46.5h4q0 14 11 46.5t27 69.5l102 252h144v-3l-232 -530q-19 -44 -41.5 -72t-50 -45t-60.5 -23.5t-72 -6.5h-37v110zM303 751q-58 0 -98.5 30.5t-66.5 78.5l71 50q39 -63 94 -63t94 63
l71 -50q-26 -48 -66.5 -78.5t-98.5 -30.5z" />
    <glyph glyph-name="uni0424" unicode="&#x424;" horiz-adv-x="777" 
d="M321 55q-67 3 -121 26.5t-91.5 62.5t-57.5 90t-20 109t20 109t57.5 90t91.5 62.5t121 26.5v78h135v-78q67 -3 121 -26.5t91.5 -62.5t57.5 -90t20 -109t-20 -109t-57.5 -90t-91.5 -62.5t-121 -26.5v-85h-135v85zM321 522q-39 -3 -67.5 -19.5t-46.5 -41t-27 -55.5t-9 -63
t9 -63t27 -55.5t46.5 -41t67.5 -19.5v358zM456 164q39 3 67.5 19.5t46.5 41t27 55.5t9 63t-9 63t-27 55.5t-46.5 41t-67.5 19.5v-358z" />
    <glyph glyph-name="uni0425" unicode="&#x425;" horiz-adv-x="622" 
d="M0 3l226 355l-200 319v3h148l137 -232l137 232h148v-3l-201 -319l227 -355v-3h-149l-162 264l-162 -264h-149v3z" />
    <glyph glyph-name="uni0427" unicode="&#x427;" horiz-adv-x="635" 
d="M417 206q-23 -8 -58 -13.5t-73 -5.5q-118 0 -177 63.5t-59 179.5v250h135v-250q0 -63 27.5 -95t86.5 -32q36 0 66.5 4.5t51.5 9.5v363h135v-680h-135v206z" />
    <glyph glyph-name="uni0426" unicode="&#x426;" horiz-adv-x="732" 
d="M557 0h-474v680h135v-570h268v570h135v-570h71v-246h-135v136z" />
    <glyph glyph-name="uni0428" unicode="&#x428;" horiz-adv-x="1031" 
d="M83 680h135v-570h230v570h135v-570h230v570h135v-680h-865v680z" />
    <glyph glyph-name="uni0429" unicode="&#x429;" horiz-adv-x="1059" 
d="M883 0h-800v680h135v-570h230v570h135v-570h230v570h135v-570h70v-246h-135v136z" />
    <glyph glyph-name="uni040F" unicode="&#x40f;" horiz-adv-x="704" 
d="M83 680h135v-570h268v570h135v-680h-201v-136h-135v136h-202v680z" />
    <glyph glyph-name="uni042F" unicode="&#x42f;" horiz-adv-x="636" 
d="M553 0h-135v277h-74l-189 -277h-160v3l209 285q-63 20 -101 69t-38 121q0 46 16.5 83.5t45.5 63.5t69.5 40.5t87.5 14.5h269v-680zM418 387v183h-116q-48 0 -72.5 -24t-24.5 -68t24.5 -67.5t72.5 -23.5h116z" />
    <glyph glyph-name="uni042C" unicode="&#x42c;" horiz-adv-x="609" 
d="M581 205q0 -51 -17.5 -89t-48.5 -64t-74 -39t-93 -13h-265v680h135v-271h130q50 0 93 -13t74 -38.5t48.5 -63.5t17.5 -89zM441 205q0 51 -29.5 72.5t-76.5 21.5h-117v-189h117q47 0 76.5 22t29.5 73z" />
    <glyph glyph-name="uni042A" unicode="&#x42a;" horiz-adv-x="664" 
d="M19 680h254v-271h130q50 0 93 -13t74 -38.5t48.5 -63.5t17.5 -89t-17.5 -89t-48.5 -64t-74 -39t-93 -13h-265v570h-119v110zM496 205q0 51 -29.5 72.5t-76.5 21.5h-117v-189h117q47 0 76.5 22t29.5 73z" />
    <glyph glyph-name="uni042B" unicode="&#x42b;" horiz-adv-x="910" 
d="M581 205q0 -51 -17.5 -89t-48.5 -64t-74 -39t-93 -13h-265v680h135v-271h130q50 0 93 -13t74 -38.5t48.5 -63.5t17.5 -89zM441 205q0 51 -29.5 72.5t-76.5 21.5h-117v-189h117q47 0 76.5 22t29.5 73zM692 0v680h135v-680h-135z" />
    <glyph glyph-name="uni0409" unicode="&#x409;" horiz-adv-x="976" 
d="M16 101q25 0 45 10t33.5 34.5t21.5 66t11 105.5l15 363h443v-271h130q50 0 93 -13t74 -38.5t48.5 -63.5t17.5 -89t-17.5 -89t-48.5 -64t-74 -39t-93 -13h-265v570h-176l-14 -258q-5 -84 -19.5 -145t-43 -100t-73 -57.5t-108.5 -18.5v110zM810 205q0 51 -29.5 72.5
t-76.5 21.5h-117v-189h117q47 0 76.5 22t29.5 73z" />
    <glyph glyph-name="uni040A" unicode="&#x40a;" horiz-adv-x="1002" 
d="M974 205q0 -51 -17.5 -89t-48.5 -64t-74 -39t-93 -13h-265v299h-258v-299h-135v680h135v-271h258v271h135v-271h130q50 0 93 -13t74 -38.5t48.5 -63.5t17.5 -89zM834 205q0 51 -29.5 72.5t-76.5 21.5h-117v-189h117q47 0 76.5 22t29.5 73z" />
    <glyph glyph-name="uni0405" unicode="&#x405;" horiz-adv-x="566" 
d="M282 -14q-51 0 -92 13t-73 34.5t-57 49.5t-43 58l93 71q13 -24 30 -44.5t38 -36t47.5 -24.5t59.5 -9q51 0 78.5 27t27.5 63q0 35 -23 60t-80 41l-51 14q-37 10 -68.5 26.5t-54.5 40.5t-36 56.5t-13 74.5q0 40 14.5 75t43 61.5t71 41.5t97.5 15q70 0 124 -31.5t89 -84.5
l-94 -70q-48 74 -123 74q-40 0 -61 -22.5t-21 -51.5q0 -32 17.5 -49.5t61.5 -29.5l51 -14q40 -11 76 -29t62.5 -44.5t42 -62.5t15.5 -82t-18.5 -85t-51.5 -67t-79 -43.5t-100 -15.5z" />
    <glyph glyph-name="uni0404" unicode="&#x404;" horiz-adv-x="666" 
d="M43 340q0 78 23 143t64.5 112t100 73t130.5 26q88 0 160.5 -42.5t113.5 -138.5l-115 -50q-18 55 -60 85t-99 30q-77 0 -120.5 -49.5t-53.5 -129.5h240v-110h-242q10 -84 53 -135.5t123 -51.5q57 0 99 30t60 85l115 -50q-41 -96 -113.5 -138.5t-160.5 -42.5
q-72 0 -130.5 26t-100 73t-64.5 112t-23 143z" />
    <glyph glyph-name="uni042D" unicode="&#x42d;" horiz-adv-x="666" 
d="M623 340q0 -78 -23 -143t-64.5 -112t-100 -73t-130.5 -26q-44 0 -84.5 10.5t-76 32t-64.5 56t-49 82.5l115 50q18 -55 60 -85t99 -30q79 0 122 51.5t53 135.5h-241v110h240q-11 80 -54 129.5t-120 49.5q-57 0 -99 -30t-60 -85l-115 50q20 48 49 82.5t64.5 56t76 32
t84.5 10.5q72 0 130.5 -26t100 -73t64.5 -112t23 -143z" />
    <glyph glyph-name="uni0406" unicode="&#x406;" horiz-adv-x="301" 
d="M83 0v680h135v-680h-135z" />
    <glyph glyph-name="uni0407" unicode="&#x407;" horiz-adv-x="301" 
d="M83 0v680h135v-680h-135zM-20 894h133v-125h-133v125zM191 894h132v-125h-132v125z" />
    <glyph glyph-name="uni0408" unicode="&#x408;" horiz-adv-x="523" 
d="M107 187q21 -40 45.5 -62.5t59.5 -22.5q29 0 48.5 9.5t31 27.5t16 44t4.5 59v438h135v-442q0 -55 -13.5 -101t-41.5 -79.5t-71.5 -52.5t-103.5 -19q-41 0 -73.5 10t-58.5 28t-45.5 42t-33.5 52z" />
    <glyph glyph-name="uni040B" unicode="&#x40b;" horiz-adv-x="675" 
d="M156 570h-135v110h450v-110h-180v-156q23 9 52.5 15t60.5 6q115 0 172.5 -63.5t57.5 -179.5v-192h-135v192q0 63 -26 95t-82 32q-29 0 -54.5 -4.5t-45.5 -11.5v-303h-135v570z" />
    <glyph glyph-name="uni042E" unicode="&#x42e;" horiz-adv-x="971" 
d="M83 680h135v-281h109q7 68 31.5 122.5t63 93t90 59t113.5 20.5q68 0 124 -25t95.5 -71t61 -111.5t21.5 -146.5t-21.5 -146.5t-61 -111.5t-95.5 -71t-124 -25q-63 0 -115 21t-90.5 60.5t-62.5 95.5t-31 126h-108v-289h-135v680zM625 102q82 0 122 65t40 173t-40 173
t-122 65q-41 0 -71 -17t-50 -48t-30 -75t-10 -98t10 -98t30 -75t50 -48t71 -17z" />
    <glyph glyph-name="uni0402" unicode="&#x402;" horiz-adv-x="673" 
d="M291 417q21 10 53.5 18.5t66.5 8.5q51 0 93 -16t72 -47.5t47 -78t17 -106.5q0 -51 -15.5 -100t-38 -93t-48 -82t-46.5 -66l-104 64q19 25 39 57t36 68t26.5 75t10.5 77q0 60 -25 96t-76 36q-32 0 -60 -7t-48 -16v-305h-135v570h-135v110h450v-110h-180v-153z" />
    <glyph glyph-name="uni0462" unicode="&#x462;" horiz-adv-x="677" 
d="M150 512h-120v110h120v58h135v-58h167v-110h-167v-103h130q50 0 93 -13t74 -38.5t48.5 -63.5t17.5 -89t-17.5 -89t-48.5 -64t-74 -39t-93 -13h-265v512zM402 110q47 0 76.5 22t29.5 73t-29.5 72.5t-76.5 21.5h-117v-189h117z" />
    <glyph glyph-name="uni0472" unicode="&#x472;" horiz-adv-x="720" 
d="M360 694q72 0 130.5 -26t100 -73t64 -112t22.5 -143t-22.5 -143t-64 -112t-100 -73t-130.5 -26t-130.5 26t-100 73t-64 112t-22.5 143t22.5 143t64 112t100 73t130.5 26zM360 102q78 0 121 51.5t53 135.5h-349q10 -84 53.5 -135.5t121.5 -51.5zM360 578q-77 0 -119.5 -49
t-53.5 -130h346q-11 81 -54 130t-119 49z" />
    <glyph glyph-name="uni0430" unicode="&#x430;" horiz-adv-x="541" 
d="M219 -14q-44 0 -78.5 12t-58.5 34t-37 52.5t-13 67.5t13 67.5t37 52.5t58.5 34t78.5 12q74 0 128 -43v32q0 46 -24 78.5t-78 32.5q-43 0 -72 -17t-44 -36l-68 83q23 30 71.5 54.5t115.5 24.5q57 0 100 -15.5t72 -43.5t44 -66t15 -84v-318h-124v36q-55 -50 -136 -50z
M250 80q33 0 58 13.5t39 33.5v50q-14 20 -39 33.5t-58 13.5q-46 0 -65.5 -22t-19.5 -50t19.5 -50t65.5 -22z" />
    <glyph glyph-name="uni0431" unicode="&#x431;" horiz-adv-x="571" 
d="M293 -14q-122 0 -181.5 79.5t-59.5 223.5q0 90 10.5 157t33.5 115t59.5 77.5t87.5 43.5q25 6 60.5 11t70.5 9t64.5 8t44.5 10v-115q-14 -6 -38.5 -9.5t-53 -6.5t-57 -7t-49.5 -10q-54 -17 -76 -59t-22 -110q25 35 56 55t84 20q49 0 87 -18.5t64.5 -51.5t40 -78t13.5 -98
q0 -51 -15 -95.5t-45 -78t-75 -53t-104 -19.5zM292 95q49 0 77.5 34t28.5 103t-28.5 103t-77.5 34t-77.5 -34t-28.5 -103t28.5 -103t77.5 -34z" />
    <glyph glyph-name="uni0432" unicode="&#x432;" horiz-adv-x="557" 
d="M68 513h250q40 0 70.5 -10.5t51.5 -29t32 -44t11 -54.5q0 -31 -16.5 -56t-45.5 -42q46 -14 73.5 -45t27.5 -87q0 -63 -44.5 -104t-138.5 -41h-271v513zM322 95q31 0 48.5 15.5t17.5 44.5q0 28 -17.5 43.5t-48.5 15.5h-122v-119h122zM289 309q29 0 44.5 14t15.5 40
t-15.5 40.5t-44.5 14.5h-89v-109h89z" />
    <glyph glyph-name="uni0433" unicode="&#x433;" horiz-adv-x="441" 
d="M68 513h355v-98h-223v-415h-132v513z" />
    <glyph glyph-name="uni0453" unicode="&#x453;" horiz-adv-x="441" 
d="M68 513h355v-98h-223v-415h-132v513zM185 593v3l90 151h138v-3l-123 -151h-105z" />
    <glyph glyph-name="uni0491" unicode="&#x491;" horiz-adv-x="442" 
d="M200 0h-132v513h230v136h132v-234h-230v-415z" />
    <glyph glyph-name="uni0434" unicode="&#x434;" horiz-adv-x="613" 
d="M17 98h49q14 19 25 38t18.5 42t12 52.5t6.5 68.5l10 214h374v-415h68v-234h-132v136h-299v-136h-132v234zM380 98v317h-119l-4 -117q-3 -40 -7 -70t-10 -53.5t-14 -42t-20 -34.5h174z" />
    <glyph glyph-name="uni0435" unicode="&#x435;" horiz-adv-x="555" 
d="M290 -14q-56 0 -102 19t-79.5 54t-52 84.5t-18.5 111.5q0 65 20 115.5t54.5 85.5t79 53t94.5 18q51 0 94.5 -19t74.5 -52.5t48.5 -80t17.5 -101.5q0 -12 -1 -27t-3 -26h-349q8 -57 40 -92.5t92 -35.5q45 0 75.5 19t51.5 53l82 -68q-44 -58 -97 -84.5t-122 -26.5zM286 424
q-47 0 -76.5 -28t-39.5 -85h224q-6 58 -34.5 85.5t-73.5 27.5z" />
    <glyph glyph-name="uni0450" unicode="&#x450;" horiz-adv-x="555" 
d="M290 -14q-56 0 -102 19t-79.5 54t-52 84.5t-18.5 111.5q0 65 20 115.5t54.5 85.5t79 53t94.5 18q51 0 94.5 -19t74.5 -52.5t48.5 -80t17.5 -101.5q0 -12 -1 -27t-3 -26h-349q8 -57 40 -92.5t92 -35.5q45 0 75.5 19t51.5 53l82 -68q-44 -58 -97 -84.5t-122 -26.5zM286 424
q-47 0 -76.5 -28t-39.5 -85h224q-6 58 -34.5 85.5t-73.5 27.5zM128 744v3h138l90 -151v-3h-105z" />
    <glyph glyph-name="uni0451" unicode="&#x451;" horiz-adv-x="555" 
d="M290 -14q-56 0 -102 19t-79.5 54t-52 84.5t-18.5 111.5q0 65 20 115.5t54.5 85.5t79 53t94.5 18q51 0 94.5 -19t74.5 -52.5t48.5 -80t17.5 -101.5q0 -12 -1 -27t-3 -26h-349q8 -57 40 -92.5t92 -35.5q45 0 75.5 19t51.5 53l82 -68q-44 -58 -97 -84.5t-122 -26.5zM286 424
q-47 0 -76.5 -28t-39.5 -85h224q-6 58 -34.5 85.5t-73.5 27.5zM118 733h133v-125h-133v125zM329 733h132v-125h-132v125z" />
    <glyph glyph-name="uni0436" unicode="&#x436;" horiz-adv-x="784" 
d="M-2 3l190 263l-172 244v3h149l130 -200h31v200h132v-200h31l130 200h149v-3l-172 -244l190 -263v-3h-155l-142 215h-31v-215h-132v215h-31l-142 -215h-155v3z" />
    <glyph glyph-name="uni0437" unicode="&#x437;" horiz-adv-x="483" 
d="M229 -14q-78 0 -129 28.5t-84 71.5l79 78q25 -32 54 -50.5t76 -18.5q45 0 66 17t21 43q0 25 -17.5 41t-64.5 16h-79v90h79q30 0 45 17t15 39q0 26 -20.5 42.5t-58.5 16.5q-30 0 -55 -12.5t-42 -30.5l-71 79q35 36 79.5 54.5t94.5 18.5q46 0 84 -10.5t65.5 -30t42.5 -47
t15 -60.5q0 -36 -16.5 -66t-47.5 -47q40 -17 63 -48t23 -72q0 -35 -12.5 -64t-39 -50t-67.5 -33t-98 -12z" />
    <glyph glyph-name="uni0438" unicode="&#x438;" horiz-adv-x="616" 
d="M68 0v513h132v-197q0 -45 -1.5 -83.5t-5.5 -51.5h4q2 6 8.5 18t16 27t22 32t25.5 35l160 220h119v-513h-132v196q0 45 1.5 83.5t5.5 51.5h-4q-2 -6 -8.5 -18t-16.5 -27t-22 -32t-25 -35l-160 -219h-119z" />
    <glyph glyph-name="uni045D" unicode="&#x45d;" horiz-adv-x="616" 
d="M68 0v513h132v-197q0 -45 -1.5 -83.5t-5.5 -51.5h4q2 6 8.5 18t16 27t22 32t25.5 35l160 220h119v-513h-132v196q0 45 1.5 83.5t5.5 51.5h-4q-2 -6 -8.5 -18t-16.5 -27t-22 -32t-25 -35l-160 -219h-119zM148 744v3h138l90 -151v-3h-105z" />
    <glyph glyph-name="uni0439" unicode="&#x439;" horiz-adv-x="616" 
d="M68 0v513h132v-197q0 -45 -1.5 -83.5t-5.5 -51.5h4q2 6 8.5 18t16 27t22 32t25.5 35l160 220h119v-513h-132v196q0 45 1.5 83.5t5.5 51.5h-4q-2 -6 -8.5 -18t-16.5 -27t-22 -32t-25 -35l-160 -219h-119zM310 584q-58 0 -98.5 30.5t-66.5 78.5l71 50q39 -63 94 -63t94 63
l71 -50q-26 -48 -66.5 -78.5t-98.5 -30.5z" />
    <glyph glyph-name="uni043A" unicode="&#x43a;" horiz-adv-x="528" 
d="M68 513h132v-200h32l130 200h150v-3l-172 -244l190 -263v-3h-156l-142 215h-32v-215h-132v513z" />
    <glyph glyph-name="uni045C" unicode="&#x45c;" horiz-adv-x="528" 
d="M68 513h132v-200h32l130 200h150v-3l-172 -244l190 -263v-3h-156l-142 215h-32v-215h-132v513zM203 593v3l90 151h138v-3l-123 -151h-105z" />
    <glyph glyph-name="uni043B" unicode="&#x43b;" horiz-adv-x="592" 
d="M20 92q21 0 36.5 7t26.5 24.5t17 47.5t8 76l10 266h406v-513h-132v415h-148l-6 -172q-2 -75 -19 -123t-46 -76t-68 -39t-85 -11v98z" />
    <glyph glyph-name="uni043C" unicode="&#x43c;" horiz-adv-x="744" 
d="M68 0v513h171l95 -261q15 -39 25.5 -73.5t10.5 -48.5h4q0 14 10.5 48.5t25.5 73.5l95 261h171v-513h-132v145q0 33 0.5 65t1 58t1.5 45t2 25h-4q-1 -7 -6.5 -25t-13.5 -42.5t-18 -54.5t-21 -61l-54 -155h-120l-54 155q-11 31 -21 61t-18 54.5t-13.5 42.5t-6.5 25h-4
q1 -6 2 -25t1.5 -45t1 -58t0.5 -65v-145h-132z" />
    <glyph glyph-name="uni043D" unicode="&#x43d;" horiz-adv-x="606" 
d="M68 513h132v-206h206v206h132v-513h-132v209h-206v-209h-132v513z" />
    <glyph glyph-name="uni043E" unicode="&#x43e;" horiz-adv-x="586" 
d="M293 95q31 0 53.5 12t37.5 34t22.5 51.5t7.5 64.5t-7.5 64.5t-22.5 51t-37.5 33.5t-53.5 12t-53.5 -12t-37.5 -33.5t-22.5 -51t-7.5 -64.5t7.5 -64.5t22.5 -51.5t37.5 -34t53.5 -12zM293 527q58 0 105.5 -20t80.5 -56t51 -85.5t18 -108.5t-18 -109t-51 -86t-80.5 -56
t-105.5 -20q-59 0 -106 20t-80 56t-51 86t-18 109t18 108.5t51 85.5t80 56t106 20z" />
    <glyph glyph-name="uni043F" unicode="&#x43f;" horiz-adv-x="588" 
d="M68 513h452v-513h-132v415h-188v-415h-132v513z" />
    <glyph glyph-name="uni0440" unicode="&#x440;" horiz-adv-x="606" 
d="M68 513h128v-59q25 33 61 53.5t81 20.5q49 0 91 -18.5t72.5 -53.5t48 -85t17.5 -114t-17.5 -114t-48 -85t-72.5 -53.5t-91 -18.5q-43 0 -78 18t-60 49v-226h-132v686zM309 95q26 0 49 9.5t39.5 29.5t26 50.5t9.5 72.5t-9.5 72.5t-26 50.5t-39.5 29.5t-49 9.5
q-34 0 -64 -20.5t-45 -57.5v-168q15 -37 45 -57.5t64 -20.5z" />
    <glyph glyph-name="uni0441" unicode="&#x441;" horiz-adv-x="526" 
d="M39 257q0 62 17.5 112t50 85.5t79 54.5t105.5 19q33 0 64 -8.5t58.5 -26t49 -44t34.5 -62.5l-100 -47q-14 35 -41 57t-65 22q-30 0 -52 -12t-37 -33.5t-22 -51.5t-7 -65t7 -65t22 -51.5t37 -33.5t52 -12q38 0 65 22t41 57l100 -47q-13 -36 -34.5 -62.5t-49 -44t-58.5 -26
t-64 -8.5q-59 0 -105.5 19t-79 54.5t-50 85.5t-17.5 112z" />
    <glyph glyph-name="uni0442" unicode="&#x442;" horiz-adv-x="474" 
d="M171 415h-153v98h438v-98h-153v-415h-132v415z" />
    <glyph glyph-name="uni0443" unicode="&#x443;" horiz-adv-x="521" 
d="M197 65l-187 448h142l85 -234q11 -33 19 -62t8 -42h4q2 23 8 47t17 57l79 234h143l-274 -686h-143z" />
    <glyph glyph-name="uni045E" unicode="&#x45e;" horiz-adv-x="521" 
d="M197 65l-187 448h142l85 -234q11 -33 19 -62t8 -42h4q2 23 8 47t17 57l79 234h143l-274 -686h-143zM263 584q-58 0 -98.5 30.5t-66.5 78.5l71 50q39 -63 94 -63t94 63l71 -50q-26 -48 -66.5 -78.5t-98.5 -30.5z" />
    <glyph glyph-name="uni0444" unicode="&#x444;" horiz-adv-x="724" 
d="M296 -12q-66 4 -114.5 26.5t-80.5 58.5t-48 83t-16 100t16 100t48 83t80.5 58.5t114.5 26.5v186h132v-186q65 -4 113.5 -26.5t81 -58.5t48.5 -83t16 -100t-16 -100t-48.5 -83t-81 -58.5t-113.5 -26.5v-161h-132v161zM553 256q0 76 -35.5 117t-97.5 46v-326q62 5 97.5 46
t35.5 117zM171 256q0 -76 35 -117t98 -46v326q-63 -5 -98 -46t-35 -117z" />
    <glyph glyph-name="uni0445" unicode="&#x445;" horiz-adv-x="528" 
d="M170 513l94 -167l94 167h146v-4l-150 -246l166 -260v-3h-148l-108 183l-108 -183h-148v3l166 260l-150 246v4h146z" />
    <glyph glyph-name="uni0447" unicode="&#x447;" horiz-adv-x="545" 
d="M477 0h-132v172q-24 -25 -57.5 -40.5t-78.5 -15.5q-81 0 -123 51t-42 133v213h132v-196q0 -46 21 -69t54 -23q32 0 56 14t38 34v240h132v-513z" />
    <glyph glyph-name="uni0446" unicode="&#x446;" horiz-adv-x="615" 
d="M68 513h132v-415h183v415h132v-415h67v-234h-132v136h-382v513z" />
    <glyph glyph-name="uni0448" unicode="&#x448;" horiz-adv-x="888" 
d="M68 513h132v-415h178v415h132v-415h178v415h132v-513h-752v513z" />
    <glyph glyph-name="uni0449" unicode="&#x449;" horiz-adv-x="922" 
d="M68 513h132v-415h178v415h132v-415h178v415h132v-415h70v-234h-132v136h-690v513z" />
    <glyph glyph-name="uni045F" unicode="&#x45f;" horiz-adv-x="583" 
d="M68 513h132v-415h183v415h132v-513h-158v-136h-132v136h-157v513z" />
    <glyph glyph-name="uni044C" unicode="&#x44c;" horiz-adv-x="527" 
d="M68 513h132v-179h103q49 0 86 -12.5t62.5 -35t38.5 -53t13 -66.5t-13 -66.5t-38.5 -53t-62.5 -35t-86 -12.5h-235v513zM287 98q45 0 63.5 18.5t18.5 50.5t-18.5 50.5t-63.5 18.5h-87v-138h87z" />
    <glyph glyph-name="uni044A" unicode="&#x44a;" horiz-adv-x="595" 
d="M19 513h249v-179h103q49 0 86 -12.5t62.5 -35t38.5 -53t13 -66.5t-13 -66.5t-38.5 -53t-62.5 -35t-86 -12.5h-235v415h-117v98zM355 98q45 0 63.5 18.5t18.5 50.5t-18.5 50.5t-63.5 18.5h-87v-138h87z" />
    <glyph glyph-name="uni044B" unicode="&#x44b;" horiz-adv-x="795" 
d="M68 513h132v-179h103q49 0 86 -12.5t62.5 -35t38.5 -53t13 -66.5t-13 -66.5t-38.5 -53t-62.5 -35t-86 -12.5h-235v513zM287 98q45 0 63.5 18.5t18.5 50.5t-18.5 50.5t-63.5 18.5h-87v-138h87zM595 513h132v-513h-132v513z" />
    <glyph glyph-name="uni0459" unicode="&#x459;" horiz-adv-x="833" 
d="M20 92q21 0 36.5 7t26.5 24.5t17 47.5t8 76l10 266h390v-179h103q49 0 86 -12.5t62.5 -35t38.5 -53t13 -66.5t-13 -66.5t-38.5 -53t-62.5 -35t-86 -12.5h-235v415h-132l-7 -172q-3 -75 -20 -123t-45.5 -76t-67 -39t-84.5 -11v98zM595 98q45 0 63.5 18.5t18.5 50.5
t-18.5 50.5t-63.5 18.5h-87v-138h87z" />
    <glyph glyph-name="uni045A" unicode="&#x45a;" horiz-adv-x="833" 
d="M376 236h-176v-236h-132v513h132v-179h176v179h132v-179h103q49 0 86 -12.5t62.5 -35t38.5 -53t13 -66.5t-13 -66.5t-38.5 -53t-62.5 -35t-86 -12.5h-235v236zM595 98q45 0 63.5 18.5t18.5 50.5t-18.5 50.5t-63.5 18.5h-87v-138h87z" />
    <glyph glyph-name="uni0454" unicode="&#x454;" horiz-adv-x="525" 
d="M38 257q0 61 17.5 111t50 85.5t79 54.5t105.5 19q33 0 64 -8.5t58.5 -26t49 -44t34.5 -62.5l-100 -47q-14 35 -41 57t-65 22q-48 0 -76 -29.5t-37 -77.5h152v-90h-155q7 -57 35 -91.5t81 -34.5q38 0 65 22t41 57l100 -47q-13 -36 -34.5 -62.5t-49 -44t-58.5 -26t-64 -8.5
q-59 0 -105.5 19t-79 54.5t-50 85.5t-17.5 112z" />
    <glyph glyph-name="uni044D" unicode="&#x44d;" horiz-adv-x="525" 
d="M487 257q0 -62 -17.5 -112t-50 -85.5t-79.5 -54.5t-105 -19q-33 0 -64 8.5t-58.5 26t-49 44t-34.5 62.5l100 47q14 -35 41 -57t65 -22q52 0 80.5 34.5t35.5 91.5h-155v90h152q-10 48 -37.5 77.5t-75.5 29.5q-38 0 -65 -22t-41 -57l-100 47q13 36 34.5 62.5t49 44t58.5 26
t64 8.5q58 0 105 -19t79.5 -54.5t50 -85.5t17.5 -111z" />
    <glyph glyph-name="uni044E" unicode="&#x44e;" horiz-adv-x="828" 
d="M539 527q58 0 104.5 -20t79 -56t50 -85.5t17.5 -108.5t-17.5 -109t-50 -86t-79 -56t-104.5 -20q-52 0 -94.5 16t-74.5 45.5t-52 70.5t-27 91h-91v-209h-132v513h132v-206h91q7 49 27.5 89.5t52.5 69.5t74.5 45t93.5 16zM539 95q30 0 52 12t36.5 34t21.5 51.5t7 64.5
t-7 64.5t-21.5 51t-36.5 33.5t-52 12t-52 -12t-36.5 -33.5t-21.5 -51t-7 -64.5t7 -64.5t21.5 -51.5t36.5 -34t52 -12z" />
    <glyph glyph-name="uni044F" unicode="&#x44f;" horiz-adv-x="561" 
d="M8 3l160 208q-49 15 -78 53.5t-29 92.5q0 35 13.5 64t37.5 49.5t57 31.5t72 11h252v-513h-132v202h-53l-147 -202h-153v3zM361 292v126h-103q-27 0 -45 -16t-18 -47t18 -47t45 -16h103z" />
    <glyph glyph-name="uni0452" unicode="&#x452;" horiz-adv-x="570" 
d="M69 561h-51v86h51v63h132v-63h122v-86h-122v-117q24 27 60.5 45t84.5 18q46 0 79.5 -18t55.5 -50t32.5 -77.5t10.5 -100.5q0 -67 -10 -125t-26.5 -110t-39 -99t-46.5 -92l-107 51q21 43 38.5 86.5t30 89.5t19.5 95t7 104q0 71 -22.5 104t-67.5 33q-38 0 -62.5 -24
t-36.5 -53v-321h-132v561z" />
    <glyph glyph-name="uni0455" unicode="&#x455;" horiz-adv-x="462" 
d="M327 373q-20 24 -40.5 37.5t-48.5 13.5q-23 0 -38.5 -14t-15.5 -34q0 -19 10.5 -31t37.5 -19l38 -9q81 -19 120.5 -57t39.5 -109q0 -34 -14.5 -64t-41 -52.5t-64.5 -35.5t-85 -13q-67 0 -118 28.5t-86 77.5l79 74q26 -41 58.5 -59t71.5 -18q31 0 51 14.5t20 39.5
t-16.5 38t-54.5 22l-39 9q-66 15 -101 53.5t-35 102.5q0 32 12 61t35.5 50.5t58 34.5t79.5 13q59 0 100.5 -24t67.5 -60z" />
    <glyph glyph-name="uni0456" unicode="&#x456;" horiz-adv-x="268" 
d="M68 513h132v-513h-132v513zM62 723h144v-126h-144v126z" />
    <glyph glyph-name="uni0457" unicode="&#x457;" horiz-adv-x="268" 
d="M68 513h132v-513h-132v513zM-37 733h133v-125h-133v125zM174 733h132v-125h-132v125z" />
    <glyph glyph-name="uni0458" unicode="&#x458;" horiz-adv-x="267" 
d="M200 42q0 -45 -10 -81t-27.5 -64.5t-40.5 -50t-50 -37.5l-78 85q16 15 30 30t23.5 33t15 40.5t5.5 51.5v464h132v-471zM62 723h144v-126h-144v126z" />
    <glyph glyph-name="uni045B" unicode="&#x45b;" horiz-adv-x="589" 
d="M311 561h-111v-108q24 28 59 46t83 18t83 -15t57.5 -41.5t33 -64t10.5 -82.5v-314h-132v297q0 55 -26 83t-68 28q-36 0 -61 -21.5t-39 -53.5v-333h-132v561h-63v86h63v63h132v-63h111v-86z" />
    <glyph glyph-name="uni0463" unicode="&#x463;" horiz-adv-x="565" 
d="M26 513h80v197h132v-197h131v-98h-131v-81h103q49 0 86 -12.5t62.5 -35t38.5 -53t13 -66.5t-13 -66.5t-38.5 -53t-62.5 -35t-86 -12.5h-235v415h-80v98zM325 98q45 0 63.5 18.5t18.5 50.5t-18.5 50.5t-63.5 18.5h-87v-138h87z" />
    <glyph glyph-name="uni0473" unicode="&#x473;" horiz-adv-x="586" 
d="M293 527q58 0 105.5 -20t80.5 -56t51 -85.5t18 -108.5t-18 -109t-51 -86t-80.5 -56t-105.5 -20q-59 0 -106 20t-80 56t-51 86t-18 109t18 108.5t51 85.5t80 56t106 20zM293 91q52 0 81 33.5t37 89.5h-237q8 -56 37.5 -89.5t81.5 -33.5zM293 422q-51 0 -80.5 -32
t-37.5 -86h235q-8 54 -37 86t-80 32z" />
    <glyph glyph-name="ellipsis" unicode="&#x2026;" horiz-adv-x="750" 
d="M56 154h156v-154h-156v154zM297 154h156v-154h-156v154zM538 154h156v-154h-156v154z" />
    <glyph glyph-name="endash" unicode="&#x2013;" horiz-adv-x="574" 
d="M59 250v106h456v-106h-456z" />
    <glyph glyph-name="emdash" unicode="&#x2014;" horiz-adv-x="880" 
d="M59 250v106h762v-106h-762z" />
    <glyph glyph-name="uni2010" unicode="&#x2010;" horiz-adv-x="387" 
d="M59 250v106h269v-106h-269z" />
    <glyph glyph-name="uni2011" unicode="&#x2011;" horiz-adv-x="387" 
d="M59 250v106h269v-106h-269z" />
    <glyph glyph-name="figuredash" unicode="&#x2012;" 
d="M68 250v106h424v-106h-424z" />
    <glyph glyph-name="minute" unicode="&#x2032;" horiz-adv-x="256" 
d="M151 377h-104l36 279h144z" />
    <glyph glyph-name="second" unicode="&#x2033;" horiz-adv-x="460" 
d="M355 377h-104l36 279h144zM151 377h-104l36 279h144z" />
    <glyph glyph-name="guilsinglleft" unicode="&#x2039;" horiz-adv-x="346" 
d="M35 282v39l156 189h120v-3l-147 -205l147 -206v-3h-120z" />
    <glyph glyph-name="guilsinglright" unicode="&#x203a;" horiz-adv-x="346" 
d="M311 321v-39l-156 -189h-120v3l147 205l-147 206v3h120z" />
    <glyph glyph-name="quoteleft" unicode="&#x2018;" horiz-adv-x="251" 
d="M190 680l-61 -150h68v-146h-148v130l69 166h72z" />
    <glyph glyph-name="quoteright" unicode="&#x2019;" horiz-adv-x="244" 
d="M61 384l61 150h-68v146h148v-130l-69 -166h-72z" />
    <glyph glyph-name="quotedblleft" unicode="&#x201c;" horiz-adv-x="467" 
d="M406 680l-60 -150h67v-146h-148v130l69 166h72zM190 680l-60 -150h67v-146h-148v130l69 166h72z" />
    <glyph glyph-name="quotedblright" unicode="&#x201d;" horiz-adv-x="460" 
d="M61 385l61 150h-68v146h148v-130l-69 -166h-72zM277 384l61 150h-68v146h148v-130l-69 -166h-72z" />
    <glyph glyph-name="quotesinglbase" unicode="&#x201a;" horiz-adv-x="263" 
d="M65 -150l61 150h-68v146h148v-130l-69 -166h-72z" />
    <glyph glyph-name="quotedblbase" unicode="&#x201e;" horiz-adv-x="479" 
d="M65 -150l61 150h-68v146h148v-130l-69 -166h-72zM281 -150l61 150h-68v146h148v-130l-69 -166h-72z" />
    <glyph glyph-name="uni02BC" unicode="&#x2bc;" horiz-adv-x="244" 
d="M61 384l61 150h-68v146h148v-130l-69 -166h-72z" />
    <glyph glyph-name="uni02BB" unicode="&#x2bb;" horiz-adv-x="251" 
d="M190 680l-61 -150h68v-146h-148v130l69 166h72z" />
    <glyph glyph-name="bullet" unicode="&#x2022;" horiz-adv-x="400" 
d="M200 172q-30 0 -54 10t-41 27t-26.5 41t-9.5 51t9.5 51t26.5 41t41 27t54 10t54 -10t41 -27t26.5 -41t9.5 -51t-9.5 -51t-26.5 -41t-41 -27t-54 -10z" />
    <glyph glyph-name="dagger" unicode="&#x2020;" horiz-adv-x="476" 
d="M429 394h-138v-394h-106v394h-138v99h138v187h106v-187h138v-99z" />
    <glyph glyph-name="daggerdbl" unicode="&#x2021;" horiz-adv-x="476" 
d="M291 262h138v-99h-138v-163h-106v163h-138v99h138v156h-138v99h138v163h106v-163h138v-99h-138v-156z" />
    <glyph glyph-name="perthousand" unicode="&#x2030;" horiz-adv-x="1204" 
d="M523 656h98l-309 -656h-99zM196 332q-37 0 -68 12.5t-53.5 35t-35.5 53t-13 66.5t13 66.5t35.5 53t53.5 35t68 12.5t68 -12.5t53.5 -35t35.5 -53t13 -66.5t-13 -66.5t-35.5 -53t-53.5 -35t-68 -12.5zM196 419q34 0 55 23t21 57t-21 57t-55 23t-55 -23t-21 -57t21 -57
t55 -23zM638 -14q-37 0 -68 12.5t-53.5 35t-35.5 53t-13 66.5t13 66.5t35.5 53t53.5 35t68 12.5t68 -12.5t53.5 -35t35.5 -53t13 -66.5t-13 -66.5t-35.5 -53t-53.5 -35t-68 -12.5zM638 73q34 0 55 23t21 57t-21 57t-55 23t-55 -23t-21 -57t21 -57t55 -23zM1008 -14
q-37 0 -68 12.5t-53.5 35t-35.5 53t-13 66.5t13 66.5t35.5 53t53.5 35t68 12.5t68 -12.5t53.5 -35t35.5 -53t13 -66.5t-13 -66.5t-35.5 -53t-53.5 -35t-68 -12.5zM1008 73q34 0 55 23t21 57t-21 57t-55 23t-55 -23t-21 -57t21 -57t55 -23z" />
    <glyph glyph-name="uni2117" unicode="&#x2117;" horiz-adv-x="752" 
d="M376 4q-71 0 -132 25.5t-106 70.5t-70.5 106.5t-25.5 132.5t25.5 132t70.5 106t106 71t132 26q70 0 131 -26t106 -71t71 -106t26 -132t-26 -132.5t-71 -106.5t-106 -70.5t-131 -25.5zM376 97q51 0 94.5 18.5t75 51t49.5 77t18 95.5t-18 95.5t-49.5 77t-75 51t-94.5 18.5
t-94.5 -18.5t-75 -51t-49.5 -77t-18 -95.5t18 -95.5t49.5 -77t75 -51t94.5 -18.5zM262 502h133q60 0 99.5 -27t39.5 -88q0 -60 -39.5 -87t-99.5 -27h-34v-96h-99v325zM388 351q20 0 32.5 7t12.5 30q0 21 -12.5 28.5t-32.5 7.5h-27v-73h27z" />
    <glyph glyph-name="trademark" unicode="&#x2122;" horiz-adv-x="717" 
d="M32 613v67h237v-67h-79v-234h-80v234h-78zM450 620q14 -42 24 -79t11 -51h3q0 14 10 51t24 79l19 60h111v-301h-80v1v70t0.5 62.5t1.5 48t2 26.5h-3q-1 -7 -6 -26t-13 -46t-18 -59.5t-20 -66.5l-3 -10h-55l-3 10q-11 34 -20.5 66.5t-17.5 59.5t-13 46t-6 26h-3
q1 -7 2 -26.5t1.5 -48t0.5 -62.5v-70v-1h-80v301h111z" />
    <glyph glyph-name="lozenge" unicode="&#x25ca;" horiz-adv-x="576" 
d="M227 0l-199 331l199 349h122l201 -349l-201 -331h-122zM332 458q-17 32 -29 60t-12 42h-4q0 -14 -12 -42t-29 -60l-64 -127l63 -117q17 -31 29.5 -58t12.5 -41h4q0 14 12.5 41t29.5 58l63 117z" />
    <glyph glyph-name="afii61289" unicode="&#x2113;" horiz-adv-x="427" 
d="M19 204q21 12 40.5 23.5t37.5 23.5v230q0 43 12.5 78t34 60t51 38t63.5 13q35 0 61.5 -11t44.5 -30.5t27 -45.5t9 -56q0 -50 -13.5 -92t-37.5 -79t-56.5 -69t-69.5 -60v-26q0 -62 24.5 -87t72.5 -25h61v-97q-21 -2 -46 -4t-48 -2q-81 0 -127.5 38t-57.5 122l-41 -24z
M222 345q37 36 56.5 78.5t19.5 97.5q0 50 -37 50q-18 0 -28.5 -16t-10.5 -44v-166z" />
    <glyph glyph-name="afii61352" unicode="&#x2116;" horiz-adv-x="1037" 
d="M861 390q-63 0 -99.5 39.5t-36.5 100.5t36.5 100.5t99.5 39.5t99.5 -39.5t36.5 -100.5t-36.5 -100.5t-99.5 -39.5zM83 656h119l255 -359q20 -29 36 -56.5t19 -38.5h4q-4 15 -6 46t-2 64v344h135v-656h-118l-256 360q-20 29 -35.5 56t-19.5 39h-4q3 -13 5.5 -45.5
t2.5 -65.5v-344h-135v656zM861 601q-29 0 -39 -21.5t-10 -49.5t10 -49.5t39 -21.5t39 21.5t10 49.5t-10 49.5t-39 21.5zM729 269v85h263v-85h-263z" />
    <glyph glyph-name="estimated" unicode="&#x212e;" horiz-adv-x="757" 
d="M403 -14q-78 0 -144 25.5t-114 72t-75 112t-27 145.5q0 79 27 144.5t73.5 112t108.5 72t133 25.5q70 0 132.5 -25.5t109 -72t73.5 -112t27 -144.5v-18h-544v-226q42 -37 98 -56.5t122 -19.5q82 0 149.5 36t109.5 99l28 -21q-47 -71 -122 -110t-165 -39zM385 660
q-59 0 -110 -19.5t-92 -54.5v-228h408v224q-42 38 -94 58t-112 20z" />
    <glyph glyph-name="minus" unicode="&#x2212;" 
d="M501 247h-441v110h441v-110z" />
    <glyph glyph-name="lessequal" unicode="&#x2264;" 
d="M55 467l441 169v-113l-197 -71q-40 -14 -74.5 -24.5t-48.5 -10.5v-4q14 0 48.5 -10.5t74.5 -24.5l197 -71v-113l-441 169v104zM496 159v-110h-441v110h441z" />
    <glyph glyph-name="greaterequal" unicode="&#x2265;" 
d="M64 194v113l197 71q40 14 74.5 24.5t48.5 10.5v4q-14 0 -48.5 10.5t-74.5 24.5l-197 71v113l441 -169v-104zM505 49h-441v110h441v-110z" />
    <glyph glyph-name="notequal" unicode="&#x2260;" 
d="M97 9v3l51 117h-89v110h137l55 127h-192v110h240l53 120h111v-3l-52 -117h89v-110h-137l-55 -127h192v-110h-240l-52 -119z" />
    <glyph glyph-name="approxequal" unicode="&#x2248;" 
d="M64 346v113q26 19 54.5 30t58.5 11t58 -7.5t54.5 -16t51.5 -16t48 -7.5q27 0 55.5 11t57.5 31h3v-112q-25 -20 -54 -31.5t-59 -11.5q-29 0 -57 7.5t-54.5 16.5t-52 16.5t-47.5 7.5q-55 0 -114 -42h-3zM57 113v113q26 19 54.5 30t58.5 11t58 -7.5t54.5 -16t51.5 -16
t48 -7.5q27 0 55.5 11t57.5 31h3v-112q-25 -20 -54 -31.5t-59 -11.5q-29 0 -57 7.5t-54.5 16.5t-52 16.5t-47.5 7.5q-55 0 -114 -42h-3z" />
    <glyph glyph-name="partialdiff" unicode="&#x2202;" horiz-adv-x="552" 
d="M50 584q27 51 77 80.5t121 29.5q59 0 107 -24.5t81.5 -72t52 -118t18.5 -163.5q0 -75 -14.5 -135.5t-44 -104t-75 -67t-107.5 -23.5q-48 0 -88.5 18t-70 50t-46 77t-16.5 98q0 55 14.5 99t41 74.5t62.5 47t79 16.5q44 0 77 -20.5t55 -52.5q-6 90 -36 139.5t-91 49.5
q-35 0 -62.5 -17.5t-44.5 -51.5zM361 227q0 26 -5.5 49t-16.5 40.5t-28 27.5t-40 10t-40 -10t-28 -27.5t-16.5 -40.5t-5.5 -49q0 -27 5.5 -50t16.5 -40t28 -27t40 -10t40 10t28 27t16.5 40t5.5 50z" />
    <glyph glyph-name="product" unicode="&#x220f;" horiz-adv-x="690" 
d="M607 -175h-135v745h-254v-745h-135v855h524v-855z" />
    <glyph glyph-name="radical" unicode="&#x221a;" horiz-adv-x="554" 
d="M202 265q14 -43 24.5 -80.5t10.5 -51.5h4q0 14 9.5 51.5t23.5 81.5l134 444h142l-239 -710h-145l-155 398h149z" />
    <glyph glyph-name="summation" unicode="&#x2211;" horiz-adv-x="534" 
d="M201 570l178 -314l-178 -321h297v-110h-461v94l188 337l-188 330v94h461v-110h-297z" />
    <glyph glyph-name="integral" unicode="&#x222b;" horiz-adv-x="443" 
d="M361 694q17 0 36 -0.5t32 -2.5v-113h-42q-27 0 -42.5 -16.5t-20.5 -53.5l-70 -524q-5 -36 -16 -67.5t-31.5 -54.5t-51 -36t-73.5 -13q-17 0 -36 0.5t-32 1.5v114h42q27 0 43 16t21 53l71 524q5 36 16 67.5t31 55t50 36.5t73 13z" />
    <glyph glyph-name="infinity" unicode="&#x221e;" horiz-adv-x="740" 
d="M695 302q0 -42 -13 -77.5t-36.5 -60.5t-55 -39t-67.5 -14q-48 0 -84.5 24t-69.5 75q-33 -51 -69.5 -75t-83.5 -24q-36 0 -67.5 14t-55 39t-36.5 60.5t-13 77.5t13 77.5t36.5 60.5t55 39t67.5 14q47 0 83.5 -24.5t69.5 -75.5q33 51 69.5 75.5t84.5 24.5q36 0 67.5 -14
t55 -39t36.5 -60.5t13 -77.5zM585 302q0 46 -21 69.5t-47 23.5q-20 0 -43 -19.5t-49 -73.5q26 -54 49 -73.5t43 -19.5q26 0 47 23.5t21 69.5zM154 302q0 -46 21 -69.5t47 -23.5q20 0 43 19.5t49 73.5q-26 54 -49 73.5t-43 19.5q-26 0 -47 -23.5t-21 -69.5z" />
    <glyph glyph-name="Euro" unicode="&#x20ac;" 
d="M85 357h-54v85h63q23 119 90 173.5t163 54.5q63 0 109.5 -27t78.5 -75l-83 -74q-23 30 -48 45.5t-59 15.5q-43 0 -72.5 -25t-43.5 -88h180v-85h-190v-29v-30h190v-85h-180q14 -63 43.5 -87.5t72.5 -24.5q34 0 59 15.5t48 45.5l83 -74q-32 -48 -78.5 -75t-109.5 -27
q-96 0 -162.5 54t-89.5 173h-64v85h54v30v29z" />
    <glyph glyph-name="uni20A9" unicode="&#x20a9;" 
d="M1 477h37l-20 179h123l14 -183h52l18 183h110l17 -183h53l14 183h123l-21 -179h38v-84h-47l-7 -59h54v-84h-64l-28 -250h-146l-23 254h-37l-22 -254h-146l-29 250h-63v84h54l-7 59h-47v84zM166 330h28l6 68h-39zM366 330h28l5 68h-40zM381 112l10 142h-22zM179 112
l11 142h-21zM268 330h23l-6 68h-11z" />
    <glyph glyph-name="uni20A9.cv01" horiz-adv-x="857" 
d="M46 467h60l-36 189h128l32 -193h99l34 193h132l34 -193h98l32 193h128l-36 -189h60v-85h-76l-12 -59h88v-84h-104l-45 -239h-146l-43 243h-90l-42 -243h-146l-46 239h-103v84h87l-11 59h-76v85zM253 320h51l12 67h-74zM554 320h50l11 67h-73zM397 320h63l-12 67h-39z
M278 130l16 113h-32zM580 130l14 113h-30zM420 463h16l-8 70z" />
    <glyph glyph-name="uni20B4" unicode="&#x20b4;" 
d="M39 455h296q8 13 13 26.5t5 29.5q0 24 -18 46t-61 22q-76 0 -124 -71l-77 75q33 49 81 80t117 31q54 0 94.5 -15.5t67.5 -40.5t40.5 -56.5t13.5 -62.5q0 -36 -12 -64h46v-85h-111q-20 -17 -41.5 -31t-43.5 -28h196v-85h-297q-14 -23 -14 -50q0 -12 2.5 -25t11.5 -24.5
t26 -18.5t45 -7q39 0 75 19t74 55l60 -94q-49 -45 -99.5 -70t-114.5 -25q-54 0 -94 13.5t-66.5 37t-40 55.5t-13.5 69q0 34 14 65h-51v85h119q20 16 40.5 30.5t40.5 28.5h-200v85z" />
    <glyph glyph-name="uni20B9" unicode="&#x20b9;" 
d="M499 571h-126q17 -17 28.5 -35t17.5 -39h80v-85h-78q-12 -65 -58.5 -105.5t-114.5 -50.5l252 -253v-3h-173l-256 263v86h117q80 0 100 63h-217v85h217q-10 29 -35 45.5t-65 16.5h-117v97h428v-85z" />
    <glyph glyph-name="uni20BA" unicode="&#x20ba;" 
d="M119 437v219h130v-176l150 51v-90l-150 -50v-62l150 50v-89l-150 -51v-131h51q40 0 73.5 26t51.5 91l105 -35q-28 -99 -86.5 -144.5t-130.5 -45.5h-194v196l-56 -19v90l56 18v62l-56 -18v89z" />
    <glyph glyph-name="uni20BD" unicode="&#x20bd;" 
d="M30 375h50v305h228q49 0 91 -12.5t72.5 -38t47.5 -63.5t17 -90q0 -47 -15 -82t-42 -58t-64 -34.5t-81 -11.5h-118v-59h227v-85h-227v-146h-136v146h-50v85h50v59h-50v85zM294 375q45 0 73.5 23t28.5 78t-28.5 78t-73.5 23h-78v-202h78z" />
    <glyph glyph-name="fi" unicode="&#xfb01;" horiz-adv-x="621" 
d="M106 415h-82v98h82v35q0 37 10 69t31 55t52.5 36.5t73.5 13.5q17 0 31.5 -1t30.5 -3v-104h-21q-42 0 -59 -15.5t-17 -52.5v-33h97v-98h-97v-415h-132v415zM421 513h132v-513h-132v513zM415 723h144v-126h-144v126z" />
    <glyph glyph-name="fl" unicode="&#xfb02;" horiz-adv-x="621" 
d="M106 415h-82v98h82v35q0 37 10 69t31 55t52.5 36.5t73.5 13.5q17 0 31.5 -1t30.5 -3v-104h-21q-42 0 -59 -15.5t-17 -52.5v-33h97v-98h-97v-415h-132v415zM421 710h132v-710h-132v710z" />
    <glyph glyph-name="breve" unicode="&#x2d8;" horiz-adv-x="608" 
d="M312 574q-58 0 -98.5 30.5t-66.5 78.5l71 50q39 -63 94 -63t94 63l71 -50q-26 -48 -66.5 -78.5t-98.5 -30.5z" />
    <glyph glyph-name="caron" unicode="&#x2c7;" horiz-adv-x="605" 
d="M254 583l-121 151v3h108l69 -70l69 70h108v-3l-122 -151h-111z" />
    <glyph glyph-name="circumflex" unicode="&#x2c6;" horiz-adv-x="605" 
d="M366 737l121 -151v-3h-108l-70 70l-68 -70h-108v3l122 151h111z" />
    <glyph glyph-name="dotaccent" unicode="&#x2d9;" horiz-adv-x="646" 
d="M251 723h144v-126h-144v126z" />
    <glyph glyph-name="hungarumlaut" unicode="&#x2dd;" horiz-adv-x="589" 
d="M110 583v3l84 151h125v-3l-104 -151h-105zM302 583v3l90 151h128v-3l-113 -151h-105z" />
    <glyph glyph-name="ogonek" unicode="&#x2db;" horiz-adv-x="632" 
d="M387 0q-43 -17 -66 -36t-23 -44q0 -12 7.5 -21.5t27.5 -9.5q22 0 42 13l31 -65q-32 -24 -89 -24q-54 0 -86 27t-32 70q0 37 23.5 67t67.5 52z" />
    <glyph glyph-name="ring" unicode="&#x2da;" horiz-adv-x="630" 
d="M208 680q0 23 9 42.5t25 33.5t36.5 22t43.5 8t43.5 -8t36 -22t24.5 -33.5t9 -42.5t-9 -42.5t-24.5 -33.5t-36 -22t-43.5 -8t-43.5 8t-36.5 22t-25 33.5t-9 42.5zM280 680q0 -18 11.5 -30t30.5 -12q18 0 29.5 12t11.5 30q0 19 -11.5 30.5t-29.5 11.5q-19 0 -30.5 -11.5
t-11.5 -30.5z" />
    <glyph glyph-name="tilde" unicode="&#x2dc;" horiz-adv-x="599" 
d="M224 634q-15 0 -23.5 -14.5t-14.5 -37.5l-84 27q31 121 123 121q24 0 41.5 -8t31 -18t24 -18t21.5 -8q16 0 25 14.5t15 37.5l83 -27q-29 -121 -123 -121q-24 0 -42 8t-31.5 18t-24.5 18t-21 8z" />
    <glyph glyph-name="uni0326" unicode="&#x326;" horiz-adv-x="0" 
d="M-335 -156l-57 -115h-73l50 95h-54v103h134v-83z" />
    <glyph glyph-name="uni0326.alt" horiz-adv-x="0" 
d="M243 666l57 115h73l-50 -95h54v-103h-134v83z" />
    <glyph glyph-name="caron.slovak" horiz-adv-x="343" 
d="M116 479v231h117l-33 -231h-84z" />
    <glyph glyph-name="ogonek.i" horiz-adv-x="631" 
d="M386 0q-38 -17 -58 -35t-20 -42q0 -14 7.5 -24t27.5 -10q22 0 42 13l31 -65q-32 -24 -89 -24q-54 0 -86 27t-32 70q0 32 15.5 57t44.5 45z" />
    <glyph glyph-name="uni2007" unicode="&#x2007;" 
 />
    <glyph glyph-name="uni2008" unicode="&#x2008;" horiz-adv-x="268" 
 />
    <glyph glyph-name="uni2009" unicode="&#x2009;" horiz-adv-x="80" 
 />
    <glyph glyph-name="uni200B" unicode="&#x200b;" horiz-adv-x="0" 
 />
    <glyph glyph-name="uniFEFF" unicode="&#xfeff;" horiz-adv-x="0" 
 />
    <glyph glyph-name="one" unicode="1" 
d="M362 108h134v-108h-401v108h140v406l-109 -69l-47 97l190 114h93v-548z" />
    <glyph glyph-name="two" unicode="2" 
d="M56 511q9 27 25 55t41.5 51.5t61 38t82.5 14.5q53 0 94 -16t68.5 -43.5t42 -64.5t14.5 -80q0 -49 -15 -88.5t-39 -72t-54 -59t-59 -49.5t-55 -45t-42 -44h273v-108h-430v92q18 40 47 73.5t61 63t64.5 56.5t58.5 54.5t42.5 56.5t16.5 63q0 21 -4.5 38.5t-15.5 31t-29 21
t-45 7.5q-38 0 -62 -23t-37 -65z" />
    <glyph glyph-name="three" unicode="3" 
d="M253 -14q-45 0 -79.5 10.5t-60 27t-44 37t-31.5 40.5l85 81q10 -15 21.5 -29.5t26.5 -26.5t35 -19.5t47 -7.5q52 0 84.5 25t32.5 73q0 44 -30.5 67.5t-91.5 23.5h-53v106h53q48 0 69 25t21 59q0 39 -23 59t-59 20q-48 0 -75 -19.5t-43 -47.5l-75 76q30 42 79.5 73
t113.5 31q103 0 158 -49t55 -134q0 -41 -22.5 -77t-62.5 -59q57 -20 87 -63t30 -101q0 -47 -19.5 -84t-53 -63t-78.5 -40t-97 -14z" />
    <glyph glyph-name="four" unicode="4" 
d="M539 269v-108h-97v-161h-127v161h-303v89l263 406h167v-387h97zM315 427q0 38 2 70t5 47h-4q-4 -16 -18.5 -43.5t-34.5 -59.5l-111 -172h161v158z" />
    <glyph glyph-name="five" unicode="5" 
d="M469 548h-244l-11 -111q17 5 34.5 8.5t37.5 3.5q43 0 82.5 -15t70 -44t48.5 -72t18 -99q0 -49 -18.5 -91.5t-51.5 -74t-79 -49.5t-102 -18q-45 0 -79.5 10.5t-60.5 27t-45 37t-32 40.5l85 81q10 -15 22 -29.5t27.5 -26.5t36 -19.5t47.5 -7.5q25 0 46.5 8.5t37.5 24.5
t25.5 38t9.5 49q0 55 -32.5 86.5t-81.5 31.5q-32 0 -52.5 -10.5t-39.5 -27.5l-81 25l27 332h355v-108z" />
    <glyph glyph-name="six" unicode="6" 
d="M435 487q-20 31 -51.5 50.5t-73.5 19.5q-56 0 -96 -45t-47 -141q26 32 62.5 51.5t87.5 19.5q42 0 79.5 -16t66 -45.5t45.5 -71t17 -92.5t-18.5 -93t-50.5 -73t-74.5 -48t-91.5 -17q-63 0 -110 24.5t-79 68t-48 103t-16 130.5q0 84 19 150.5t54.5 112.5t86 70.5
t113.5 24.5q75 0 128.5 -32t82.5 -77zM184 215q0 -50 27 -83t78 -33t78 33t27 83t-27 83t-78 33t-78 -33t-27 -83z" />
    <glyph glyph-name="seven" unicode="7" 
d="M496 656v-88l-235 -568h-139v3l232 545h-287v108h429z" />
    <glyph glyph-name="eight" unicode="8" 
d="M281 -14q-62 0 -108.5 15t-77.5 42t-46 63.5t-15 78.5q0 59 30.5 105.5t84.5 63.5q-42 22 -62.5 57.5t-20.5 81.5q0 36 13.5 68t40 56t67 38.5t94.5 14.5t94.5 -14.5t67 -38.5t40 -56t13.5 -68q0 -46 -21 -81.5t-63 -57.5q54 -17 85 -63.5t31 -105.5q0 -42 -15.5 -78.5
t-46 -63.5t-77 -42t-108.5 -15zM281 96q60 0 87.5 29.5t27.5 71.5t-27.5 71.5t-87.5 29.5t-87.5 -29.5t-27.5 -71.5t27.5 -71.5t87.5 -29.5zM281 405q38 0 61 21.5t23 57.5t-23 57.5t-61 21.5t-61 -21.5t-23 -57.5t23 -57.5t61 -21.5z" />
    <glyph glyph-name="nine" unicode="9" 
d="M127 169q20 -31 51.5 -50.5t73.5 -19.5q56 0 96 45t47 141q-26 -32 -62.5 -51.5t-87.5 -19.5q-42 0 -80 16t-66.5 45.5t-45 71t-16.5 92.5t18.5 93t50.5 73t74.5 48t91.5 17q63 0 110 -24.5t79 -68t48 -103t16 -130.5q0 -84 -19 -150.5t-54.5 -112.5t-86 -70.5
t-113.5 -24.5q-75 0 -128.5 32t-82.5 77zM378 441q0 50 -27 83t-78 33t-78 -33t-27 -83t27 -83t78 -33t78 33t27 83z" />
    <glyph glyph-name="zero" unicode="0" 
d="M280 -14q-117 0 -178.5 87t-61.5 255t61.5 255t178.5 87t178.5 -87t61.5 -255t-61.5 -255t-178.5 -87zM280 99q55 0 82 54t27 175t-27 175t-82 54t-82 -54t-27 -175t27 -175t82 -54z" />
    <glyph glyph-name="one.case" horiz-adv-x="408" 
d="M325 0h-135v528l-135 -76l-50 103l221 125h99v-680z" />
    <glyph glyph-name="two.case" horiz-adv-x="537" 
d="M35 529q9 28 26 57.5t43.5 53.5t63.5 39t86 15q56 0 98.5 -16.5t71.5 -45t44 -67t15 -82.5q0 -52 -15.5 -93t-40.5 -74.5t-56 -61t-61 -52t-56.5 -47t-42.5 -45.5h281v-110h-448v98q19 41 49 75.5t63 65t66.5 58.5t60 56.5t43.5 58t17 63.5q0 21 -4.5 40t-16 33t-30 22
t-45.5 8q-39 0 -63 -24t-37 -69z" />
    <glyph glyph-name="three.case" horiz-adv-x="544" 
d="M243 -14q-47 0 -82.5 11t-62 28t-45.5 38t-33 42l89 84q10 -15 22 -30.5t27.5 -28t36.5 -20.5t48 -8q53 0 86 26.5t33 76.5q0 45 -31 68.5t-94 23.5h-54v112h54q49 0 70.5 25.5t21.5 60.5q0 41 -23 62t-60 21q-50 0 -78 -20.5t-45 -49.5l-78 79q16 21 37 40.5t46.5 34.5
t55 23.5t62.5 8.5q108 0 165.5 -51t57.5 -138q0 -42 -23 -80t-65 -61q60 -20 90.5 -65t30.5 -105q0 -48 -20 -86.5t-55.5 -65.5t-82.5 -41.5t-101 -14.5z" />
    <glyph glyph-name="four.case" horiz-adv-x="600" 
d="M570 279v-110h-100v-169h-135v169h-313v91l270 420h178v-401h100zM335 440q0 39 2 73t5 49h-4q-4 -17 -19 -46t-36 -62l-111 -175h163v161z" />
    <glyph glyph-name="five.case" horiz-adv-x="545" 
d="M470 570h-251l-12 -116q36 11 73 11q44 0 85.5 -15.5t73 -45.5t50.5 -74.5t19 -102.5q0 -51 -19 -95t-53.5 -76.5t-83 -51t-106.5 -18.5q-48 0 -84 11t-63 28t-46 38t-33 42l89 85q10 -15 22.5 -31t29 -28.5t37.5 -20.5t49 -8q25 0 47 9t38.5 25.5t26 39.5t9.5 51
q0 57 -33 89.5t-83 32.5q-32 0 -53 -11.5t-40 -28.5l-86 26l27 345h370v-110z" />
    <glyph glyph-name="six.case" horiz-adv-x="600" 
d="M461 505q-21 32 -54 52.5t-77 20.5q-57 0 -97 -45.5t-48 -144.5q27 32 64.5 52t88.5 20q43 0 82.5 -16.5t69 -47.5t47 -74t17.5 -97q0 -53 -19.5 -96.5t-52.5 -75.5t-77.5 -49.5t-95.5 -17.5q-65 0 -114.5 25.5t-82.5 70.5t-49.5 107t-16.5 135q0 87 20 155.5t56.5 116
t89 73t118.5 25.5q78 0 133.5 -32.5t86.5 -79.5zM202 223q0 -52 27 -86.5t79 -34.5t79 34.5t27 86.5t-27 86.5t-79 34.5t-79 -34.5t-27 -86.5z" />
    <glyph glyph-name="seven.case" horiz-adv-x="489" 
d="M468 680v-93l-242 -587h-147v3l240 567h-297v110h446z" />
    <glyph glyph-name="eight.case" horiz-adv-x="598" 
d="M299 -14q-65 0 -113 15.5t-80 43.5t-48 65.5t-16 81.5q0 61 32 109t88 65q-45 23 -66.5 60t-21.5 85q0 37 14 70t42 58t70 40t99 15t99 -15t70 -40t42 -58t14 -70q0 -48 -22 -85t-66 -60q56 -17 88 -65t32 -109q0 -44 -16 -81.5t-48 -65.5t-80 -43.5t-113 -15.5zM299 307
q-62 0 -89.5 -30t-27.5 -72t27.5 -72.5t89.5 -30.5t89.5 30.5t27.5 72.5t-27.5 72t-89.5 30zM299 580q-39 0 -62 -21.5t-23 -57.5t23 -58t62 -22t62 22t23 58t-23 57.5t-62 21.5z" />
    <glyph glyph-name="nine.case" horiz-adv-x="600" 
d="M139 176q21 -32 54 -52.5t77 -20.5q57 0 97 45.5t48 144.5q-27 -32 -64.5 -52t-88.5 -20q-44 0 -83 16.5t-68.5 47.5t-47 74t-17.5 97q0 52 19.5 96t52.5 76t77.5 49.5t95.5 17.5q65 0 114.5 -25.5t82.5 -70.5t49.5 -107t16.5 -135q0 -87 -20 -155.5t-56.5 -116t-89 -73
t-118.5 -25.5q-78 0 -133.5 32.5t-86.5 79.5zM398 458q0 52 -27 86.5t-79 34.5t-79 -34.5t-27 -86.5t27 -86.5t79 -34.5t79 34.5t27 86.5z" />
    <glyph glyph-name="zero.case" horiz-adv-x="628" 
d="M314 -14q-65 0 -114.5 24.5t-83.5 70t-51.5 111t-17.5 148.5q0 82 17.5 148t51.5 111.5t83.5 70t114.5 24.5q64 0 114 -24.5t84 -70t51.5 -111.5t17.5 -148q0 -83 -17.5 -148.5t-51.5 -111t-84 -70t-114 -24.5zM314 102q69 0 98 63.5t29 174.5t-29 174.5t-98 63.5
t-98 -63.5t-29 -174.5t29 -174.5t98 -63.5z" />
    <glyph glyph-name="arrowright" unicode="&#x2192;" 
d="M381 345l-134 149l70 69l245 -269l-245 -269l-70 69l134 149h-374v102h374z" />
    <glyph glyph-name="arrowleft" unicode="&#x2190;" 
d="M180 238l134 -150l-70 -68l-245 269l245 269l70 -69l-135 -150h375v-102z" />
    <glyph glyph-name="arrowup" unicode="&#x2191;" 
d="M229 394l-149 -134l-69 70l269 245l269 -245l-69 -70l-149 134v-374h-102v374z" />
    <glyph glyph-name="arrowdown" unicode="&#x2193;" 
d="M331 194l149 134l69 -70l-269 -245l-269 245l69 70l149 -134v374h102v-374z" />
    <glyph glyph-name="uni2196" unicode="&#x2196;" 
d="M451 476v-101l-205 1l260 -256l-72 -72l-256 260l1 -205h-102v373h374z" />
    <glyph glyph-name="uni2197" unicode="&#x2197;" 
d="M483 95h-101l1 205l-256 -260l-72 72l260 256l-205 -1v102h373v-374z" />
    <glyph glyph-name="uni2198" unicode="&#x2198;" 
d="M483 431v-373h-374v101l205 -1l-260 256l72 72l256 -260l-1 205h102z" />
    <glyph glyph-name="uni2199" unicode="&#x2199;" 
d="M77 424h101l-1 -205l256 260l72 -72l-260 -256l205 1v-102h-373v374z" />
    <glyph glyph-name="uni25CB" unicode="&#x25cb;" 
d="M85 340q0 42 15 77.5t41 61.5t61.5 41t77.5 15t77.5 -15t61.5 -41t41 -61.5t15 -77.5t-15 -77.5t-41 -61.5t-61.5 -41t-77.5 -15t-77.5 15t-61.5 41t-41 61.5t-15 77.5zM193 340q0 -42 24.5 -67.5t62.5 -25.5t62.5 25.5t24.5 67.5t-24.5 67.5t-62.5 25.5t-62.5 -25.5
t-24.5 -67.5z" />
    <glyph glyph-name="uni25CF" unicode="&#x25cf;" 
d="M85 340q0 42 15 77.5t41 61.5t61.5 41t77.5 15t77.5 -15t61.5 -41t41 -61.5t15 -77.5t-15 -77.5t-41 -61.5t-61.5 -41t-77.5 -15t-77.5 15t-61.5 41t-41 61.5t-15 77.5z" />
    <glyph glyph-name="uni2150" unicode="&#x2150;" horiz-adv-x="783" 
d="M255 0h-103l310 656h102zM751 364v-66l-124 -298h-104v2l119 279h-152v83h261zM220 292h-96v260l-65 -38l-36 71l129 71h68v-364z" />
    <glyph glyph-name="uni2151" unicode="&#x2151;" horiz-adv-x="772" 
d="M242 0h-103l310 656h102zM515 101q8 -12 22.5 -21t34.5 -9q25 0 45 20.5t23 67.5q-14 -15 -33 -24t-45 -9q-24 0 -45.5 8t-38 23t-26.5 36.5t-10 49.5q0 29 11.5 52.5t31 40.5t45.5 26.5t55 9.5q38 0 67 -14t48.5 -38t29 -57t9.5 -71q0 -95 -44.5 -147.5t-122.5 -52.5
q-42 0 -72 17t-47 42zM631 245q0 23 -12.5 36t-32.5 13t-32 -13t-12 -36q0 -24 12 -37t32 -13t32.5 13t12.5 37zM220 292h-96v260l-65 -38l-36 71l129 71h68v-364z" />
    <glyph glyph-name="uni2152" unicode="&#x2152;" horiz-adv-x="1041" 
d="M242 0h-103l310 656h102zM638 0h-96v260l-65 -38l-36 71l129 71h68v-364zM1008 182q0 -88 -41.5 -139t-114.5 -51t-114.5 51t-41.5 139t41.5 139t114.5 51t114.5 -51t41.5 -139zM908 182q0 54 -13 79.5t-43 25.5t-42.5 -25.5t-12.5 -79.5t12.5 -80t42.5 -26t43 26t13 80z
M220 292h-96v260l-65 -38l-36 71l129 71h68v-364z" />
    <glyph glyph-name="onethird" unicode="&#x2153;" horiz-adv-x="760" 
d="M244 0h-103l310 656h102zM579 -8q-24 0 -45.5 5.5t-38.5 14.5t-30.5 19.5t-22.5 20.5l54 64q13 -14 33 -27t49 -13q23 0 35.5 10t12.5 29q0 17 -13.5 26t-37.5 9h-39v70h39q15 0 23.5 9t8.5 24q0 16 -9 25.5t-26 9.5q-20 0 -34 -10t-22 -21l-56 59q19 22 46.5 39t71.5 17
q64 0 97 -27t33 -75q0 -22 -11.5 -43t-33.5 -35q32 -10 47.5 -33.5t15.5 -54.5q0 -27 -11.5 -48t-31.5 -35t-47 -21.5t-57 -7.5zM220 292h-96v260l-65 -38l-36 71l129 71h68v-364z" />
    <glyph glyph-name="uni2155" unicode="&#x2155;" horiz-adv-x="754" 
d="M245 0h-103l310 656h102zM699 283h-141l-4 -53q22 5 39 5q25 0 47.5 -7t39 -21.5t26 -36t9.5 -50.5q0 -63 -39.5 -95.5t-108.5 -32.5q-48 0 -81 19.5t-50 37.5l51 64q11 -12 31 -25.5t49 -13.5q23 0 35.5 12.5t12.5 33.5q0 19 -12 30.5t-33 11.5q-20 0 -30.5 -6.5
t-18.5 -12.5l-56 20l15 201h219v-81zM220 292h-96v260l-65 -38l-36 71l129 71h68v-364z" />
    <glyph glyph-name="uni2159" unicode="&#x2159;" horiz-adv-x="772" 
d="M249 0h-103l310 656h102zM664 262q-7 12 -21.5 21t-34.5 9q-26 0 -46 -20.5t-22 -67.5q14 15 32.5 24t44.5 9q24 0 46 -8t38.5 -23t26.5 -36.5t10 -49.5q0 -29 -11.5 -52.5t-31 -40t-45.5 -26t-55 -9.5q-38 0 -67 14t-48.5 38t-29 56.5t-9.5 70.5q0 95 44.5 148t122.5 53
q42 0 72 -17t47 -42zM549 118q0 -23 12.5 -36t32.5 -13t32 13t12 36q0 24 -12 37t-32 13t-32.5 -13t-12.5 -37zM220 292h-96v260l-65 -38l-36 71l129 71h68v-364z" />
    <glyph glyph-name="oneeighth" unicode="&#x215b;" horiz-adv-x="759" 
d="M248 0h-103l310 656h102zM575 372q35 0 60.5 -9t42 -23.5t24.5 -33t8 -38.5q0 -50 -45 -76q29 -10 44.5 -34t15.5 -54q0 -23 -9 -43t-27 -35.5t-46.5 -24.5t-67.5 -9t-67.5 9t-46.5 24.5t-27 35.5t-9 43q0 30 15.5 54t44.5 34q-45 26 -45 76q0 20 8 38.5t24.5 33t42 23.5
t60.5 9zM534 261q0 -17 11 -27t30 -10t30 10t11 27t-11 27t-30 10t-30 -10t-11 -27zM524 115q0 -20 13.5 -33t37.5 -13t37.5 13t13.5 33q0 19 -13.5 31.5t-37.5 12.5t-37.5 -12.5t-13.5 -31.5zM220 292h-96v260l-65 -38l-36 71l129 71h68v-364z" />
    <glyph glyph-name="twothirds" unicode="&#x2154;" horiz-adv-x="809" 
d="M303 0h-103l310 656h102zM634 -8q-24 0 -45.5 5.5t-38.5 14.5t-30.5 19.5t-22.5 20.5l54 64q13 -14 33 -27t49 -13q23 0 35.5 10t12.5 29q0 17 -13.5 26t-37.5 9h-39v70h39q15 0 23.5 9t8.5 24q0 16 -9 25.5t-26 9.5q-20 0 -34 -10t-22 -21l-56 59q19 22 46.5 39t71.5 17
q64 0 97 -27t33 -75q0 -22 -11.5 -43t-33.5 -35q32 -10 47.5 -33.5t15.5 -54.5q0 -27 -11.5 -48t-31.5 -35t-47 -21.5t-57 -7.5zM36 564q5 16 15 34t25.5 32.5t36.5 24t49 9.5q32 0 57 -9.5t41.5 -25.5t25 -37t8.5 -44q0 -40 -15.5 -67.5t-36.5 -47t-43 -33.5t-34 -27h131
v-81h-256v68q16 32 42 56.5t51 45.5t43.5 40t18.5 40q0 14 -7.5 25.5t-28.5 11.5q-20 0 -32 -14t-19 -35z" />
    <glyph glyph-name="uni2156" unicode="&#x2156;" horiz-adv-x="800" 
d="M306 0h-103l310 656h102zM751 283h-141l-4 -53q22 5 39 5q25 0 47.5 -7t39 -21.5t26 -36t9.5 -50.5q0 -63 -39.5 -95.5t-108.5 -32.5q-48 0 -81 19.5t-50 37.5l51 64q11 -12 31 -25.5t49 -13.5q23 0 35.5 12.5t12.5 33.5q0 19 -12 30.5t-33 11.5q-20 0 -30.5 -6.5
t-18.5 -12.5l-56 20l15 201h219v-81zM35 564q5 16 15 34t25.5 32.5t36.5 24t49 9.5q32 0 57 -9.5t41.5 -25.5t25 -37t8.5 -44q0 -40 -15.5 -67.5t-36.5 -47t-43 -33.5t-34 -27h131v-81h-256v68q16 32 42 56.5t51 45.5t43.5 40t18.5 40q0 14 -7.5 25.5t-28.5 11.5
q-20 0 -32 -14t-19 -35z" />
    <glyph glyph-name="uni2157" unicode="&#x2157;" horiz-adv-x="805" 
d="M299 0h-103l310 656h102zM753 283h-141l-4 -53q22 5 39 5q25 0 47.5 -7t39 -21.5t26 -36t9.5 -50.5q0 -63 -39.5 -95.5t-108.5 -32.5q-48 0 -81 19.5t-50 37.5l51 64q11 -12 31 -25.5t49 -13.5q23 0 35.5 12.5t12.5 33.5q0 19 -12 30.5t-33 11.5q-20 0 -30.5 -6.5
t-18.5 -12.5l-56 20l15 201h219v-81zM163 284q-24 0 -45.5 5.5t-38.5 14.5t-30.5 19.5t-22.5 20.5l54 64q13 -14 33 -27t49 -13q23 0 35.5 10t12.5 29q0 17 -13.5 26t-37.5 9h-39v70h39q15 0 23.5 9t8.5 24q0 16 -9 25.5t-26 9.5q-20 0 -34 -10t-22 -21l-56 59
q19 22 46.5 39t71.5 17q64 0 97 -27t33 -75q0 -22 -11.5 -43t-33.5 -35q32 -10 47.5 -33.5t15.5 -54.5q0 -27 -11.5 -48t-31.5 -35t-47 -21.5t-57 -7.5z" />
    <glyph glyph-name="threeeighths" unicode="&#x215c;" horiz-adv-x="793" 
d="M290 0h-103l310 656h102zM612 372q35 0 60.5 -9t42 -23.5t24.5 -33t8 -38.5q0 -50 -45 -76q29 -10 44.5 -34t15.5 -54q0 -23 -9 -43t-27 -35.5t-46.5 -24.5t-67.5 -9t-67.5 9t-46.5 24.5t-27 35.5t-9 43q0 30 15.5 54t44.5 34q-45 26 -45 76q0 20 8 38.5t24.5 33t42 23.5
t60.5 9zM571 261q0 -17 11 -27t30 -10t30 10t11 27t-11 27t-30 10t-30 -10t-11 -27zM561 115q0 -20 13.5 -33t37.5 -13t37.5 13t13.5 33q0 19 -13.5 31.5t-37.5 12.5t-37.5 -12.5t-13.5 -31.5zM164 284q-24 0 -45.5 5.5t-38.5 14.5t-30.5 19.5t-22.5 20.5l54 64
q13 -14 33 -27t49 -13q23 0 35.5 10t12.5 29q0 17 -13.5 26t-37.5 9h-39v70h39q15 0 23.5 9t8.5 24q0 16 -9 25.5t-26 9.5q-20 0 -34 -10t-22 -21l-56 59q19 22 46.5 39t71.5 17q64 0 97 -27t33 -75q0 -22 -11.5 -43t-33.5 -35q32 -10 47.5 -33.5t15.5 -54.5
q0 -27 -11.5 -48t-31.5 -35t-47 -21.5t-57 -7.5z" />
    <glyph glyph-name="uni2158" unicode="&#x2158;" horiz-adv-x="836" 
d="M329 0h-103l310 656h102zM783 283h-141l-4 -53q22 5 39 5q25 0 47.5 -7t39 -21.5t26 -36t9.5 -50.5q0 -63 -39.5 -95.5t-108.5 -32.5q-48 0 -81 19.5t-50 37.5l51 64q11 -12 31 -25.5t49 -13.5q23 0 35.5 12.5t12.5 33.5q0 19 -12 30.5t-33 11.5q-20 0 -30.5 -6.5
t-18.5 -12.5l-56 20l15 201h219v-81zM337 440v-66h-55v-82h-97v82h-159v66l137 216h119v-216h55zM185 492q0 27 1.5 49t6.5 40h-4q-4 -14 -15 -34.5t-25 -43.5l-40 -63h76v52z" />
    <glyph glyph-name="uni215A" unicode="&#x215a;" horiz-adv-x="818" 
d="M299 0h-103l310 656h102zM713 262q-7 12 -21.5 21t-34.5 9q-26 0 -46 -20.5t-22 -67.5q14 15 32.5 24t44.5 9q24 0 46 -8t38.5 -23t26.5 -36.5t10 -49.5q0 -29 -11.5 -52.5t-31 -40t-45.5 -26t-55 -9.5q-38 0 -67 14t-48.5 38t-29 56.5t-9.5 70.5q0 95 44.5 148t122.5 53
q42 0 72 -17t47 -42zM598 118q0 -23 12.5 -36t32.5 -13t32 13t12 36q0 24 -12 37t-32 13t-32.5 -13t-12.5 -37zM289 575h-141l-4 -53q22 5 39 5q25 0 47.5 -7t39 -21.5t26 -36t9.5 -50.5q0 -63 -39.5 -95.5t-108.5 -32.5q-48 0 -81 19.5t-50 37.5l51 64q11 -12 31 -25.5
t49 -13.5q23 0 35.5 12.5t12.5 33.5q0 19 -12 30.5t-33 11.5q-20 0 -30.5 -6.5t-18.5 -12.5l-56 20l15 201h219v-81z" />
    <glyph glyph-name="fiveeighths" unicode="&#x215d;" horiz-adv-x="781" 
d="M279 0h-103l310 656h102zM601 372q35 0 60.5 -9t42 -23.5t24.5 -33t8 -38.5q0 -50 -45 -76q29 -10 44.5 -34t15.5 -54q0 -23 -9 -43t-27 -35.5t-46.5 -24.5t-67.5 -9t-67.5 9t-46.5 24.5t-27 35.5t-9 43q0 30 15.5 54t44.5 34q-45 26 -45 76q0 20 8 38.5t24.5 33t42 23.5
t60.5 9zM560 261q0 -17 11 -27t30 -10t30 10t11 27t-11 27t-30 10t-30 -10t-11 -27zM550 115q0 -20 13.5 -33t37.5 -13t37.5 13t13.5 33q0 19 -13.5 31.5t-37.5 12.5t-37.5 -12.5t-13.5 -31.5zM289 575h-141l-4 -53q22 5 39 5q25 0 47.5 -7t39 -21.5t26 -36t9.5 -50.5
q0 -63 -39.5 -95.5t-108.5 -32.5q-48 0 -81 19.5t-50 37.5l51 64q11 -12 31 -25.5t49 -13.5q23 0 35.5 12.5t12.5 33.5q0 19 -12 30.5t-33 11.5q-20 0 -30.5 -6.5t-18.5 -12.5l-56 20l15 201h219v-81z" />
    <glyph glyph-name="seveneighths" unicode="&#x215e;" horiz-adv-x="729" 
d="M222 0h-103l310 656h102zM551 372q35 0 60.5 -9t42 -23.5t24.5 -33t8 -38.5q0 -50 -45 -76q29 -10 44.5 -34t15.5 -54q0 -23 -9 -43t-27 -35.5t-46.5 -24.5t-67.5 -9t-67.5 9t-46.5 24.5t-27 35.5t-9 43q0 30 15.5 54t44.5 34q-45 26 -45 76q0 20 8 38.5t24.5 33t42 23.5
t60.5 9zM510 261q0 -17 11 -27t30 -10t30 10t11 27t-11 27t-30 10t-30 -10t-11 -27zM500 115q0 -20 13.5 -33t37.5 -13t37.5 13t13.5 33q0 19 -13.5 31.5t-37.5 12.5t-37.5 -12.5t-13.5 -31.5zM290 656v-66l-124 -298h-104v2l119 279h-152v83h261z" />
    <glyph glyph-name="uni2189" unicode="&#x2189;" horiz-adv-x="842" 
d="M326 0h-103l310 656h102zM667 -8q-24 0 -45.5 5.5t-38.5 14.5t-30.5 19.5t-22.5 20.5l54 64q13 -14 33 -27t49 -13q23 0 35.5 10t12.5 29q0 17 -13.5 26t-37.5 9h-39v70h39q15 0 23.5 9t8.5 24q0 16 -9 25.5t-26 9.5q-20 0 -34 -10t-22 -21l-56 59q19 22 46.5 39t71.5 17
q64 0 97 -27t33 -75q0 -22 -11.5 -43t-33.5 -35q32 -10 47.5 -33.5t15.5 -54.5q0 -27 -11.5 -48t-31.5 -35t-47 -21.5t-57 -7.5zM340 474q0 -88 -41.5 -139t-114.5 -51t-114.5 51t-41.5 139t41.5 139t114.5 51t114.5 -51t41.5 -139zM240 474q0 54 -13 79.5t-43 25.5
t-42.5 -25.5t-12.5 -79.5t12.5 -80t42.5 -26t43 26t13 80z" />
    <glyph glyph-name="fraction" unicode="&#x2044;" horiz-adv-x="165" 
d="M-24 0h-103l310 656h102z" />
    <glyph glyph-name="one.sups" horiz-adv-x="250" 
d="M201 316h-96v260l-65 -38l-36 71l129 71h68v-364z" />
    <glyph glyph-name="two.sups" horiz-adv-x="317" 
d="M25 588q5 16 15 34t25.5 32.5t36.5 24t49 9.5q32 0 57 -9.5t41.5 -25.5t25 -37t8.5 -44q0 -40 -15.5 -67.5t-36.5 -47t-43 -33.5t-34 -27h131v-81h-256v68q16 32 42 56.5t51 45.5t43.5 40t18.5 40q0 14 -7.5 25.5t-28.5 11.5q-20 0 -32 -14t-19 -35z" />
    <glyph glyph-name="three.sups" horiz-adv-x="323" 
d="M150 308q-24 0 -45.5 5.5t-38.5 14.5t-30.5 19.5t-22.5 20.5l54 64q13 -14 33 -27t49 -13q23 0 35.5 10t12.5 29q0 17 -13.5 26t-37.5 9h-39v70h39q15 0 23.5 9t8.5 24q0 16 -9 25.5t-26 9.5q-20 0 -34 -10t-22 -21l-56 59q19 22 46.5 39t71.5 17q64 0 97 -27t33 -75
q0 -22 -11.5 -43t-33.5 -35q32 -10 47.5 -33.5t15.5 -54.5q0 -27 -11.5 -48t-31.5 -35t-47 -21.5t-57 -7.5z" />
    <glyph glyph-name="four.sups" horiz-adv-x="348" 
d="M327 464v-66h-55v-82h-97v82h-159v66l137 216h119v-216h55zM175 516q0 27 1.5 49t6.5 40h-4q-4 -14 -15 -34.5t-25 -43.5l-40 -63h76v52z" />
    <glyph glyph-name="five.sups" horiz-adv-x="323" 
d="M280 599h-141l-4 -53q22 5 39 5q25 0 47.5 -7t39 -21.5t26 -36t9.5 -50.5q0 -63 -39.5 -95.5t-108.5 -32.5q-48 0 -81 19.5t-50 37.5l51 64q11 -12 31 -25.5t49 -13.5q23 0 35.5 12.5t12.5 33.5q0 19 -12 30.5t-33 11.5q-20 0 -30.5 -6.5t-18.5 -12.5l-56 20l15 201h219
v-81z" />
    <glyph glyph-name="six.sups" horiz-adv-x="350" 
d="M250 578q-7 12 -21.5 21t-34.5 9q-26 0 -46 -20.5t-22 -67.5q14 15 32.5 24t44.5 9q24 0 46 -8t38.5 -23t26.5 -36.5t10 -49.5q0 -29 -11.5 -52.5t-31 -40t-45.5 -26t-55 -9.5q-38 0 -67 14t-48.5 38t-29 56.5t-9.5 70.5q0 95 44.5 148t122.5 53q42 0 72 -17t47 -42z
M135 434q0 -23 12.5 -36t32.5 -13t32 13t12 36q0 24 -12 37t-32 13t-32.5 -13t-12.5 -37z" />
    <glyph glyph-name="seven.sups" horiz-adv-x="293" 
d="M278 680v-66l-124 -298h-104v2l119 279h-152v83h261z" />
    <glyph glyph-name="eight.sups" horiz-adv-x="352" 
d="M176 688q35 0 60.5 -9t42 -23.5t24.5 -33t8 -38.5q0 -50 -45 -76q29 -10 44.5 -34t15.5 -54q0 -23 -9 -43t-27 -35.5t-46.5 -24.5t-67.5 -9t-67.5 9t-46.5 24.5t-27 35.5t-9 43q0 30 15.5 54t44.5 34q-45 26 -45 76q0 20 8 38.5t24.5 33t42 23.5t60.5 9zM135 577
q0 -17 11 -27t30 -10t30 10t11 27t-11 27t-30 10t-30 -10t-11 -27zM125 431q0 -20 13.5 -33t37.5 -13t37.5 13t13.5 33q0 19 -13.5 31.5t-37.5 12.5t-37.5 -12.5t-13.5 -31.5z" />
    <glyph glyph-name="nine.sups" horiz-adv-x="350" 
d="M99 417q8 -12 22.5 -21t34.5 -9q25 0 45 20.5t23 67.5q-14 -15 -33 -24t-45 -9q-24 0 -45.5 8t-38 23t-26.5 36.5t-10 49.5q0 29 11.5 52.5t31 40.5t45.5 26.5t55 9.5q38 0 67 -14t48.5 -38t29 -57t9.5 -71q0 -95 -44.5 -147.5t-122.5 -52.5q-42 0 -72 17t-47 42z
M215 561q0 23 -12.5 36t-32.5 13t-32 -13t-12 -36q0 -24 12 -37t32 -13t32.5 13t12.5 37z" />
    <glyph glyph-name="zero.sups" horiz-adv-x="368" 
d="M340 498q0 -88 -41.5 -139t-114.5 -51t-114.5 51t-41.5 139t41.5 139t114.5 51t114.5 -51t41.5 -139zM240 498q0 54 -13 79.5t-43 25.5t-42.5 -25.5t-12.5 -79.5t12.5 -80t42.5 -26t43 26t13 80z" />
    <glyph glyph-name="one.subs" horiz-adv-x="250" 
d="M201 -174h-96v260l-65 -38l-36 71l129 71h68v-364z" />
    <glyph glyph-name="two.subs" horiz-adv-x="317" 
d="M25 98q5 16 15 34t25.5 32.5t36.5 24t49 9.5q32 0 57 -9.5t41.5 -25.5t25 -37t8.5 -44q0 -40 -15.5 -67.5t-36.5 -47t-43 -33.5t-34 -27h131v-81h-256v68q16 32 42 56.5t51 45.5t43.5 40t18.5 40q0 14 -7.5 25.5t-28.5 11.5q-20 0 -32 -14t-19 -35z" />
    <glyph glyph-name="three.subs" horiz-adv-x="323" 
d="M150 -182q-24 0 -45.5 5.5t-38.5 14.5t-30.5 19.5t-22.5 20.5l54 64q13 -14 33 -27t49 -13q23 0 35.5 10t12.5 29q0 17 -13.5 26t-37.5 9h-39v70h39q15 0 23.5 9t8.5 24q0 16 -9 25.5t-26 9.5q-20 0 -34 -10t-22 -21l-56 59q19 22 46.5 39t71.5 17q64 0 97 -27t33 -75
q0 -22 -11.5 -43t-33.5 -35q32 -10 47.5 -33.5t15.5 -54.5q0 -27 -11.5 -48t-31.5 -35t-47 -21.5t-57 -7.5z" />
    <glyph glyph-name="four.subs" horiz-adv-x="348" 
d="M327 -26v-66h-55v-82h-97v82h-159v66l137 216h119v-216h55zM175 26q0 27 1.5 49t6.5 40h-4q-4 -14 -15 -34.5t-25 -43.5l-40 -63h76v52z" />
    <glyph glyph-name="five.subs" horiz-adv-x="323" 
d="M280 109h-141l-4 -53q22 5 39 5q25 0 47.5 -7t39 -21.5t26 -36t9.5 -50.5q0 -63 -39.5 -95.5t-108.5 -32.5q-48 0 -81 19.5t-50 37.5l51 64q11 -12 31 -25.5t49 -13.5q23 0 35.5 12.5t12.5 33.5q0 19 -12 30.5t-33 11.5q-20 0 -30.5 -6.5t-18.5 -12.5l-56 20l15 201h219
v-81z" />
    <glyph glyph-name="six.subs" horiz-adv-x="350" 
d="M250 88q-7 12 -21.5 21t-34.5 9q-26 0 -46 -20.5t-22 -67.5q14 15 32.5 24t44.5 9q24 0 46 -8t38.5 -23t26.5 -36.5t10 -49.5q0 -29 -11.5 -52.5t-31 -40t-45.5 -26t-55 -9.5q-38 0 -67 14t-48.5 38t-29 56.5t-9.5 70.5q0 95 44.5 148t122.5 53q42 0 72 -17t47 -42z
M135 -56q0 -23 12.5 -36t32.5 -13t32 13t12 36q0 24 -12 37t-32 13t-32.5 -13t-12.5 -37z" />
    <glyph glyph-name="seven.subs" horiz-adv-x="293" 
d="M278 190v-66l-124 -298h-104v2l119 279h-152v83h261z" />
    <glyph glyph-name="eight.subs" horiz-adv-x="352" 
d="M176 198q35 0 60.5 -9t42 -23.5t24.5 -33t8 -38.5q0 -50 -45 -76q29 -10 44.5 -34t15.5 -54q0 -23 -9 -43t-27 -35.5t-46.5 -24.5t-67.5 -9t-67.5 9t-46.5 24.5t-27 35.5t-9 43q0 30 15.5 54t44.5 34q-45 26 -45 76q0 20 8 38.5t24.5 33t42 23.5t60.5 9zM135 87
q0 -17 11 -27t30 -10t30 10t11 27t-11 27t-30 10t-30 -10t-11 -27zM125 -59q0 -20 13.5 -33t37.5 -13t37.5 13t13.5 33q0 19 -13.5 31.5t-37.5 12.5t-37.5 -12.5t-13.5 -31.5z" />
    <glyph glyph-name="nine.subs" horiz-adv-x="350" 
d="M99 -73q8 -12 22.5 -21t34.5 -9q25 0 45 20.5t23 67.5q-14 -15 -33 -24t-45 -9q-24 0 -45.5 8t-38 23t-26.5 36.5t-10 49.5q0 29 11.5 52.5t31 40.5t45.5 26.5t55 9.5q38 0 67 -14t48.5 -38t29 -57t9.5 -71q0 -95 -44.5 -147.5t-122.5 -52.5q-42 0 -72 17t-47 42zM215 71
q0 23 -12.5 36t-32.5 13t-32 -13t-12 -36q0 -24 12 -37t32 -13t32.5 13t12.5 37z" />
    <glyph glyph-name="zero.subs" horiz-adv-x="368" 
d="M340 8q0 -88 -41.5 -139t-114.5 -51t-114.5 51t-41.5 139t41.5 139t114.5 51t114.5 -51t41.5 -139zM240 8q0 54 -13 79.5t-43 25.5t-42.5 -25.5t-12.5 -79.5t12.5 -80t42.5 -26t43 26t13 80z" />
    <glyph glyph-name="one.numr" horiz-adv-x="250" 
d="M201 292h-96v260l-65 -38l-36 71l129 71h68v-364z" />
    <glyph glyph-name="two.numr" horiz-adv-x="317" 
d="M25 564q5 16 15 34t25.5 32.5t36.5 24t49 9.5q32 0 57 -9.5t41.5 -25.5t25 -37t8.5 -44q0 -40 -15.5 -67.5t-36.5 -47t-43 -33.5t-34 -27h131v-81h-256v68q16 32 42 56.5t51 45.5t43.5 40t18.5 40q0 14 -7.5 25.5t-28.5 11.5q-20 0 -32 -14t-19 -35z" />
    <glyph glyph-name="three.numr" horiz-adv-x="323" 
d="M150 284q-24 0 -45.5 5.5t-38.5 14.5t-30.5 19.5t-22.5 20.5l54 64q13 -14 33 -27t49 -13q23 0 35.5 10t12.5 29q0 17 -13.5 26t-37.5 9h-39v70h39q15 0 23.5 9t8.5 24q0 16 -9 25.5t-26 9.5q-20 0 -34 -10t-22 -21l-56 59q19 22 46.5 39t71.5 17q64 0 97 -27t33 -75
q0 -22 -11.5 -43t-33.5 -35q32 -10 47.5 -33.5t15.5 -54.5q0 -27 -11.5 -48t-31.5 -35t-47 -21.5t-57 -7.5z" />
    <glyph glyph-name="four.numr" horiz-adv-x="348" 
d="M327 440v-66h-55v-82h-97v82h-159v66l137 216h119v-216h55zM175 492q0 27 1.5 49t6.5 40h-4q-4 -14 -15 -34.5t-25 -43.5l-40 -63h76v52z" />
    <glyph glyph-name="five.numr" horiz-adv-x="323" 
d="M280 575h-141l-4 -53q22 5 39 5q25 0 47.5 -7t39 -21.5t26 -36t9.5 -50.5q0 -63 -39.5 -95.5t-108.5 -32.5q-48 0 -81 19.5t-50 37.5l51 64q11 -12 31 -25.5t49 -13.5q23 0 35.5 12.5t12.5 33.5q0 19 -12 30.5t-33 11.5q-20 0 -30.5 -6.5t-18.5 -12.5l-56 20l15 201h219
v-81z" />
    <glyph glyph-name="six.numr" horiz-adv-x="350" 
d="M250 554q-7 12 -21.5 21t-34.5 9q-26 0 -46 -20.5t-22 -67.5q14 15 32.5 24t44.5 9q24 0 46 -8t38.5 -23t26.5 -36.5t10 -49.5q0 -29 -11.5 -52.5t-31 -40t-45.5 -26t-55 -9.5q-38 0 -67 14t-48.5 38t-29 56.5t-9.5 70.5q0 95 44.5 148t122.5 53q42 0 72 -17t47 -42z
M135 410q0 -23 12.5 -36t32.5 -13t32 13t12 36q0 24 -12 37t-32 13t-32.5 -13t-12.5 -37z" />
    <glyph glyph-name="seven.numr" horiz-adv-x="293" 
d="M278 656v-66l-124 -298h-104v2l119 279h-152v83h261z" />
    <glyph glyph-name="eight.numr" horiz-adv-x="352" 
d="M176 664q35 0 60.5 -9t42 -23.5t24.5 -33t8 -38.5q0 -50 -45 -76q29 -10 44.5 -34t15.5 -54q0 -23 -9 -43t-27 -35.5t-46.5 -24.5t-67.5 -9t-67.5 9t-46.5 24.5t-27 35.5t-9 43q0 30 15.5 54t44.5 34q-45 26 -45 76q0 20 8 38.5t24.5 33t42 23.5t60.5 9zM135 553
q0 -17 11 -27t30 -10t30 10t11 27t-11 27t-30 10t-30 -10t-11 -27zM125 407q0 -20 13.5 -33t37.5 -13t37.5 13t13.5 33q0 19 -13.5 31.5t-37.5 12.5t-37.5 -12.5t-13.5 -31.5z" />
    <glyph glyph-name="nine.numr" horiz-adv-x="350" 
d="M99 393q8 -12 22.5 -21t34.5 -9q25 0 45 20.5t23 67.5q-14 -15 -33 -24t-45 -9q-24 0 -45.5 8t-38 23t-26.5 36.5t-10 49.5q0 29 11.5 52.5t31 40.5t45.5 26.5t55 9.5q38 0 67 -14t48.5 -38t29 -57t9.5 -71q0 -95 -44.5 -147.5t-122.5 -52.5q-42 0 -72 17t-47 42z
M215 537q0 23 -12.5 36t-32.5 13t-32 -13t-12 -36q0 -24 12 -37t32 -13t32.5 13t12.5 37z" />
    <glyph glyph-name="zero.numr" horiz-adv-x="368" 
d="M340 474q0 -88 -41.5 -139t-114.5 -51t-114.5 51t-41.5 139t41.5 139t114.5 51t114.5 -51t41.5 -139zM240 474q0 54 -13 79.5t-43 25.5t-42.5 -25.5t-12.5 -79.5t12.5 -80t42.5 -26t43 26t13 80z" />
    <glyph glyph-name="one.dnom" horiz-adv-x="250" 
d="M201 0h-96v260l-65 -38l-36 71l129 71h68v-364z" />
    <glyph glyph-name="two.dnom" horiz-adv-x="317" 
d="M25 272q5 16 15 34t25.5 32.5t36.5 24t49 9.5q32 0 57 -9.5t41.5 -25.5t25 -37t8.5 -44q0 -40 -15.5 -67.5t-36.5 -47t-43 -33.5t-34 -27h131v-81h-256v68q16 32 42 56.5t51 45.5t43.5 40t18.5 40q0 14 -7.5 25.5t-28.5 11.5q-20 0 -32 -14t-19 -35z" />
    <glyph glyph-name="three.dnom" horiz-adv-x="323" 
d="M150 -8q-24 0 -45.5 5.5t-38.5 14.5t-30.5 19.5t-22.5 20.5l54 64q13 -14 33 -27t49 -13q23 0 35.5 10t12.5 29q0 17 -13.5 26t-37.5 9h-39v70h39q15 0 23.5 9t8.5 24q0 16 -9 25.5t-26 9.5q-20 0 -34 -10t-22 -21l-56 59q19 22 46.5 39t71.5 17q64 0 97 -27t33 -75
q0 -22 -11.5 -43t-33.5 -35q32 -10 47.5 -33.5t15.5 -54.5q0 -27 -11.5 -48t-31.5 -35t-47 -21.5t-57 -7.5z" />
    <glyph glyph-name="four.dnom" horiz-adv-x="348" 
d="M327 148v-66h-55v-82h-97v82h-159v66l137 216h119v-216h55zM175 200q0 27 1.5 49t6.5 40h-4q-4 -14 -15 -34.5t-25 -43.5l-40 -63h76v52z" />
    <glyph glyph-name="five.dnom" horiz-adv-x="323" 
d="M280 283h-141l-4 -53q22 5 39 5q25 0 47.5 -7t39 -21.5t26 -36t9.5 -50.5q0 -63 -39.5 -95.5t-108.5 -32.5q-48 0 -81 19.5t-50 37.5l51 64q11 -12 31 -25.5t49 -13.5q23 0 35.5 12.5t12.5 33.5q0 19 -12 30.5t-33 11.5q-20 0 -30.5 -6.5t-18.5 -12.5l-56 20l15 201h219
v-81z" />
    <glyph glyph-name="six.dnom" horiz-adv-x="350" 
d="M250 262q-7 12 -21.5 21t-34.5 9q-26 0 -46 -20.5t-22 -67.5q14 15 32.5 24t44.5 9q24 0 46 -8t38.5 -23t26.5 -36.5t10 -49.5q0 -29 -11.5 -52.5t-31 -40t-45.5 -26t-55 -9.5q-38 0 -67 14t-48.5 38t-29 56.5t-9.5 70.5q0 95 44.5 148t122.5 53q42 0 72 -17t47 -42z
M135 118q0 -23 12.5 -36t32.5 -13t32 13t12 36q0 24 -12 37t-32 13t-32.5 -13t-12.5 -37z" />
    <glyph glyph-name="seven.dnom" horiz-adv-x="293" 
d="M278 364v-66l-124 -298h-104v2l119 279h-152v83h261z" />
    <glyph glyph-name="eight.dnom" horiz-adv-x="352" 
d="M176 372q35 0 60.5 -9t42 -23.5t24.5 -33t8 -38.5q0 -50 -45 -76q29 -10 44.5 -34t15.5 -54q0 -23 -9 -43t-27 -35.5t-46.5 -24.5t-67.5 -9t-67.5 9t-46.5 24.5t-27 35.5t-9 43q0 30 15.5 54t44.5 34q-45 26 -45 76q0 20 8 38.5t24.5 33t42 23.5t60.5 9zM135 261
q0 -17 11 -27t30 -10t30 10t11 27t-11 27t-30 10t-30 -10t-11 -27zM125 115q0 -20 13.5 -33t37.5 -13t37.5 13t13.5 33q0 19 -13.5 31.5t-37.5 12.5t-37.5 -12.5t-13.5 -31.5z" />
    <glyph glyph-name="nine.dnom" horiz-adv-x="350" 
d="M99 101q8 -12 22.5 -21t34.5 -9q25 0 45 20.5t23 67.5q-14 -15 -33 -24t-45 -9q-24 0 -45.5 8t-38 23t-26.5 36.5t-10 49.5q0 29 11.5 52.5t31 40.5t45.5 26.5t55 9.5q38 0 67 -14t48.5 -38t29 -57t9.5 -71q0 -95 -44.5 -147.5t-122.5 -52.5q-42 0 -72 17t-47 42z
M215 245q0 23 -12.5 36t-32.5 13t-32 -13t-12 -36q0 -24 12 -37t32 -13t32.5 13t12.5 37z" />
    <glyph glyph-name="zero.dnom" horiz-adv-x="368" 
d="M340 182q0 -88 -41.5 -139t-114.5 -51t-114.5 51t-41.5 139t41.5 139t114.5 51t114.5 -51t41.5 -139zM240 182q0 54 -13 79.5t-43 25.5t-42.5 -25.5t-12.5 -79.5t12.5 -80t42.5 -26t43 26t13 80z" />
    <glyph glyph-name="hyphen.case" horiz-adv-x="393" 
d="M62 287v106h269v-106h-269z" />
    <glyph glyph-name="endash.case" horiz-adv-x="580" 
d="M62 287v106h456v-106h-456z" />
    <glyph glyph-name="emdash.case" horiz-adv-x="886" 
d="M62 287v106h762v-106h-762z" />
    <glyph glyph-name="uni2010.case" horiz-adv-x="393" 
d="M62 287v106h269v-106h-269z" />
    <glyph glyph-name="uni2011.case" horiz-adv-x="393" 
d="M62 287v106h269v-106h-269z" />
    <glyph glyph-name="questiondown.case" horiz-adv-x="452" 
d="M232.014 -13.958q-44.9971 0 -81.4951 13.499q-36.498 13.5 -62.4961 37.498q-25.999 23.999 -39.998 56.4971t-13.999 69.4951q0 29.998 8 54.9971q7.99902 24.998 20.498 45.9971q12.5 20.999 28.999 37.998t33.4971 29.998l38.998 33.998q10.999 10.999 18.499 19.998
q7.49902 9 11.499 17.999q4 9 5.5 19.499t1.5 25.498h113.993q17.998 -38.9971 2.49902 -81.9941q-15.499 -42.998 -53.4961 -75.9961l-39.998 -33.998q-22.998 -18.998 -37.9971 -39.4971t-14.999 -46.4971q0 -29.998 18.498 -49.4971q18.499 -19.499 51.4971 -19.499
q31.998 0 53.4971 19.999q21.498 19.999 29.498 55.9961l102.994 -42.9971q-9 -28.998 -24.499 -55.9961q-15.499 -26.999 -39.4971 -47.498q-23.999 -20.498 -56.4971 -32.9971q-32.498 -12.5 -74.4951 -12.5zM334.007 529.009h-155.99v150.991h155.99v-150.991z" />
    <glyph glyph-name="exclamdown.case" horiz-adv-x="296" 
d="M190.006 449.014l35.998 -448.973h-155.99l35.998 448.973h83.9941zM226.004 529.009h-155.99v150.991h155.99v-150.991z" />
    <glyph glyph-name="guilsinglleft.case" horiz-adv-x="355" 
d="M38.0186 319.02v38.998l155.991 188.988h119.992v-3l-146.991 -204.987l146.991 -205.987v-3h-119.992z" />
    <glyph glyph-name="guilsinglright.case" horiz-adv-x="355" 
d="M317 358v-39l-156 -189h-120v3l147 205l-147 206v3h120z" />
    <glyph glyph-name="guillemotleft.case" horiz-adv-x="597" 
d="M280.019 319.02v38.998l155.991 188.988h119.992v-3l-146.991 -204.987l146.991 -205.987v-3h-119.992zM38.0186 319.02v38.998l155.991 188.988h119.992v-3l-146.991 -204.987l146.991 -205.987v-3h-119.992z" />
    <glyph glyph-name="guillemotright.case" horiz-adv-x="597" 
d="M317 358v-39l-156 -189h-120v3l147 205l-147 206v3h120zM559 358v-39l-156 -189h-120v3l147 205l-147 206v3h120z" />
    <glyph glyph-name="parenleft.case" horiz-adv-x="333" 
d="M42 344q0 89 20 160t50.5 125.5t68 93.5t73.5 65l59 -66q-33 -32 -59.5 -69t-45 -82t-28.5 -101t-10 -126t10 -126t28.5 -101t45 -82t59.5 -69l-59 -66q-36 25 -73.5 64.5t-68 94t-50.5 125.5t-20 160z" />
    <glyph glyph-name="parenright.case" horiz-adv-x="333" 
d="M291.003 344.016q0 -88.9941 -19.999 -159.99q-19.999 -70.9951 -50.4971 -125.492q-30.498 -54.4961 -67.9961 -93.4941q-37.4971 -38.998 -73.4951 -64.9961l-58.9961 65.9961q32.9971 31.998 59.4961 68.9961q26.498 36.9971 44.9971 81.9941
q18.499 44.998 28.498 100.994q10 55.9971 10 125.992q0 69.9961 -10 125.992q-9.99902 55.9971 -28.498 100.994t-44.9971 81.9951q-26.499 36.998 -59.4961 68.9961l58.9961 65.9961q35.998 -24.999 73.4951 -64.4961q37.498 -39.498 67.9961 -93.9951
q30.498 -54.4961 50.4971 -125.492q19.999 -70.9951 19.999 -159.99z" />
    <glyph glyph-name="bracketleft.case" horiz-adv-x="340" 
d="M306 763v-94h-106v-658h106v-94h-223v846h223z" />
    <glyph glyph-name="bracketright.case" horiz-adv-x="340" 
d="M34.0186 -82.959v93.9951h105.993v657.96h-105.993v93.9941h222.986v-845.949h-222.986z" />
    <glyph glyph-name="braceleft.case" horiz-adv-x="366" 
d="M69 387q23 0 37 14t14 37v171q0 78 42.5 117.5t117.5 39.5q8 0 23.5 -0.5t23.5 -2.5v-93h-24q-30 0 -48 -15.5t-18 -60.5v-153q0 -86 -68 -101q68 -15 68 -101v-153q0 -45 18 -60.5t48 -15.5h24v-93q-8 -2 -23.5 -2.5t-23.5 -0.5q-75 0 -117.5 39.5t-42.5 117.5v171
q0 23 -14 37t-37 14h-46v94h46z" />
    <glyph glyph-name="braceright.case" horiz-adv-x="366" 
d="M297.004 293.019q-22.999 0 -36.998 -13.999t-13.999 -36.998v-170.989q0 -77.9951 -42.4971 -117.493q-42.498 -39.4971 -117.493 -39.4971q-7.99902 0 -23.498 0.5t-23.499 2.49902v92.9951h23.999q29.998 0 47.9971 15.499q17.998 15.499 17.998 60.4961v152.99
q0 85.9951 67.9961 100.994q-67.9961 14.999 -67.9961 100.994v152.99q0 44.9971 -17.998 60.4961q-17.999 15.499 -47.9971 15.499h-23.999v92.9951q8 2 23.499 2.5q15.499 0.499023 23.498 0.499023q74.9951 0 117.493 -39.4971q42.4971 -39.498 42.4971 -117.493
v-170.989q0 -22.999 13.999 -36.998t36.998 -13.999h45.9971v-93.9941h-45.9971z" />
    <glyph glyph-name="periodcentered.case" horiz-adv-x="280" 
d="M62 417h156v-154h-156v154z" />
    <glyph glyph-name="bullet.case" horiz-adv-x="394" 
d="M198 209q-30 0 -54 10t-41 27t-26.5 41t-9.5 51t9.5 51t26.5 41t41 27t54 10t54 -10t41 -27t26.5 -41t9.5 -51t-9.5 -51t-26.5 -41t-41 -27t-54 -10z" />
    <glyph glyph-name="minus.case" 
d="M501 284h-441v110h441v-110z" />
    <glyph glyph-name="cedilla.case" horiz-adv-x="631" 
d="M307 16q48 -20 74 -50.5t26 -67.5q0 -44 -36 -71t-96 -27q-32 0 -57.5 6.5t-42.5 19.5l35 73q12 -7 22 -10t24 -3q22 0 29.5 10t7.5 21q0 27 -25 47.5t-72 37.5z" />
    <glyph glyph-name="ogonek.case" horiz-adv-x="632" 
d="M387 0q-47 -17 -72 -37t-25 -46q0 -11 7.5 -21t29.5 -10q23 0 45 13l36 -73q-17 -13 -43 -19.5t-57 -6.5q-60 0 -95.5 29.5t-35.5 77.5q0 40 31 72.5t88 54.5z" />
    <glyph glyph-name="ogonek.i.case" horiz-adv-x="631" 
d="M384 0q-38 -16 -58.5 -34.5t-20.5 -44.5q0 -14 8 -24.5t30 -10.5q14 0 24.5 3t21.5 10l35 -73q-17 -13 -42.5 -19.5t-56.5 -6.5q-61 0 -97 29.5t-36 76.5q0 35 19 62t53 47z" />
    <glyph glyph-name="a.ss01" horiz-adv-x="605" 
d="M410 59q-25 -33 -61 -53t-81 -20q-49 0 -91 18.5t-72.5 53.5t-48 85t-17.5 114t17.5 114t48 85t72.5 53.5t91 18.5q45 0 81 -20.5t61 -53.5v59h127v-513h-127v59zM297 95q33 0 62.5 20t45.5 55v173q-16 36 -45.5 56t-62.5 20q-53 0 -88.5 -39t-35.5 -123t35.5 -123
t88.5 -39z" />
    <glyph glyph-name="agrave.ss01" horiz-adv-x="605" 
d="M410 59q-25 -33 -61 -53t-81 -20q-49 0 -91 18.5t-72.5 53.5t-48 85t-17.5 114t17.5 114t48 85t72.5 53.5t91 18.5q45 0 81 -20.5t61 -53.5v59h127v-513h-127v59zM297 95q33 0 62.5 20t45.5 55v173q-16 36 -45.5 56t-62.5 20q-53 0 -88.5 -39t-35.5 -123t35.5 -123
t88.5 -39zM149 744v3h138l90 -151v-3h-105z" />
    <glyph glyph-name="aacute.ss01" horiz-adv-x="605" 
d="M410 59q-25 -33 -61 -53t-81 -20q-49 0 -91 18.5t-72.5 53.5t-48 85t-17.5 114t17.5 114t48 85t72.5 53.5t91 18.5q45 0 81 -20.5t61 -53.5v59h127v-513h-127v59zM297 95q33 0 62.5 20t45.5 55v173q-16 36 -45.5 56t-62.5 20q-53 0 -88.5 -39t-35.5 -123t35.5 -123
t88.5 -39zM244 593v3l90 151h138v-3l-123 -151h-105z" />
    <glyph glyph-name="acircumflex.ss01" horiz-adv-x="605" 
d="M410 59q-25 -33 -61 -53t-81 -20q-49 0 -91 18.5t-72.5 53.5t-48 85t-17.5 114t17.5 114t48 85t72.5 53.5t91 18.5q45 0 81 -20.5t61 -53.5v59h127v-513h-127v59zM297 95q33 0 62.5 20t45.5 55v173q-16 36 -45.5 56t-62.5 20q-53 0 -88.5 -39t-35.5 -123t35.5 -123
t88.5 -39zM366 747l121 -151v-3h-108l-70 70l-68 -70h-108v3l122 151h111z" />
    <glyph glyph-name="atilde.ss01" horiz-adv-x="605" 
d="M410 59q-25 -33 -61 -53t-81 -20q-49 0 -91 18.5t-72.5 53.5t-48 85t-17.5 114t17.5 114t48 85t72.5 53.5t91 18.5q45 0 81 -20.5t61 -53.5v59h127v-513h-127v59zM297 95q33 0 62.5 20t45.5 55v173q-16 36 -45.5 56t-62.5 20q-53 0 -88.5 -39t-35.5 -123t35.5 -123
t88.5 -39zM257 644q-15 0 -23.5 -14.5t-14.5 -37.5l-84 27q31 121 123 121q24 0 41.5 -8t31 -18t24 -18t21.5 -8q16 0 25 14.5t15 37.5l83 -27q-29 -121 -123 -121q-24 0 -42 8t-31.5 18t-24.5 18t-21 8z" />
    <glyph glyph-name="adieresis.ss01" horiz-adv-x="605" 
d="M410 59q-25 -33 -61 -53t-81 -20q-49 0 -91 18.5t-72.5 53.5t-48 85t-17.5 114t17.5 114t48 85t72.5 53.5t91 18.5q45 0 81 -20.5t61 -53.5v59h127v-513h-127v59zM297 95q33 0 62.5 20t45.5 55v173q-16 36 -45.5 56t-62.5 20q-53 0 -88.5 -39t-35.5 -123t35.5 -123
t88.5 -39zM138 733h133v-125h-133v125zM349 733h132v-125h-132v125z" />
    <glyph glyph-name="aring.ss01" horiz-adv-x="605" 
d="M410 59q-25 -33 -61 -53t-81 -20q-49 0 -91 18.5t-72.5 53.5t-48 85t-17.5 114t17.5 114t48 85t72.5 53.5t91 18.5q45 0 81 -20.5t61 -53.5v59h127v-513h-127v59zM297 95q33 0 62.5 20t45.5 55v173q-16 36 -45.5 56t-62.5 20q-53 0 -88.5 -39t-35.5 -123t35.5 -123
t88.5 -39zM196 690q0 23 9 42.5t25 33.5t36.5 22t43.5 8t43.5 -8t36 -22t24.5 -33.5t9 -42.5t-9 -42.5t-24.5 -33.5t-36 -22t-43.5 -8t-43.5 8t-36.5 22t-25 33.5t-9 42.5zM268 690q0 -18 11.5 -30t30.5 -12q18 0 29.5 12t11.5 30q0 19 -11.5 30.5t-29.5 11.5
q-19 0 -30.5 -11.5t-11.5 -30.5z" />
    <glyph glyph-name="amacron.ss01" horiz-adv-x="605" 
d="M410 59q-25 -33 -61 -53t-81 -20q-49 0 -91 18.5t-72.5 53.5t-48 85t-17.5 114t17.5 114t48 85t72.5 53.5t91 18.5q45 0 81 -20.5t61 -53.5v59h127v-513h-127v59zM297 95q33 0 62.5 20t45.5 55v173q-16 36 -45.5 56t-62.5 20q-53 0 -88.5 -39t-35.5 -123t35.5 -123
t88.5 -39zM472 705v-90h-324v90h324z" />
    <glyph glyph-name="abreve.ss01" horiz-adv-x="605" 
d="M410 59q-25 -33 -61 -53t-81 -20q-49 0 -91 18.5t-72.5 53.5t-48 85t-17.5 114t17.5 114t48 85t72.5 53.5t91 18.5q45 0 81 -20.5t61 -53.5v59h127v-513h-127v59zM297 95q33 0 62.5 20t45.5 55v173q-16 36 -45.5 56t-62.5 20q-53 0 -88.5 -39t-35.5 -123t35.5 -123
t88.5 -39zM311 584q-58 0 -98.5 30.5t-66.5 78.5l71 50q39 -63 94 -63t94 63l71 -50q-26 -48 -66.5 -78.5t-98.5 -30.5z" />
    <glyph glyph-name="aogonek.ss01" horiz-adv-x="605" 
d="M410 59q-25 -33 -61 -53t-81 -20q-49 0 -91 18.5t-72.5 53.5t-48 85t-17.5 114t17.5 114t48 85t72.5 53.5t91 18.5q45 0 81 -20.5t61 -53.5v59h127v-513h-127v59zM297 95q33 0 62.5 20t45.5 55v173q-16 36 -45.5 56t-62.5 20q-53 0 -88.5 -39t-35.5 -123t35.5 -123
t88.5 -39zM537 0q-43 -17 -66 -36t-23 -44q0 -12 7.5 -21.5t27.5 -9.5q22 0 42 13l31 -65q-32 -24 -89 -24q-54 0 -86 27t-32 70q0 37 23.5 67t67.5 52z" />
    <glyph glyph-name="Agrave" unicode="&#xc0;" horiz-adv-x="637" 
d="M238 680h161l237 -680h-143l-48 146h-254l-47 -146h-143zM227 256h182l-64 197q-12 34 -18.5 64.5t-6.5 43.5h-4q0 -13 -6.5 -43.5t-17.5 -64.5zM158 905v3h138l90 -151v-3h-105z" />
    <glyph glyph-name="Aacute" unicode="&#xc1;" horiz-adv-x="637" 
d="M238 680h161l237 -680h-143l-48 146h-254l-47 -146h-143zM227 256h182l-64 197q-12 34 -18.5 64.5t-6.5 43.5h-4q0 -13 -6.5 -43.5t-17.5 -64.5zM253 754v3l90 151h138v-3l-123 -151h-105z" />
    </font>
</defs>
</svg>
